<?xml version="1.0" encoding="utf-8"?>
<!-- Generator: Adobe Illustrator 21.1.0, SVG Export Plug-In . SVG Version: 6.00 Build 0)  -->
<svg version="1.1" id="Layer_1" xmlns="http://www.w3.org/2000/svg" xmlns:xlink="http://www.w3.org/1999/xlink" x="0px" y="0px"
	 viewBox="0 0 566.9 566.9" style="enable-background:new 0 0 566.9 566.9;" xml:space="preserve">
<g fill="white">
	<path d="M445.6,159c-23.5-30.7-55-54-91.1-67.4C331.7,83,307.6,78.7,283,78.7c-23.5,0-46.5,3.9-68.5,11.7
		c-28.1,10-54.2,26.4-75.6,47.5c-21.3,21.1-38,47-48.3,75c-8.3,22.6-12.5,46.3-12.5,70.6c0,30.2,6.4,59.3,19.1,86.5
		c21.6,46.2,59.3,82.5,106.2,102.3h-43.7c-4.4,0-8,3.6-8,8c0,4.4,3.6,8,8,8h224c4.4,0,8-3.6,8-8c0-4.4-3.6-8-8-8h-21.4
		c7.3-3.1,14.4-6.5,21.2-10.4c27.3-15.4,51-37.3,68.7-63.2c18-26.5,29.7-57.3,33.8-89c1.1-8.6,1.7-17.4,1.7-26.2
		C487.8,238,473.2,195,445.6,159L445.6,159z M355.5,109.1c27,11.2,51,28.6,70.2,50.7c-24,8.4-45.2,19.9-63.2,34.1
		c-19.1,15.1-33.7,32.6-43.5,52.1c-8.2-2.2-16.5-4.3-24.9-6.3C312.7,195.6,333.2,152,355.5,109.1L355.5,109.1z M283,94.7
		c19.6,0,38.9,3,57.3,8.9c-22.5,43.5-43.2,87.7-62.1,132.4c-8.4-1.9-17-3.8-25.5-5.6c7.1-22.2,8.7-44.5,4.8-66.7
		c-3.8-21.8-12.9-42.5-27-61.6C247.6,97.2,265.2,94.7,283,94.7L283,94.7z M214.7,107.5c28.3,36,36.2,78.1,22.3,119.7
		c-41.9-8.2-84.6-14.4-127.3-18.5C129.7,162.2,167.3,125.8,214.7,107.5L214.7,107.5z M108.6,355.8c-9.5-22.9-14.4-47.2-14.4-72.3
		c0-20.3,3.2-40.3,9.5-59.3c42.6,3.9,85.4,10,127.2,18.1C211.2,285,171,323.1,114.2,353C112.3,353.9,110.4,354.9,108.6,355.8
		L108.6,355.8z M202.3,454.2c-37.4-17.7-67.9-47.1-87-83.9c2.1-1,4.1-2.1,6.2-3.2c30.5-16,56.7-34.4,77.7-54.7
		c21.3-20.5,37.3-43,47.8-66.9c8.4,1.7,16.7,3.6,25,5.5C244.6,317.7,221.3,385.7,202.3,454.2L202.3,454.2z M283,472.3
		c-22.7,0-44.8-4-65.9-11.8c19.1-69.4,42.8-138.2,70.7-205.8c8.3,2,16.5,4.1,24.6,6.2c-17.5,46.9-9.2,99.4,24.3,152.5
		c8.7,13.5,18.7,26.7,30.1,39.3C340.9,465.6,312.2,472.3,283,472.3L283,472.3z M381.2,444.8c-11.7-12.8-22.1-26.2-30.9-39.9
		c-21.8-34.6-42.9-86.4-22.3-139.7c48.2,13.3,95.7,29.7,141.5,48.6C460.7,367.8,428.2,416.1,381.2,444.8L381.2,444.8z M471.3,297.1
		c-44.3-18.1-90.1-33.8-136.6-46.8c18.6-34.3,54.9-62,101.5-77.2c23.3,32.2,35.6,70.3,35.6,110.3C471.8,288,471.7,292.6,471.3,297.1
		L471.3,297.1z M471.3,297.1"/>
	<path d="M479.8,472.3h-32c-4.4,0-8,3.6-8,8c0,4.4,3.6,8,8,8h32c4.4,0,8-3.6,8-8C487.8,475.9,484.2,472.3,479.8,472.3L479.8,472.3z
		 M479.8,472.3"/>
	<path d="M415.8,472.3c-4.4,0-8,3.6-8,8c0,4.4,3.6,8,8,8c4.4,0,8-3.6,8-8C423.8,475.9,420.2,472.3,415.8,472.3L415.8,472.3z
		 M415.8,472.3"/>
</g>
</svg>
