<?xml version="1.0" encoding="utf-8"?>
<!-- Generator: Adobe Illustrator 21.1.0, SVG Export Plug-In . SVG Version: 6.00 Build 0)  -->
<svg version="1.1" id="Layer_1" xmlns="http://www.w3.org/2000/svg" xmlns:xlink="http://www.w3.org/1999/xlink" x="0px" y="0px"
	 viewBox="0 0 566.9 566.9" style="enable-background:new 0 0 566.9 566.9;" xml:space="preserve">
<g fill="white">
	<path d="M478.9,257h-92.8l-94.2-85.9v-19.4h53.9c4.9,0,8.9-4,8.9-8.9v-42.2c0-4.9-4-8.9-8.9-8.9H283c-4.9,0-8.9,4-8.9,8.9v70.5
		L180,257H87.1c-4.9,0-8.9,4-8.9,8.9v200.3c0,4.9,4,8.9,8.9,8.9h391.8c4.9,0,8.9-4,8.9-8.9V265.9C487.8,261,483.9,257,478.9,257
		L478.9,257z M291.9,122.5v-13h45v24.4h-45V122.5z M144.2,457.4h-19v-20.7h19V457.4z M174.5,457.4H162v-29.6c0-4.9-4-8.9-8.9-8.9
		h-36.7c-4.9,0-8.9,4-8.9,8.9v29.6H96v-125h78.5V457.4z M174.5,314.5H96v-39.7h78.5V314.5z M283,187.1l76.7,69.9H206.4L283,187.1z
		 M297.7,457.4h-29.3v-87.2h29.3V457.4z M373.8,457.4h-19v-66.8c0-4.9-4-8.9-8.9-8.9s-8.9,4-8.9,8.9v66.8h-21.4v-96.1
		c0-4.9-4-8.9-8.9-8.9h-47.1c-4.9,0-8.9,4-8.9,8.9v96.1h-21.4v-66.8c0-4.9-4-8.9-8.9-8.9c-4.9,0-8.9,4-8.9,8.9v66.8h-19.1v-125
		h181.5V457.4z M373.8,314.5H192.3v-39.7h181.5V314.5z M440.8,457.4h-19v-20.7h19V457.4z M470,457.4h-11.4v-29.6
		c0-4.9-4-8.9-8.9-8.9H413c-4.9,0-8.9,4-8.9,8.9v29.6h-12.6v-125H470V457.4z M470,314.5h-78.5v-39.7H470V314.5z M470,314.5"/>
	<path d="M153.1,347.1h-36.7c-4.9,0-8.9,4-8.9,8.9v36.7c0,4.9,4,8.9,8.9,8.9h36.7c4.9,0,8.9-4,8.9-8.9V356
		C162,351.1,158,347.1,153.1,347.1L153.1,347.1z M144.2,383.9h-19v-19h19V383.9z M144.2,383.9"/>
	<path d="M449.7,347.1H413c-4.9,0-8.9,4-8.9,8.9v36.7c0,4.9,4,8.9,8.9,8.9h36.7c4.9,0,8.9-4,8.9-8.9V356
		C458.6,351.1,454.6,347.1,449.7,347.1L449.7,347.1z M440.8,383.9h-19v-19h19V383.9z M440.8,383.9"/>
	<path d="M229,359.5c-0.1-0.6-0.3-1.1-0.5-1.7c-0.2-0.5-0.5-1-0.8-1.5c-0.3-0.5-0.7-0.9-1.1-1.4c-0.4-0.4-0.9-0.8-1.4-1.1
		c-0.5-0.3-1-0.6-1.5-0.8c-0.5-0.2-1.1-0.4-1.7-0.5c-1.1-0.2-2.3-0.2-3.5,0c-0.6,0.1-1.1,0.3-1.7,0.5c-0.5,0.2-1.1,0.5-1.5,0.8
		c-0.5,0.3-0.9,0.7-1.4,1.1c-0.4,0.4-0.8,0.9-1.1,1.4c-0.3,0.5-0.6,1-0.8,1.5c-0.2,0.5-0.4,1.1-0.5,1.7c-0.1,0.6-0.2,1.2-0.2,1.7
		c0,0.6,0.1,1.2,0.2,1.7c0.1,0.6,0.3,1.1,0.5,1.7c0.2,0.5,0.5,1.1,0.8,1.5c0.3,0.5,0.7,0.9,1.1,1.4c0.4,0.4,0.9,0.8,1.4,1.1
		c0.5,0.3,1,0.6,1.5,0.8c0.5,0.2,1.1,0.4,1.7,0.5c0.6,0.1,1.2,0.2,1.7,0.2c0.6,0,1.2-0.1,1.7-0.2c0.6-0.1,1.1-0.3,1.7-0.5
		c0.5-0.2,1-0.5,1.5-0.8c0.5-0.3,0.9-0.7,1.4-1.1c0.4-0.4,0.8-0.9,1.1-1.4c0.3-0.5,0.6-1,0.8-1.5c0.2-0.5,0.4-1.1,0.5-1.7
		c0.1-0.6,0.2-1.2,0.2-1.7C229.1,360.7,229.1,360.1,229,359.5L229,359.5z M229,359.5"/>
	<path d="M354.5,359.5c-0.1-0.6-0.3-1.1-0.5-1.7c-0.2-0.5-0.5-1-0.8-1.5c-0.3-0.5-0.7-0.9-1.1-1.4c-0.4-0.4-0.9-0.8-1.4-1.1
		c-0.5-0.3-1-0.6-1.5-0.8c-0.5-0.2-1.1-0.4-1.7-0.5c-1.1-0.2-2.3-0.2-3.5,0c-0.6,0.1-1.1,0.3-1.7,0.5c-0.5,0.2-1.1,0.5-1.5,0.8
		c-0.5,0.3-0.9,0.7-1.4,1.1c-0.4,0.4-0.8,0.9-1.1,1.4c-0.3,0.5-0.6,1-0.8,1.5c-0.2,0.5-0.4,1.1-0.5,1.7c-0.1,0.6-0.2,1.2-0.2,1.7
		c0,0.6,0.1,1.2,0.2,1.7c0.1,0.6,0.3,1.1,0.5,1.7c0.2,0.5,0.5,1.1,0.8,1.5c0.3,0.5,0.7,0.9,1.1,1.4c0.4,0.4,0.9,0.8,1.4,1.1
		c0.5,0.3,1,0.6,1.5,0.8c0.5,0.2,1.1,0.4,1.7,0.5c0.6,0.1,1.2,0.2,1.7,0.2c0.6,0,1.2-0.1,1.7-0.2c0.6-0.1,1.1-0.3,1.7-0.5
		c0.5-0.2,1.1-0.5,1.5-0.8c0.5-0.3,0.9-0.7,1.4-1.1c0.4-0.4,0.8-0.9,1.1-1.4c0.3-0.5,0.6-1,0.8-1.5c0.2-0.5,0.4-1.1,0.5-1.7
		c0.1-0.6,0.2-1.2,0.2-1.7C354.7,360.7,354.6,360.1,354.5,359.5L354.5,359.5z M354.5,359.5"/>
</g>
</svg>
