<?xml version="1.0" encoding="utf-8"?>
<!-- Generator: Adobe Illustrator 21.1.0, SVG Export Plug-In . SVG Version: 6.00 Build 0)  -->
<svg version="1.1" id="Layer_1" xmlns="http://www.w3.org/2000/svg" xmlns:xlink="http://www.w3.org/1999/xlink" x="0px" y="0px"
	 viewBox="0 0 566.9 566.9" style="enable-background:new 0 0 566.9 566.9;" xml:space="preserve">
<style type="text/css">
	.st0{clip-path:url(#SVGID_2_);}
	.st1{clip-path:url(#SVGID_4_);}
</style>
<g fill="white">
	<g>
		<defs>
			<rect id="SVGID_1_" x="78.2" y="78.7" width="409.9" height="410.9"/>
		</defs>
		<clipPath id="SVGID_2_">
			<use xlink:href="#SVGID_1_"  style="overflow:visible;"/>
		</clipPath>
		<path class="st0" d="M354.9,304.5c15.3-7.1,30.6-12.3,45.6-15.4c4.3-0.9,7.1-5.2,6.2-9.5c-0.9-4.3-5.2-7.1-9.5-6.2
			c-17.3,3.7-35,9.8-52.6,18.3c-9.8-11.7-21.1-24-33.3-36.2c-12.9-12.9-26-24.8-38.4-35.1c10.7-13.6,19.5-28.8,26.1-45.4
			c10.3-25.9,15.6-55.5,15.6-88c0-4.4-3.6-8-8-8s-8,3.6-8,8c0,50.1-12.8,91.5-38.2,123.5c-4.8-3.7-9.4-7-13.9-10
			c-23.7-16-37.8-19.7-45.7-12.1c-0.1,0.1-0.1,0.1-0.2,0.2c0,0,0,0,0,0c0,0,0,0,0,0c-2,2-3.3,4.5-3.7,7.4L78.9,477.5
			c-1.3,3-0.6,6.5,1.7,8.8c1.5,1.5,3.6,2.3,5.7,2.3c1,0,2.1-0.2,3.1-0.6l0,0l281.6-118.1c2.7-0.4,4.9-1.5,6.9-3.3
			c0.1-0.1,0.3-0.2,0.4-0.4c0.1-0.1,0.1-0.1,0.2-0.1c0,0,0,0,0,0c0.1-0.1,0.1-0.1,0.2-0.2c7.6-7.9,3.9-22-12.1-45.7
			C363,315.2,359.1,310,354.9,304.5L354.9,304.5z M141.7,431.6c-1.7,10.4-5.4,17.3-7.2,20.1l-33.3,14l33.9-80.7
			C141.7,401.5,144,417.4,141.7,431.6L141.7,431.6z M190.9,404.6c-3.2,18.4-11.8,27.2-14.2,29.4l-21.1,8.8
			c4.7-16.7,5.9-43.2-12.2-77.9l24-57.2C192.3,354.9,194.1,386.2,190.9,404.6L190.9,404.6z M219.4,416.1l-17.2,7.2
			c1.6-4.1,3.1-8.9,4.1-14.2c6.4-32.7-4.1-73.1-31.1-120.2l8.7-20.6c6.9,8.2,14.7,19.9,17.8,27.3c1.3,3,4.3,4.8,7.4,4.8
			c1.1,0,2.1-0.2,3.2-0.7c4.1-1.7,5.9-6.4,4.2-10.5c-4.7-10.9-16.6-27.9-25.7-37.2l13.2-31.5c2.3,4.2,5.2,8.9,8.6,14
			c2.4,3.5,5,7.2,7.8,10.9c27.4,41.5,26.7,84,21.4,112.4C236.1,387.9,223.9,410,219.4,416.1L219.4,416.1z M281.1,390.2l-38,15.9
			c5.5-12,11.1-27.8,14.4-45.5c3.7-19.7,5.3-45.6-1.5-73.5c3.8,4,7.7,8,11.7,12c12,12,24,23.1,35.6,32.8
			C302.1,369.7,284.8,387,281.1,390.2L281.1,390.2z M308.7,378.7c4.3-8.9,8.1-20.3,9.8-34.5c4.8,3.7,9.5,7.1,14,10.1
			c5.1,3.4,9.8,6.3,14,8.6L308.7,378.7z M336.8,337.8c-17.4-12.3-37.9-30.1-57.8-50C259.1,268,241.4,247.4,229,230
			c-11.9-16.8-15.1-25.4-16-29.1c3.7,0.8,12.3,4.1,29.1,16c2.5,1.8,5.1,3.7,7.7,5.6c-0.6,0.6-1.1,1.2-1.7,1.7
			c-3.1,3.1-3.1,8.2,0,11.3c1.6,1.6,3.6,2.3,5.7,2.3c2,0,4.1-0.8,5.7-2.3c1-1,2-2,3-3.1c12.1,10,25,21.7,37.5,34.3
			c10.8,10.8,21,21.8,30,32.4c-1.4,0.8-2.9,1.6-4.3,2.4c-3.8,2.2-5.1,7.1-2.9,10.9c1.5,2.6,4.2,4,6.9,4c1.4,0,2.7-0.3,4-1.1
			c2.2-1.3,4.4-2.5,6.7-3.7c3.5,4.4,6.7,8.7,9.6,12.8c11.9,16.8,15.1,25.4,16,29.1C362.2,352.9,353.6,349.7,336.8,337.8L336.8,337.8
			z M336.8,337.8"/>
	</g>
	<path d="M222.9,309.8c-1.8-4-6.5-5.8-10.6-4c-3.9,1.8-5.7,6.3-4.2,10.2c1.2,3.2,4.2,5.1,7.5,5.1c0.9,0,1.8-0.1,2.6-0.5
		c4.2-1.5,6.4-6,4.9-10.2C223.1,310.3,223,310.1,222.9,309.8L222.9,309.8z M222.9,309.8"/>
	<g>
		<defs>
			<rect id="SVGID_3_" x="78.2" y="78.7" width="409.9" height="410.9"/>
		</defs>
		<clipPath id="SVGID_4_">
			<use xlink:href="#SVGID_3_"  style="overflow:visible;"/>
		</clipPath>
		<path class="st1" d="M377,202.8c1.6,1.6,3.6,2.3,5.7,2.3c2.1,0,4.1-0.8,5.7-2.3c17.9-17.9,46.8-26.1,68-27.8
			c4.4-0.4,7.7-4.2,7.3-8.6c-0.4-4.4-4.2-7.7-8.6-7.3c-24,1.9-57.1,11.5-78,32.4C373.9,194.6,373.9,199.6,377,202.8L377,202.8z
			 M377,202.8"/>
		<path class="st1" d="M481.9,160.6c-0.2-0.1-0.5-0.1-0.7-0.2c-4.3-1.1-8.6,1.5-9.7,5.8c-1.1,4.3,1.5,8.6,5.8,9.7l0.4,0.1
			c0.7,0.2,1.4,0.3,2.1,0.3c3.5,0,6.8-2.4,7.7-5.9C488.7,166.1,486.2,161.7,481.9,160.6L481.9,160.6z M481.9,160.6"/>
	</g>
	<path d="M137,145.9h8v8c0,4.4,3.6,8,8,8s8-3.6,8-8v-8h8c4.4,0,8-3.6,8-8c0-4.4-3.6-8-8-8h-8v-8c0-4.4-3.6-8-8-8s-8,3.6-8,8v8h-8
		c-4.4,0-8,3.6-8,8S132.6,145.9,137,145.9L137,145.9z M137,145.9"/>
	<path d="M324.2,223.5h8v8c0,4.4,3.6,8,8,8s8-3.6,8-8v-8h8c4.4,0,8-3.6,8-8s-3.6-8-8-8h-8v-8c0-4.4-3.6-8-8-8s-8,3.6-8,8v8h-8
		c-4.4,0-8,3.6-8,8S319.8,223.5,324.2,223.5L324.2,223.5z M324.2,223.5"/>
	<path d="M435.4,413.1h-8v-8c0-4.4-3.6-8-8-8s-8,3.6-8,8v8h-8c-4.4,0-8,3.6-8,8c0,4.4,3.6,8,8,8h8v8c0,4.4,3.6,8,8,8s8-3.6,8-8v-8h8
		c4.4,0,8-3.6,8-8C443.4,416.7,439.9,413.1,435.4,413.1L435.4,413.1z M435.4,413.1"/>
	<path d="M390.2,127c13.2,0,24-10.8,24-24c0-13.2-10.8-24-24-24c-13.2,0-24,10.8-24,24C366.2,116.3,377,127,390.2,127L390.2,127z
		 M390.2,95c4.4,0,8,3.6,8,8c0,4.4-3.6,8-8,8c-4.4,0-8-3.6-8-8C382.2,98.6,385.8,95,390.2,95L390.2,95z M390.2,95"/>
	<path d="M440.2,217.9c-13.2,0-24,10.8-24,24c0,13.2,10.8,24,24,24c13.2,0,24-10.8,24-24C464.2,228.7,453.5,217.9,440.2,217.9
		L440.2,217.9z M440.2,249.9c-4.4,0-8-3.6-8-8c0-4.4,3.6-8,8-8s8,3.6,8,8C448.2,246.3,444.6,249.9,440.2,249.9L440.2,249.9z
		 M440.2,249.9"/>
	<path d="M237,155.5c13.2,0,24-10.8,24-24c0-13.2-10.8-24-24-24c-13.2,0-24,10.8-24,24C213,144.7,223.8,155.5,237,155.5L237,155.5z
		 M237,123.5c4.4,0,8,3.6,8,8c0,4.4-3.6,8-8,8c-4.4,0-8-3.6-8-8C229,127.1,232.6,123.5,237,123.5L237,123.5z M237,123.5"/>
	<path d="M437.6,314.3c0-4.4-3.6-8-8-8c-4.4,0-8,3.6-8,8s3.6,8,8,8C434,322.3,437.6,318.7,437.6,314.3L437.6,314.3z M437.6,314.3"/>
	<path d="M346.4,155.1c4.4,0,8-3.6,8-8c0-4.4-3.6-8-8-8c-4.4,0-8,3.6-8,8C338.4,151.5,342,155.1,346.4,155.1L346.4,155.1z
		 M346.4,155.1"/>
	<path d="M453.6,366.3c-4.4,0-8,3.6-8,8c0,4.4,3.6,8,8,8c4.4,0,8-3.6,8-8C461.6,369.9,458,366.3,453.6,366.3L453.6,366.3z
		 M453.6,366.3"/>
	<path d="M189.6,103c4.4,0,8-3.6,8-8c0-4.4-3.6-8-8-8c-4.4,0-8,3.6-8,8C181.6,99.4,185.2,103,189.6,103L189.6,103z M189.6,103"/>
</g>
</svg>
