<?xml version="1.0" encoding="utf-8"?>
<!-- Generator: Adobe Illustrator 21.1.0, SVG Export Plug-In . SVG Version: 6.00 Build 0)  -->
<svg version="1.1" id="Layer_1" xmlns="http://www.w3.org/2000/svg" xmlns:xlink="http://www.w3.org/1999/xlink" x="0px" y="0px"
	 viewBox="0 0 566.9 566.9" style="enable-background:new 0 0 566.9 566.9;" xml:space="preserve">
<g fill="white">
	<path d="M94.3,478.9c0,4.4-3.6,8.1-8.1,8.1s-8-3.6-8-8.1c0-4.4,3.6-8,8-8S94.3,474.4,94.3,478.9L94.3,478.9z M94.3,478.9"/>
	<path d="M299.9,274.8c0,4.4-3.6,8-8,8c-4.4,0-8-3.6-8-8c0-4.4,3.6-8,8-8C296.3,266.7,299.9,270.3,299.9,274.8L299.9,274.8z
		 M299.9,274.8"/>
	<path d="M397,172.9c-6.5-6.5-15-10-24.2-10c-9.1,0-17.7,3.6-24.2,10c-13.3,13.3-13.3,35,0,48.3c6.7,6.7,15.4,10,24.2,10
		c8.8,0,17.5-3.3,24.2-10C410.3,207.9,410.3,186.3,397,172.9L397,172.9z M385.7,209.9c-7.1,7.1-18.6,7.1-25.6,0
		c-7.1-7.1-7.1-18.6,0-25.6c3.4-3.4,8-5.3,12.8-5.3c4.8,0,9.4,1.9,12.8,5.3C392.7,191.4,392.7,202.9,385.7,209.9L385.7,209.9z
		 M385.7,209.9"/>
	<g>
		<path d="M178.6,407.7c-4-2-8.8-0.4-10.8,3.6l-9.6,19.2c-4.2,8.4-12.5,13.9-21.8,14.6l-11.1,0.8c-1.9,0.1-3.1-0.8-3.7-1.4
			c-0.6-0.6-1.5-1.8-1.4-3.7l0.8-11.1c0.6-9.3,6.2-17.7,14.6-21.8l19.2-9.6c4-2,5.6-6.8,3.6-10.8c-2-4-6.8-5.6-10.8-3.6l-19.2,9.6
			c-13.4,6.7-22.4,20.1-23.4,35.1l-0.8,11.1c-0.4,6,1.8,11.9,6,16.1c3.9,3.9,9.2,6.1,14.7,6.1c0.5,0,0.9,0,1.4-0.1l11.1-0.8
			c15-1,28.4-10,35.1-23.4l9.6-19.2C184.1,414.5,182.5,409.6,178.6,407.7L178.6,407.7z M178.6,407.7"/>
		<path d="M482.3,85c-3.8-3.7-9-5.7-14.2-5.3l-7.5,0.5c-67.1,4.3-129.8,36.6-172.2,88.8l-17.6,21.7l-46.1-1.4c-0.1,0-0.2,0-0.2,0
			c-36.5,0-70.9,14.2-96.7,40.1l-47.2,47.2c-2.2,2.2-3,5.6-1.8,8.6c1.1,3,3.9,5,7.1,5.1l99.9,5.1l-4.1,5c-2.1,2.5-2.4,6-0.8,8.9
			c1.6,2.9,3.2,5.7,4.9,8.5l-23.7,28.1c-2,2.4-2.5,5.8-1.1,8.6c5.2,10.9,12,20.8,20.4,29.2c8.6,8.6,18.6,15.7,29.8,21
			c1.1,0.5,2.3,0.8,3.4,0.8c1.8,0,3.6-0.6,5.1-1.8c5.1-4.1,11-9.1,16.7-13.8c4.1-3.4,8.2-6.8,12.1-10c2.3,1.4,4.7,2.7,7,4
			c1.2,0.7,2.5,1,3.8,1c1.7,0,3.5-0.6,4.9-1.7l5.5-4.2l5.2,100.3c0.2,3.2,2.2,5.9,5.1,7.1c0.9,0.4,1.9,0.5,2.9,0.5
			c2.1,0,4.1-0.8,5.7-2.4l47.2-47.2c25.8-25.8,40.1-60.2,40.1-96.7v-44l18.6-14.4c55.8-43.3,89.8-108.6,93.2-179.1l0.2-3.9
			C488.1,93.9,486.1,88.8,482.3,85L482.3,85z M104.7,275.2l34.4-34.4c22.8-22.8,53-35.3,85.2-35.4l33.7,1L198.3,280L104.7,275.2z
			 M226,377.6c-4.2,3.5-8.5,7.1-12.5,10.4c-7.7-4.2-14.7-9.4-20.8-15.5c-5.9-6-10.9-12.7-15-20.2l17.3-20.6c5.2,7,11,13.7,17.2,19.9
			c0,0,0,0,0,0l0,0c0,0,0,0,0,0c6.9,6.9,14.3,13.3,22.1,19C231.7,372.9,228.8,375.3,226,377.6L226,377.6z M359.7,340.6
			c0,32.2-12.6,62.6-35.4,85.4L290,460.4l-4.8-93.4l74.6-57.9V340.6z M471.6,102.3c-3.2,65.8-34.9,126.8-87,167.2l-126,97.8
			c-10.4-6.1-20.2-13.3-29.1-21.5l42.5-42.5c3.1-3.1,3.1-8.2,0-11.4c-3.1-3.1-8.2-3.1-11.4,0l-42.4,42.4c-7.8-8.6-14.7-18-20.6-28.1
			l103.3-127.2c39.5-48.7,98.1-78.9,160.7-82.9l7.5-0.5c1-0.1,1.6,0.4,1.9,0.7c0.3,0.3,0.8,0.9,0.8,1.9L471.6,102.3z M471.6,102.3"
			/>
	</g>
</g>
</svg>
