<svg xmlns="http://www.w3.org/2000/svg" width="21.151" height="24" viewBox="0 0 21.151 24"><defs><style>.a{fill:none;stroke:#183764;stroke-linecap:round;stroke-linejoin:round;stroke-miterlimit:10;stroke-width:2px;}.b{fill:#183764;}</style></defs><g transform="translate(-1.466)"><path class="a" d="M8.665,5.91C9.382,2.944,10.608,1,12,1c2.209,0,4,4.925,4,11s-1.791,11-4,11c-1.943,0-3.562-3.8-3.924-8.853"/><path class="a" d="M8.661,18.092c-2.876.99-5.176,1.009-5.925-.161-1.191-1.861,1.991-6.024,7.107-9.3s10.23-4.423,11.421-2.562c1.048,1.637-1.288,5.055-5.348,8.084"/><path class="a" d="M11.991,7.368c-4.322-2.277-8.233-2.9-9.255-1.3-1.191,1.861,1.991,6.024,7.107,9.3s10.23,4.423,11.421,2.562c.805-1.258-.4-3.532-2.835-5.909"/><circle class="b" cx="1" cy="1" r="1" transform="translate(11 11)"/></g></svg>