<svg xmlns="http://www.w3.org/2000/svg" width="22" height="24" viewBox="0 0 22 24"><defs><style>.a{fill:#183764;}.b{fill:rgba(0,0,0,0);}.b,.c{stroke:#183764;stroke-linecap:round;stroke-linejoin:round;stroke-miterlimit:10;stroke-width:2px;}.c{fill:none;}</style></defs><g transform="translate(-1)"><path class="a" d="M15.68,2.673,13.137,2.3,12,0,10.863,2.3,8.32,2.673l1.84,1.794L9.726,7,12,5.8,14.274,7,13.84,4.467Z"/><path class="a" d="M7.949,18.524l-2.4-.349L4.475,16,3.4,18.175,1,18.524l1.737,1.693-.41,2.392L4.475,21.48l2.147,1.129-.41-2.392Z"/><path class="a" d="M23,18.524l-2.4-.349L19.525,16l-1.073,2.175-2.4.349,1.737,1.693-.41,2.392,2.147-1.129,2.148,1.129-.41-2.392Z"/><path class="b" d="M17,12s-5,2-5,11c0-9-5-11-5-11"/><line class="c" y2="3" transform="translate(12 9)"/><circle class="a" cx="1.5" cy="1.5" r="1.5" transform="translate(1 8)"/><circle class="a" cx="1.5" cy="1.5" r="1.5" transform="translate(20 8)"/></g></svg>