
<svg width="420px" height="420px" viewBox="0 0 420 420" version="1.1" xmlns="http://www.w3.org/2000/svg" xmlns:xlink="http://www.w3.org/1999/xlink">
    <g id="Page-1" stroke="none" stroke-width="1" fill="none" fill-rule="evenodd">
        <g id="ue" transform="translate(0.132000, 0.304000)" fill="#183764" fill-rule="nonzero">
            <path d="M209.868,0.001 L200.464,19.055 L179.434,22.111 L194.651,36.943 L191.059,57.888 L209.868,48.001 L228.678,57.889 L225.085,36.944 L240.302,22.112 L219.272,19.055 L209.868,0 L209.868,0.001 Z M121.434,26.326 L112.03,45.382 L91,48.438 L106.218,63.27 L102.626,84.216 L121.434,74.326 L140.244,84.216 L136.651,63.27 L151.868,48.438 L130.838,45.382 L121.434,26.327 L121.434,26.326 Z M298.302,26.326 L288.897,45.382 L267.868,48.438 L283.085,63.27 L279.493,84.216 L298.303,74.326 L317.11,84.216 L313.518,63.27 L328.735,48.438 L307.705,45.382 L298.302,26.327 L298.302,26.326 Z M54.434,93.751 L45.03,112.805 L24,115.861 L39.218,130.693 L35.626,151.638 L54.434,141.75 L73.244,151.638 L69.651,130.693 L84.868,115.862 L63.838,112.805 L54.434,93.75 L54.434,93.751 Z M365.302,93.751 L355.897,112.805 L334.867,115.861 L350.084,130.693 L346.492,151.638 L365.302,141.75 L384.109,151.638 L380.517,130.693 L395.734,115.861 L374.704,112.804 L365.301,93.749 L365.302,93.751 Z M30.434,182.246 L21.03,201.3 L0,204.356 L15.218,219.188 L11.626,240.133 L30.434,230.245 L49.244,240.132 L45.651,219.187 L60.868,204.356 L39.838,201.3 L30.434,182.245 L30.434,182.246 Z M389.302,182.246 L379.897,201.3 L358.868,204.356 L374.085,219.188 L370.493,240.133 L389.303,230.245 L408.11,240.132 L404.518,219.187 L419.735,204.355 L398.705,201.299 L389.302,182.244 L389.302,182.246 Z M54.434,272.143 L45.03,291.198 L24,294.255 L39.218,309.085 L35.626,330.031 L54.434,320.141 L73.244,330.031 L69.651,309.086 L84.868,294.256 L63.838,291.198 L54.434,272.143 L54.434,272.143 Z M365.302,272.143 L355.897,291.198 L334.868,294.256 L350.085,309.086 L346.493,330.032 L365.303,320.142 L384.11,330.032 L380.518,309.087 L395.735,294.257 L374.705,291.199 L365.302,272.144 L365.302,272.143 Z M121.434,337.889 L112.03,356.944 L91,360.001 L106.218,374.833 L102.626,395.778 L121.434,385.888 L140.244,395.778 L136.651,374.833 L151.868,360.001 L130.838,356.944 L121.434,337.889 L121.434,337.889 Z M298.302,337.889 L288.897,356.944 L267.867,360.001 L283.084,374.833 L279.492,395.778 L298.302,385.888 L317.109,395.778 L313.517,374.833 L328.734,360.001 L307.704,356.944 L298.301,337.889 L298.302,337.889 Z M209.692,361.503 L200.288,380.559 L179.258,383.614 L194.475,398.448 L190.885,419.391 L191.27,419.188 L191.235,419.391 L209.868,409.594 L228.501,419.391 L228.466,419.188 L228.852,419.391 L225.262,398.448 L240.477,383.614 L219.447,380.559 L210.043,361.503 L209.867,361.858 L209.691,361.503 L209.692,361.503 Z" id="Shape"></path>
        </g>
    </g>
</svg>