<?xml version="1.0" encoding="UTF-8"?>
<svg width="37px" height="32px" viewBox="0 0 37 32" version="1.1" xmlns="http://www.w3.org/2000/svg" xmlns:xlink="http://www.w3.org/1999/xlink">
    <title>unicef</title>
    <g id="Page-1" stroke="none" stroke-width="1" fill="none" fill-rule="evenodd">
        <g id="unicef" fill="#183764" fill-rule="nonzero">
            <path d="M18.7,0 C11.9,0 6.3,5.5 6.3,12.4 C6.3,19.2 11.8,24.8 18.7,24.8 C25.5,24.8 31.1,19.3 31.1,12.4 C31.1,5.5 25.5,0 18.7,0 M28.3,5.5 C27.7,5.9 27,6.3 26.3,6.7 C25.9,5.9 25.4,5.1 24.8,4.4 C25.3,4.1 25.8,3.7 26.2,3.4 C27.1,3.9 27.8,4.7 28.3,5.5 M23.1,1.4 C24.1,1.8 25,2.3 25.9,3 C25.5,3.4 25,3.7 24.5,4 C23.9,3.3 23.2,2.7 22.5,2.1 C22.7,1.8 22.9,1.6 23.1,1.4 M24.1,4.2 C23.4,4.6 22.7,4.8 22,5.1 C21.7,4.4 21.4,3.7 21,3.1 C21.4,2.9 21.8,2.7 22.1,2.4 C22.8,2.9 23.5,3.5 24.1,4.2 M22.6,1.2 C22.4,1.4 22.2,1.6 22.1,1.8 C21.4,1.4 20.8,1 20,0.7 C20.9,0.7 21.8,0.9 22.6,1.2 M21.7,2.1 C21.4,2.3 21.1,2.5 20.8,2.6 C20.4,2 20,1.5 19.6,0.9 C20.3,1.2 21,1.6 21.7,2.1 M18.9,1 C19.4,1.5 19.8,2.1 20.2,2.8 C19.8,2.9 19.4,3 18.9,3 L18.9,1 Z M18.9,3.5 C19.4,3.5 20,3.4 20.5,3.2 C20.9,3.8 21.2,4.5 21.5,5.2 C20.7,5.4 19.8,5.5 18.9,5.6 L18.9,3.5 Z M18.4,1 L18.4,3 C18,3 17.6,2.9 17.1,2.8 C17.6,2.2 18,1.6 18.4,1 M16.7,2.6 C16.4,2.5 16,2.3 15.8,2.1 C16.5,1.7 17.2,1.3 17.9,1 C17.4,1.5 17,2 16.7,2.6 M17.4,0.6 C16.7,0.9 16,1.3 15.3,1.7 C15.1,1.5 14.9,1.3 14.8,1.1 C15.6,0.9 16.5,0.7 17.4,0.6 M25.9,21.8 C24.3,20.9 24.2,19.6 24.3,19.2 C24.4,18.7 24.7,18.9 24.9,18.9 C26,18.9 27.1,18.6 28.5,17.1 C30.1,15.5 30.6,11.9 28.1,9.6 C25.5,7.1 22.7,7.5 20.9,9.8 C20.5,10.3 19.6,10.6 18.9,10.6 C17.7,10.6 18.5,11.5 18.5,11.7 C18.5,11.9 18.3,12 18.2,12 C17.8,11.9 18,12.5 18,12.6 C18,12.7 17.8,12.9 17.8,12.9 C17.3,12.9 17.4,13.3 17.5,13.5 C17.5,13.6 17.5,13.8 17.3,13.9 C17.1,14 17,14.4 17,14.7 C17,15.2 17.5,15.6 18.3,16.2 C19.1,16.8 19.2,17.4 19.2,17.8 C19.2,18.2 19.3,18.9 19.4,19.3 C19.6,19.8 19.6,20.8 18.5,20.8 C17.1,20.9 14.7,21.9 14.5,22 C13.7,22.3 12.7,22.4 11.9,22.2 C11.5,21.9 11.1,21.6 10.7,21.2 C10.5,20.7 10.8,20.1 11.1,19.7 C11.6,20.2 12.2,20.1 12.6,20.1 C13,20.1 14.8,19.8 15.1,19.7 C15.4,19.6 15.5,19.6 15.6,19.7 C16.3,20 17.3,20 17.7,18.7 C18.1,17.3 17.2,17.7 17,17.8 C16.9,17.9 16.7,17.8 16.8,17.7 C17,17.4 16.7,17.4 16.6,17.4 C16.2,17.4 15.7,17.8 15.6,17.9 C15.4,18 15.3,18 15.2,18 C14.7,17.7 13.2,18.1 12.7,17.3 C12.7,17.1 12.3,13.8 12.1,13.2 C12.1,13.1 12,12.9 12.2,12.7 C12.6,12.1 13.6,12.7 14.2,12.7 C14.9,12.7 15,12.4 15.2,12.2 C15.4,12 15.5,12.1 15.6,12 C15.7,11.9 15.6,11.8 15.6,11.7 C15.6,11.6 15.7,11.7 15.8,11.6 C15.9,11.5 15.8,11.3 15.8,11.2 C16,10.9 16.4,11.1 16.2,10.5 C16.1,10.1 16.3,9.7 16.5,9.5 C16.8,9.1 18.1,7.3 15.9,5.4 C13.8,3.6 11.6,3.8 10.2,5.3 C8.8,6.8 9.5,9 9.6,9.6 C9.7,10.2 9.3,10.7 8.8,10.9 C8.4,11.1 7.5,11.7 6.9,12.2 C7,7.4 9.9,3.2 14.3,1.5 C14.5,1.7 14.7,2 14.9,2.2 C14.4,2.6 13.3,3.5 13.3,3.5 C13.3,3.5 13.4,3.5 13.6,3.6 C13.7,3.6 13.9,3.7 13.9,3.7 C13.9,3.7 14.8,2.9 15.3,2.6 C15.6,2.9 16,3.1 16.4,3.3 C16.2,3.7 15.6,4.7 15.6,4.7 C15.6,4.7 15.7,4.8 15.8,4.8 C15.9,4.9 16,4.9 16,4.9 C16,4.9 16.6,3.8 16.8,3.4 C17.3,3.6 17.8,3.7 18.3,3.7 L18.3,5.7 C18,5.7 17.3,5.7 17,5.6 L16.8,5.6 L16.9,5.8 C17,5.9 17,6 17.1,6.1 L17.1,6.1 L17.1,6.1 C17.3,6.1 18,6.1 18.3,6.1 L18.3,9.8 L18.8,9.8 L18.8,8.9 C19.6,8.9 20.2,8.8 20.9,8.7 L20.9,8.7 L21.6,8.1 L21.2,8.1 C20.4,8.2 19.7,8.3 19.1,8.3 C19.1,8.3 18.9,8.3 18.8,8.3 L18.8,6 C19.7,6 20.7,5.9 21.6,5.6 C21.8,6.2 22.3,7.7 22.3,7.7 L22.8,7.5 C22.8,7.5 22.3,6 22.1,5.4 C22.9,5.2 23.6,4.8 24.3,4.5 C24.9,5.2 25.4,6 25.8,6.8 C25.4,7 24.8,7.2 24.8,7.2 C25.3,7.3 25.7,7.4 25.7,7.4 C25.7,7.4 25.9,7.3 26,7.3 C26,7.4 26.1,7.6 26.1,7.6 L26.8,7.9 L26.7,7.7 C26.7,7.7 26.5,7.2 26.4,7.1 C27.1,6.8 27.8,6.4 28.5,5.9 C29.8,7.8 30.4,10.1 30.4,12.4 C30.6,16.2 28.7,19.6 25.9,21.8" id="Shape"></path>
            <path d="M5.2,3.3 L5,3.5 C4.3,4.1 2.6,5.8 2.9,7.7 C2.9,7.7 2.9,7.8 2.9,7.8 C2.9,7.8 3,8.2 3,8.2 L3.2,8 C4.2,7.1 5,5.5 5.3,3.7 L5.4,3.2 L5.2,3.3 Z" id="Path"></path>
            <path d="M1.8,6.5 L1.7,6.7 C1.6,7 1.4,7.7 1.3,8.5 C1.1,9.7 1.2,11.5 2.2,12.8 C2.2,12.8 2.3,13 2.3,13 L2.4,13.2 L2.6,12.4 C2.8,11 2.5,8.1 2,6.8 L1.8,6.4 L1.8,6.5 Z" id="Path"></path>
            <path d="M0.6,11.5 L0.6,11.7 C0.5,12.9 0.6,16 3.1,17.7 C3.1,17.7 3.4,17.9 3.4,17.9 L3.4,17.5 C3.4,16.3 2,12.8 1,11.6 L0.7,11.2 L0.6,11.5 Z" id="Path"></path>
            <path d="M1,17 L1,17.2 C1.4,19 3,21.8 5.6,22.7 L6,22.8 L5.9,22.4 C5.4,21.1 2.9,18 1.3,17 L1,16.8 L1,17 Z" id="Path"></path>
            <path d="M6.3,6 L6,6.1 C4.1,7.3 3.2,8.7 3.2,10.5 L3.2,10.9 L3.5,10.7 C4.5,9.8 5.9,7.6 6.2,6.4 L6.3,5.9 L6.3,6 Z" id="Path"></path>
            <path d="M5.1,9.8 L5,10 C4.5,10.5 2.9,12.2 3,14.3 C3,14.6 3.1,15 3.2,15.3 L3.3,15.6 L3.5,15.3 C4.3,14.2 5.3,11.4 5.2,10.1 L5.2,9.7 L5.1,9.8 Z" id="Path"></path>
            <path d="M5.2,13.5 L5.1,13.7 C4.3,14.9 3.9,16.1 3.9,17.3 C3.9,18.1 4.2,18.9 4.7,19.7 L4.9,20 L5,19.7 C5.3,19 5.6,16.9 5.6,15.2 C5.6,14.6 5.5,14.1 5.4,13.8 L5.3,13.4 L5.2,13.5 Z" id="Path"></path>
            <path d="M6.1,17.4 L6,17.6 C5.8,18.4 5.6,19.1 5.7,19.9 C5.7,21.5 6.5,22.8 7.9,23.7 L8.1,23.8 L8.2,23.5 C8.2,23.5 8.2,23.2 8.2,23.2 C8.2,21.9 7.2,18.5 6.4,17.5 L6.2,17.2 L6.1,17.4 Z" id="Path"></path>
            <path d="M3.4,22.6 L3.5,22.8 C4.5,24.5 6.3,26.8 9.6,26.2 L9.9,26.2 L9.7,26 C9.1,25.1 5.1,22.8 3.7,22.6 L3.3,22.5 L3.4,22.6 Z" id="Path"></path>
            <path d="M8.3,27 L8.3,27 L7.8,27.1 L8.3,27.3 C10.4,28.2 13,28.4 14.6,27.9 C15.2,27.7 15.5,27.4 15.9,27 C18.6,27.3 21.1,29.5 22.6,31.3 C22.6,31.3 22.7,31.4 22.7,31.4 L22.8,31.4 C23,31.3 23.2,31.1 23.3,31 L23.4,30.9 L23.3,30.8 C21.8,28.8 19.4,27.6 19.3,27.5 C17.1,26.5 13.3,25.7 8.3,27" id="Path"></path>
            <path d="M8.4,21.4 L8.4,21.6 C8.7,23.6 9.5,26.2 12.9,25.9 L13.1,25.9 L13,25.7 C12.8,24.8 9.7,22.2 8.6,21.5 L8.3,21.3 L8.4,21.4 Z" id="Path"></path>
            <path d="M32,3.1 L32.1,3.6 C32.4,5.4 33.2,7 34.2,7.9 L34.4,8.1 C34.4,8.1 34.5,7.7 34.5,7.7 C34.5,7.7 34.5,7.6 34.5,7.6 C34.8,5.7 33.1,4 32.4,3.4 L32.2,3.2 L32,3.1 Z" id="Path"></path>
            <path d="M35.5,6.3 L35.3,6.7 C34.8,8 34.6,10.9 34.7,12.3 L34.9,13.1 L35,13 C35,13 35.1,12.8 35.1,12.8 C36.2,11.5 36.2,9.8 36,8.5 C35.9,7.6 35.7,7 35.6,6.7 L35.5,6.5 L35.5,6.3 Z" id="Path"></path>
            <path d="M36.8,11.3 L36.5,11.7 C35.5,13 34.1,16.4 34.1,17.6 L34.1,18 C34.1,18 34.4,17.8 34.4,17.8 C36.9,16.2 37,13.1 36.9,11.8 L36.9,11.6 L36.8,11.3 Z" id="Path"></path>
            <path d="M36.4,16.8 L36,17 C34.4,18 31.9,21.1 31.4,22.4 L31.3,22.8 L31.7,22.7 C34.3,21.9 36,19 36.3,17.2 L36.3,17 L36.4,16.8 Z" id="Path"></path>
            <path d="M31.1,5.8 L31.2,6.3 C31.6,7.6 32.8,9.8 33.9,10.7 L34.2,10.9 L34.2,10.5 C34.3,8.7 33.4,7.3 31.5,6.1 L31.3,6 L31.1,5.8 Z" id="Path"></path>
            <path d="M32.2,9.7 L32.2,10.1 C32.1,11.4 33.2,14.3 33.9,15.3 L34.1,15.6 L34.2,15.3 C34.3,14.9 34.4,14.6 34.4,14.3 C34.5,12.2 32.9,10.5 32.4,10 L32.3,9.9 L32.2,9.7 Z" id="Path"></path>
            <path d="M32.1,13.3 L32,13.7 C31.9,14 31.8,14.5 31.8,15.1 C31.8,16.8 32,18.9 32.4,19.6 L32.5,19.9 L32.7,19.6 C33.2,18.9 33.5,18.1 33.5,17.2 C33.5,16.1 33.1,14.8 32.3,13.6 L32.2,13.4 L32.1,13.3 Z" id="Path"></path>
            <path d="M31.2,17.2 L31,17.5 C30.2,18.5 29.2,21.9 29.2,23.2 C29.2,23.2 29.2,23.4 29.2,23.5 L29.3,23.8 C29.3,23.8 29.5,23.7 29.5,23.7 C30.9,22.8 31.6,21.5 31.7,19.9 C31.7,19.2 31.6,18.4 31.4,17.6 L31.3,17.4 L31.2,17.2 Z" id="Path"></path>
            <path d="M34.1,22.4 C34.1,22.4 33.7,22.5 33.7,22.5 C32.3,22.7 28.3,25 27.7,25.9 L27.5,26.1 L27.8,26.1 C31.1,26.7 32.9,24.4 33.9,22.7 L34,22.5 L34.1,22.4 Z" id="Path"></path>
            <path d="M18.2,27.5 C18.1,27.5 15.7,28.8 14.2,30.8 L14.1,30.9 L14.2,31 C14.3,31.1 14.6,31.3 14.7,31.4 L14.8,31.4 C14.8,31.4 14.9,31.3 14.9,31.3 C16.4,29.5 18.9,27.2 21.6,27 C22,27.4 22.4,27.7 22.9,27.9 C24.4,28.4 27.1,28.2 29.2,27.3 L29.7,27.1 L29.2,27 C24.1,25.7 20.3,26.5 18.2,27.5" id="Path"></path>
            <path d="M29,21.2 L28.7,21.4 C27.6,22.1 24.6,24.7 24.3,25.6 L24.2,25.8 L24.4,25.8 C27.7,26.1 28.5,23.5 28.9,21.5 L28.9,21.3 L29,21.2 Z" id="Path"></path>
        </g>
    </g>
</svg>