<svg id="Capa_1" enable-background="new 0 0 512 512" height="512" viewBox="0 0 512 512" width="512" xmlns="http://www.w3.org/2000/svg"><g><g><path fill="#183764" d="m507.606 82.175-77.781-77.782c-5.858-5.858-15.355-5.858-21.213 0s-5.858 15.355 0 21.213l7.071 7.071-63.64 63.64-31.82-31.82c-5.858-5.858-15.355-5.858-21.213 0s-5.858 15.355 0 21.213l3.536 3.536-190.087 190.087c-16.35 16.35-17.457 42.251-3.334 59.903l-32.021 32.021c-5.858 5.858-5.858 15.355 0 21.213l10.607 10.607-83.318 83.316c-5.858 5.858-5.858 15.355 0 21.213s15.355 5.858 21.213 0l83.317-83.317 10.607 10.607c5.858 5.858 15.355 5.858 21.213 0l32.021-32.021c17.652 14.122 43.553 13.016 59.903-3.334l190.086-190.086 3.536 3.536c5.858 5.858 15.355 5.858 21.213 0s5.858-15.355 0-21.213l-31.82-31.82 63.64-63.64 7.071 7.071c5.858 5.858 15.355 5.858 21.213 0 5.858-5.858 5.858-15.356 0-21.214zm-215.251 59.688 31.403-31.403 28.284 28.284-31.403 31.403zm-162.218 261.213-21.213-21.213 21.213-21.213 21.213 21.213zm81.317-24.748c-5.849 5.849-15.365 5.849-21.213 0l-56.568-56.569c-5.849-5.849-5.849-15.364 0-21.213l10.19-10.19 10.607 10.607c5.858 5.858 15.355 5.858 21.213 0s5.858-15.355 0-21.213l-10.607-10.607 21.213-21.213 10.607 10.607c5.858 5.858 15.355 5.858 21.213 0s5.858-15.355 0-21.213l-10.606-10.607 21.213-21.213 10.607 10.607c5.858 5.858 15.355 5.858 21.213 0s5.858-15.355 0-21.213l-10.607-10.607 21.213-21.213 77.782 77.782zm158.683-158.683-28.284-28.284 31.403-31.403 28.284 28.284zm24.332-80.901-21.213-21.213 63.64-63.64 21.213 21.213z"/></g><g><path fill="#183764" d="m482 369.473v-7.473h5c8.284 0 15-6.716 15-15v-30c0-19.299-15.701-35-35-35h-60c-19.299 0-35 15.701-35 35v30c0 8.284 6.716 15 15 15h5v7.473c-18.921 15.561-30 38.771-30 63.583v43.944c0 19.299 15.701 35 35 35h80c19.299 0 35-15.701 35-35v-43.944c0-24.812-11.079-48.023-30-63.583zm-80-52.473c0-2.757 2.243-5 5-5h60c2.757 0 5 2.243 5 5v15h-70zm80 160c0 2.757-2.243 5-5 5h-80c-2.757 0-5-2.243-5-5v-43.944c0-17.55 8.718-33.84 23.32-43.575 4.173-2.782 6.68-7.465 6.68-12.48v-15h30v15c0 5.016 2.507 9.698 6.68 12.48 14.603 9.735 23.32 26.025 23.32 43.575z"/></g></g></svg>