<svg xmlns="http://www.w3.org/2000/svg" width="24" height="24" viewBox="0 0 24 24"><defs><style>.a,.b{fill:none;stroke:#183764;stroke-miterlimit:10;stroke-width:2px;}.b{stroke-linecap:square;}</style></defs><path class="a" d="M5.7,2.979A6.649,6.649,0,0,1,7.471,5c.446.747,1.437,2.827.529,4-1.027,1.328-4,1.776-4,3,0,.921,1.3,1.972,2,3a3.566,3.566,0,0,1,0,4,3.737,3.737,0,0,1-1.293,1.234"/><path class="a" d="M20.668,5.227A23.87,23.87,0,0,1,15,7c-1.045.075-1.2-.784-2-2-.6-.912-2-2.053-2-3a3.044,3.044,0,0,1,.131-.966"/><circle class="b" cx="11" cy="11" r="11" transform="translate(1 1)"/><path class="a" d="M19.014,12.9c.042,3.084-3.972,6.93-6.014,6.1-1.79-.73-.527-2.138-.986-6.1-.191-1.646,1.567-3,3.5-3A3.294,3.294,0,0,1,19.014,12.9Z"/></svg>