<?xml version="1.0" encoding="utf-8"?>
<!-- Generator: Adobe Illustrator 21.1.0, SVG Export Plug-In . SVG Version: 6.00 Build 0)  -->
<svg version="1.1" id="Layer_1" xmlns="http://www.w3.org/2000/svg" xmlns:xlink="http://www.w3.org/1999/xlink" x="0px" y="0px"
	 viewBox="0 0 500 500" style="enable-background:new 0 0 500 500;" xml:space="preserve">
<style type="text/css">
	.st0{fill:#0A264F;}
	.st1{fill:#F2F2F2;}
	.st2{fill:none;stroke:#CCCCCC;stroke-miterlimit:10;}
	.st3{fill:#4D4D4D;}
	.st4{fill:#B3B3B3;}
	.st5{fill:#666666;}
	.st6{fill:#808080;}
	.st7{fill:#999999;}
	.st8{fill:none;stroke:#FFFFFF;stroke-width:8;stroke-miterlimit:10;}
	.st9{fill:none;stroke:#B3B3B3;stroke-width:6;stroke-miterlimit:10;}
	.st10{fill:#E6E6E6;stroke:#B3B3B3;stroke-width:5;stroke-miterlimit:10;}
	.st11{clip-path:url(#SVGID_2_);}
	.st12{fill:#EF420C;}
	.st13{fill:#FFFFFF;}
</style>
<rect x="-1214.2" y="663.1" class="st0" width="509" height="509"/>
<rect x="-2475.2" y="540.5" class="st1" width="1078" height="227"/>
<circle class="st2" cx="-2361.2" cy="430.5" r="83"/>
<circle class="st2" cx="-2130.2" cy="430.5" r="83"/>
<circle class="st2" cx="-1904.2" cy="430.5" r="83"/>
<text transform="matrix(1 0 0 1 -2633.8755 190.1421)" class="st3" style="font-family:'SegoeUI-Bold'; font-size:72.3822px;">5</text>
<path class="st3" d="M-2612.2,88.2c35,0,64.8,22.8,75.3,54.4l7.8-2.5c-11.5-34.9-44.4-60.1-83.1-60.1c-0.1,0-0.3,0-0.4,0v8.2
	C-2612.5,88.2-2612.4,88.2-2612.2,88.2z"/>
<path class="st4" d="M-2612.6,88.2V80c-38.9,0.2-71.7,25.7-82.9,60.8l7.8,2.5C-2677.6,111.5-2647.8,88.4-2612.6,88.2z"/>
<path class="st5" d="M-2537,142.6c2.6,7.8,4,16.2,4,24.9c0,26.2-12.8,49.4-32.4,63.9l4.8,6.7c21.7-15.9,35.7-41.6,35.7-70.5
	c0-9.6-1.5-18.8-4.4-27.4L-2537,142.6z"/>
<path class="st6" d="M-2612.2,246.8c-17.2,0-33.2-5.5-46.3-14.9l-4.8,6.7c14.4,10.4,32,16.5,51.1,16.5c19.4,0,37.3-6.3,51.8-17
	l-4.8-6.7C-2578.5,241.1-2594.7,246.8-2612.2,246.8z"/>
<path class="st7" d="M-2691.5,167.5c0-8.4,1.3-16.5,3.8-24.1l-7.8-2.5c-2.7,8.4-4.1,17.4-4.1,26.7c0,29.2,14.4,55.1,36.4,71l4.8-6.7
	C-2678.5,217.4-2691.5,194-2691.5,167.5z"/>
<text transform="matrix(1 0 0 1 -2378.3589 190.1421)" class="st5" style="font-family:'SegoeUI-Bold'; font-size:72.3822px;">4</text>
<path class="st4" d="M-2357.1,88.2V80c-38.9,0.2-71.7,25.7-82.9,60.8l7.8,2.5C-2422.1,111.5-2392.3,88.4-2357.1,88.2z"/>
<path class="st5" d="M-2281.4,142.6c2.6,7.8,4,16.2,4,24.9c0,26.2-12.8,49.4-32.4,63.9l4.8,6.7c21.7-15.9,35.7-41.6,35.7-70.5
	c0-9.6-1.5-18.8-4.4-27.4L-2281.4,142.6z"/>
<path class="st6" d="M-2356.7,246.8c-17.2,0-33.2-5.5-46.3-14.9l-4.8,6.7c14.4,10.4,32,16.5,51.1,16.5c19.4,0,37.3-6.3,51.8-17
	l-4.8-6.7C-2323,241.1-2339.2,246.8-2356.7,246.8z"/>
<path class="st7" d="M-2436,167.5c0-8.4,1.3-16.5,3.8-24.1l-7.8-2.5c-2.7,8.4-4.1,17.4-4.1,26.7c0,29.2,14.4,55.1,36.4,71l4.8-6.7
	C-2423,217.4-2436,194-2436,167.5z"/>
<text transform="matrix(1 0 0 1 -2155.7065 190.1421)" class="st6" style="font-family:'SegoeUI-Bold'; font-size:72.3822px;">3</text>
<path class="st4" d="M-2134.5,88.2V80c-38.9,0.2-71.7,25.7-82.9,60.8l7.8,2.5C-2199.4,111.5-2169.6,88.4-2134.5,88.2z"/>
<path class="st6" d="M-2134.1,246.8c-17.2,0-33.2-5.5-46.3-14.9l-4.8,6.7c14.4,10.4,32,16.5,51.1,16.5c19.4,0,37.3-6.3,51.8-17
	l-4.8-6.7C-2100.3,241.1-2116.5,246.8-2134.1,246.8z"/>
<path class="st7" d="M-2213.4,167.5c0-8.4,1.3-16.5,3.8-24.1l-7.8-2.5c-2.7,8.4-4.1,17.4-4.1,26.7c0,29.2,14.4,55.1,36.4,71l4.8-6.7
	C-2200.3,217.4-2213.4,194-2213.4,167.5z"/>
<text transform="matrix(1 0 0 1 -1923.1945 190.1421)" class="st7" style="font-family:'SegoeUI-Bold'; font-size:72.3822px;">2</text>
<path class="st4" d="M-1902,88.2V80c-38.9,0.2-71.7,25.7-82.9,60.8l7.8,2.5C-1966.9,111.5-1937.1,88.4-1902,88.2z"/>
<path class="st7" d="M-1980.8,167.5c0-8.4,1.3-16.5,3.8-24.1l-7.8-2.5c-2.7,8.4-4.1,17.4-4.1,26.7c0,29.2,14.4,55.1,36.4,71l4.8-6.7
	C-1967.8,217.4-1980.8,194-1980.8,167.5z"/>
<text transform="matrix(1 0 0 1 -1700.5421 190.1421)" class="st4" style="font-family:'SegoeUI-Bold'; font-size:72.3822px;">1</text>
<path class="st4" d="M-1679.3,88.2V80c-38.9,0.2-71.7,25.7-82.9,60.8l7.8,2.5C-1744.2,111.5-1714.5,88.4-1679.3,88.2z"/>
<text transform="matrix(1 0 0 1 -2633.8755 453.1421)" style="fill:#CCCCCC; font-family:'SegoeUI-Bold'; font-size:72.3822px;">5</text>
<g>
	<circle class="st2" cx="-1664.2" cy="430.5" r="83"/>
	<text transform="matrix(1 0 0 1 -1685.9646 453.1421)" class="st5" style="font-family:'SegoeUI-Bold'; font-size:72.3822px;">1</text>
	<path class="st4" d="M-1664.7,351.2V343c-38.9,0.2-71.7,25.7-82.9,60.8l7.8,2.5C-1729.7,374.5-1699.9,351.4-1664.7,351.2z"/>
	<path class="st5" d="M-1589,405.6c2.6,7.8,4,16.2,4,24.9c0,26.2-12.8,49.4-32.4,63.9l4.8,6.7c21.7-15.9,35.7-41.6,35.7-70.5
		c0-9.6-1.5-18.8-4.4-27.4L-1589,405.6z"/>
	<path class="st6" d="M-1664.3,509.8c-17.2,0-33.2-5.5-46.3-14.9l-4.8,6.7c14.4,10.4,32,16.5,51.1,16.5c19.4,0,37.3-6.3,51.8-17
		l-4.8-6.7C-1630.6,504.1-1646.8,509.8-1664.3,509.8z"/>
	<path class="st7" d="M-1743.6,430.5c0-8.4,1.3-16.5,3.8-24.1l-7.8-2.5c-2.7,8.4-4.1,17.4-4.1,26.7c0,29.2,14.4,55.1,36.4,71
		l4.8-6.7C-1730.6,480.4-1743.6,457-1743.6,430.5z"/>
</g>
<circle class="st8" cx="-1793.2" cy="655.5" r="83"/>
<path class="st7" d="M-1793.7,576.2V568c-38.9,0.2-71.7,25.7-82.9,60.8l7.8,2.5C-1858.7,599.5-1828.9,576.4-1793.7,576.2z"/>
<path class="st7" d="M-1718,630.6c2.6,7.8,4,16.2,4,24.9c0,26.2-12.8,49.4-32.4,63.9l4.8,6.7c21.7-15.9,35.7-41.6,35.7-70.5
	c0-9.6-1.5-18.8-4.4-27.4L-1718,630.6z"/>
<path class="st7" d="M-1793.3,734.8c-17.2,0-33.2-5.5-46.3-14.9l-4.8,6.7c14.4,10.4,32,16.5,51.1,16.5c19.4,0,37.3-6.3,51.8-17
	l-4.8-6.7C-1759.6,729.1-1775.8,734.8-1793.3,734.8z"/>
<path class="st7" d="M-1872.6,655.5c0-8.4,1.3-16.5,3.8-24.1l-7.8-2.5c-2.7,8.4-4.1,17.4-4.1,26.7c0,29.2,14.4,55.1,36.4,71l4.8-6.7
	C-1859.6,705.4-1872.6,682-1872.6,655.5z"/>
<text transform="matrix(1 0 0 1 -1924.9648 453.1421)" class="st6" style="font-family:'SegoeUI-Bold'; font-size:72.3822px;">2</text>
<path class="st4" d="M-1903.7,351.2V343c-38.9,0.2-71.7,25.7-82.9,60.8l7.8,2.5C-1968.7,374.5-1938.9,351.4-1903.7,351.2z"/>
<path class="st6" d="M-1903.3,509.8c-17.2,0-33.2-5.5-46.3-14.9l-4.8,6.7c14.4,10.4,32,16.5,51.1,16.5c19.4,0,37.3-6.3,51.8-17
	l-4.8-6.7C-1869.6,504.1-1885.8,509.8-1903.3,509.8z"/>
<path class="st7" d="M-1982.6,430.5c0-8.4,1.3-16.5,3.8-24.1l-7.8-2.5c-2.7,8.4-4.1,17.4-4.1,26.7c0,29.2,14.4,55.1,36.4,71l4.8-6.7
	C-1969.6,480.4-1982.6,457-1982.6,430.5z"/>
<text transform="matrix(1 0 0 1 -2151.1943 453.1421)" class="st7" style="font-family:'SegoeUI-Bold'; font-size:72.3822px;">3</text>
<path class="st4" d="M-2130,351.2V343c-38.9,0.2-71.7,25.7-82.9,60.8l7.8,2.5C-2194.9,374.5-2165.1,351.4-2130,351.2z"/>
<path class="st7" d="M-2208.8,430.5c0-8.4,1.3-16.5,3.8-24.1l-7.8-2.5c-2.7,8.4-4.1,17.4-4.1,26.7c0,29.2,14.4,55.1,36.4,71l4.8-6.7
	C-2195.8,480.4-2208.8,457-2208.8,430.5z"/>
<circle class="st8" cx="-2303.2" cy="655.5" r="83"/>
<text transform="matrix(1 0 0 1 -2359.1943 678.1421)"><tspan x="0" y="0" class="st7" style="font-family:'SegoeUI-Bold'; font-size:72.3822px;">30</tspan><tspan x="83.3" y="0" class="st7" style="font-family:'SegoeUI-Bold'; font-size:42px;">%</tspan></text>
<text transform="matrix(1 0 0 1 -2105.1943 678.1421)"><tspan x="0" y="0" class="st7" style="font-family:'SegoeUI-Bold'; font-size:72.3822px;">20</tspan><tspan x="83.3" y="0" class="st7" style="font-family:'SegoeUI-Bold'; font-size:42px;">%</tspan></text>
<text transform="matrix(1 0 0 1 -1851.1945 678.1421)"><tspan x="0" y="0" class="st7" style="font-family:'SegoeUI-Bold'; font-size:72.3822px;">70</tspan><tspan x="83.3" y="0" class="st7" style="font-family:'SegoeUI-Bold'; font-size:42px;">%</tspan></text>
<text transform="matrix(1 0 0 1 -1577.1945 678.1421)"><tspan x="0" y="0" class="st7" style="font-family:'SegoeUI-Bold'; font-size:72.3822px;">0</tspan><tspan x="41.6" y="0" class="st7" style="font-family:'SegoeUI-Bold'; font-size:42px;">%</tspan></text>
<path class="st7" d="M-2303,576.2V568c-38.9,0.2-71.7,25.7-82.9,60.8l7.8,2.5C-2367.9,599.5-2338.1,576.4-2303,576.2z"/>
<path class="st7" d="M-2381.8,655.5c0-8.4,1.3-16.5,3.8-24.1l-7.8-2.5c-2.7,8.4-4.1,17.4-4.1,26.7c0,29.2,14.4,55.1,36.4,71l4.8-6.7
	C-2368.8,705.4-2381.8,682-2381.8,655.5z"/>
<text transform="matrix(1 0 0 1 -2382.9646 453.1421)" class="st4" style="font-family:'SegoeUI-Bold'; font-size:72.3822px;">4</text>
<path class="st4" d="M-2361.7,351.2V343c-38.9,0.2-71.7,25.7-82.9,60.8l7.8,2.5C-2426.7,374.5-2396.9,351.4-2361.7,351.2z"/>
<circle class="st8" cx="-2047.2" cy="655.5" r="83"/>
<path class="st7" d="M-2047.7,576.2V568c-38.9,0.2-71.7,25.7-82.9,60.8l7.8,2.5C-2112.7,599.5-2082.9,576.4-2047.7,576.2z"/>
<circle class="st2" cx="-2612.2" cy="430.5" r="83"/>
<circle class="st8" cx="-1539.2" cy="655.5" r="83"/>
<path class="st9" d="M-2538.7,657c0,42.5-77,77-77,77l0,0l0,0c0,0-77-34.5-77-77v-25V530h77h77v102V657z"/>
<path class="st4" d="M-2538.7,617.7V657c0,42.5-77,77-77,77l0,0l0,0c0,0-77-34.5-77-77v-39.2"/>
<text transform="matrix(1 0 0 1 -2675.7373 646.9238)"><tspan x="0" y="0" style="fill:#606060; font-family:'SegoeUI-Bold'; font-size:71.1625px;">50</tspan><tspan x="81.9" y="0" style="fill:#606060; font-family:'SegoeUI-Bold'; font-size:46.1201px;">%</tspan></text>
<path class="st10" d="M-2430.8,875.5c-47.5,0-83.9-13.6-114.7-43.5c-30.8,29.9-67.2,43.5-114.7,43.5c0,77.9-16.1,189.6,114.7,234.9
	C-2414.7,1065-2430.8,953.4-2430.8,875.5z"/>
<g>
	<path class="st4" d="M-2650.4,1010c13.1,41.4,42,78.6,104.9,100.4c62.9-21.8,91.9-59,104.9-100.4H-2650.4z"/>
</g>
<g>
	<path d="M-2228.7,1074.1c-10.9,0-19.9,8.9-19.9,19.9c0,11,8.9,19.9,19.9,19.9c11,0,19.9-8.9,19.9-19.9
		C-2208.9,1083-2217.8,1074.1-2228.7,1074.1L-2228.7,1074.1z M-2223.8,1094.7h-3.2v11.5h-4.8v-11.5h-2.3v-4.1h2.3v-2.6
		c0-1.9,0.9-4.8,4.8-4.8l3.5,0v4h-2.6c-0.4,0-1,0.2-1,1.1v2.4h3.6L-2223.8,1094.7z M-2223.8,1094.7"/>
</g>
<g>
	<path d="M-2111.6,1073h-19.3c-6.5,0-11.9,5.3-11.9,11.9v19.3c0,6.5,5.3,11.9,11.9,11.9h19.3c6.5,0,11.9-5.3,11.9-11.9v-19.3
		C-2099.7,1078.3-2105.1,1073-2111.6,1073L-2111.6,1073z M-2103.6,1104.1c0,4.4-3.6,8.1-8.1,8.1h-19.3c-4.4,0-8.1-3.6-8.1-8.1v-19.3
		c0-4.4,3.6-8.1,8.1-8.1h19.3c4.4,0,8.1,3.6,8.1,8.1V1104.1z M-2103.6,1104.1"/>
	<path d="M-2121.2,1083.4c-6.1,0-11.1,5-11.1,11.1c0,6.1,5,11.1,11.1,11.1c6.1,0,11.1-5,11.1-11.1
		C-2110.2,1088.4-2115.1,1083.4-2121.2,1083.4L-2121.2,1083.4z M-2121.2,1101.8c-4,0-7.3-3.3-7.3-7.3c0-4,3.3-7.3,7.3-7.3
		c4,0,7.3,3.3,7.3,7.3C-2114,1098.5-2117.2,1101.8-2121.2,1101.8L-2121.2,1101.8z M-2121.2,1101.8"/>
	<path d="M-2109.7,1080.2c-0.7,0-1.5,0.3-2,0.8c-0.5,0.5-0.8,1.2-0.8,2c0,0.7,0.3,1.5,0.8,2c0.5,0.5,1.2,0.8,2,0.8
		c0.7,0,1.5-0.3,2-0.8c0.5-0.5,0.8-1.2,0.8-2c0-0.7-0.3-1.5-0.8-2C-2108.2,1080.5-2109,1080.2-2109.7,1080.2L-2109.7,1080.2z
		 M-2109.7,1080.2"/>
</g>
<g>
	<g>
		<defs>
			<rect id="SVGID_1_" x="-2033.2" y="1075.8" width="40" height="37.5"/>
		</defs>
		<clipPath id="SVGID_2_">
			<use xlink:href="#SVGID_1_"  style="overflow:visible;"/>
		</clipPath>
		<path class="st11" d="M-1994.2,1103.8c-5-0.8-7.3-5.9-7.6-6.5c0,0,0-0.1,0-0.1c-0.3-0.5-0.3-0.9-0.2-1.2c0.3-0.6,1.4-1,2.1-1.2
			c0.2-0.1,0.4-0.1,0.5-0.2c1.5-0.6,2.2-1.3,2.2-2.2c0-0.7-0.6-1.3-1.4-1.6c-0.3-0.1-0.6-0.2-0.9-0.2c-0.2,0-0.6,0-0.9,0.2
			c-0.6,0.3-1.2,0.4-1.6,0.5c-0.2,0-0.3,0-0.4-0.1c0-0.2,0-0.4,0-0.7l0-0.1c0.2-2.7,0.4-6.1-0.5-8.1c-2.7-6-8.4-6.5-10-6.5l-0.8,0
			c-1.7,0-7.3,0.5-10,6.5c-0.9,2-0.7,5.4-0.5,8.1c0,0.3,0,0.5,0,0.8c-0.1,0-0.3,0.1-0.5,0.1c-0.5,0-1.1-0.2-1.7-0.5
			c-0.9-0.4-2.7,0.1-2.9,1.4c-0.1,0.7,0.1,1.6,2.1,2.4c0.2,0.1,0.4,0.1,0.6,0.2c0.7,0.2,1.8,0.6,2.1,1.2c0.1,0.3,0.1,0.7-0.2,1.3
			c-0.1,0.2-2.5,5.6-7.7,6.5c-0.5,0.1-0.9,0.6-0.9,1.1c0,0.2,0,0.3,0.1,0.5c0.4,1,2.1,1.7,5.3,2.2c0.1,0.2,0.1,0.5,0.2,0.8
			c0.1,0.3,0.1,0.6,0.2,0.9c0.1,0.3,0.4,0.9,1.2,0.9c0.3,0,0.6-0.1,1-0.1c0.5-0.1,1.2-0.2,2.1-0.2c0.5,0,1,0,1.5,0.1
			c0.9,0.2,1.8,0.7,2.7,1.4c1.4,1,2.7,1.8,5.3,1.8c0.1,0,0.1,0,0.2,0c0.1,0,0.2,0,0.3,0c2.3,0,4.2-0.6,5.9-1.8
			c0.9-0.6,1.8-1.3,2.7-1.4c0.5-0.1,1-0.1,1.5-0.1c0.8,0,1.5,0.1,2.1,0.2c0.4,0.1,0.7,0.1,1,0.1c0.6,0,1-0.3,1.2-0.9
			c0.1-0.3,0.2-0.6,0.2-0.9c0-0.2,0.1-0.6,0.2-0.8c3.1-0.5,4.7-1.2,5.1-2.2c0.1-0.1,0.1-0.3,0.1-0.5
			C-1993.2,1104.4-1993.6,1103.9-1994.2,1103.8L-1994.2,1103.8z M-1994.2,1103.8"/>
	</g>
</g>
<rect x="-1241.7" y="-233" class="st0" width="154" height="154"/>
<rect x="-1041.7" y="-233" class="st12" width="154" height="154"/>
<rect x="-841.7" y="-233" class="st13" width="154" height="154"/>
<g>
	<path class="st12" d="M-968.8,174.8c0-10.3-7.9-18.7-18-19.6v81.2c0,15.8-12.9,28.7-28.7,28.7h-184.6c1.2,9.7,9.5,17.2,19.5,17.2
		h182l29.8,29.8v-48h-0.1c0-0.5,0.1-1,0.1-1.5V174.8z"/>
	<path class="st0" d="M-995.8,143.7c0-10.9-8.8-19.7-19.7-19.7h-201.1c-10.9,0-19.7,8.8-19.7,19.7v92.7c0,0.3,0,0.5,0,0.8h0V287
		l31-31h189.8c10.9,0,19.7-8.8,19.7-19.7V143.7z"/>
	<g>
		<g>
			<path class="st13" d="M-1196.1,158.6h13.1v1.9h-11v8h9.8v1.9h-9.8v9.2h-2.1V158.6z"/>
			<path class="st13" d="M-1164,179.5l-2.5-5.6h-11.6l-2.5,5.6h-2.2l9.4-20.9h2.2l9.4,20.9H-1164z M-1177.3,172.1h10l-5-11.3
				L-1177.3,172.1z"/>
			<path class="st13" d="M-1149.6,178c-1,1.1-2.5,1.6-4.3,1.6c-1.1,0-2.2-0.3-3.1-0.8c-1-0.5-1.8-1.2-2.5-2.2l1-1.6
				c0.6,0.8,1.4,1.4,2.2,1.9c0.8,0.4,1.6,0.6,2.5,0.6c1.2,0,2.1-0.4,2.8-1.1c0.6-0.7,1-1.8,1-3.2v-12.8h-7.5v-1.9h9.6v14.8
				C-1148.1,175.4-1148.6,176.9-1149.6,178z"/>
			<path class="st13" d="M-1126,158.6h2v20.9h-2.2l-13-17.7v17.7h-2.1v-20.9h2.2l13,17.7V158.6z"/>
			<path class="st13" d="M-1116.8,158.6h2.1v20.9h-2.1V158.6z"/>
			<path class="st13" d="M-1107.5,158.6h14v1.9h-11.9v7.5h10.7v1.9h-10.7v7.9h12.3v1.9h-14.4V158.6z"/>
			<path class="st13" d="M-1086.7,177.5c0.2,0.2,0.4,0.6,0.4,1c0,0.3-0.1,0.7-0.3,1.1l-1.5,3.4h-1.2l1.2-3.4
				c-0.2-0.1-0.4-0.3-0.6-0.5c-0.1-0.2-0.2-0.4-0.2-0.7c0-0.4,0.1-0.7,0.4-1c0.2-0.3,0.6-0.4,0.9-0.4
				C-1087.2,177.1-1086.9,177.2-1086.7,177.5z"/>
			<path class="st13" d="M-1071.8,158.6h16.5v1.6l-14.2,17.5h14.3v1.9h-17v-1.6l14.2-17.4h-13.8V158.6z M-1062.6,154.2
				c0.3,0.3,0.4,0.6,0.4,1c0,0.4-0.1,0.7-0.4,1c-0.3,0.3-0.6,0.4-1,0.4c-0.4,0-0.7-0.1-1-0.4c-0.3-0.3-0.4-0.6-0.4-1
				c0-0.4,0.1-0.7,0.4-1c0.3-0.3,0.6-0.4,1-0.4C-1063.2,153.7-1062.8,153.9-1062.6,154.2z"/>
			<path class="st13" d="M-1050.4,158.6h14v1.9h-11.9v7.5h10.7v1.9h-10.7v7.9h12.3v1.9h-14.4V158.6z"/>
		</g>
		<g>
			<path class="st13" d="M-1181.7,212l5.8-18.8h7.6l5.8,18.8l6.5-18.8h7.9l-11.4,32.7h-5.4l-7.2-22.7l-7.1,22.7h-5.4l-11.4-32.7h7.9
				L-1181.7,212z"/>
			<path class="st13" d="M-1142.3,193.2h7.3v32.7h-7.3V193.2z"/>
			<path class="st13" d="M-1101.5,193.2v6.5h-16.3v6.7h14.6v6.2h-14.6v6.8h16.8v6.5h-24.1v-32.7H-1101.5z"/>
			<path class="st13" d="M-1085,199.7c-0.7,0.6-1.1,1.3-1.1,2.3c0,1,0.4,1.7,1.3,2.3c0.9,0.6,2.8,1.2,5.9,2c3.1,0.8,5.5,1.9,7.2,3.4
				c1.7,1.5,2.6,3.8,2.6,6.7c0,2.9-1.1,5.3-3.3,7.1c-2.2,1.8-5.1,2.7-8.7,2.7c-5.2,0-9.8-1.9-14-5.8l4.4-5.3
				c3.5,3.1,6.8,4.6,9.8,4.6c1.3,0,2.4-0.3,3.2-0.9c0.8-0.6,1.1-1.4,1.1-2.3c0-1-0.4-1.8-1.2-2.3c-0.8-0.6-2.4-1.2-4.8-1.8
				c-3.8-0.9-6.6-2.1-8.4-3.5s-2.6-3.7-2.6-6.8c0-3.1,1.1-5.5,3.3-7.2c2.2-1.7,5-2.5,8.4-2.5c2.2,0,4.4,0.4,6.6,1.1s4.1,1.8,5.7,3.2
				l-3.7,5.3c-2.8-2.2-5.8-3.2-8.8-3.2C-1083.4,198.8-1084.3,199.1-1085,199.7z"/>
			<path class="st13" d="M-1063.4,225.9v-5l17.1-21.4h-16.6v-6.3h26.5v5.1l-17.1,21.3h17.4v6.4H-1063.4z"/>
		</g>
	</g>
</g>
<g>
	<path class="st12" d="M445.5,186.8c0-15.1-11.6-27.4-26.3-28.6v118.6c0,23.1-18.8,41.9-41.9,41.9H107.4
		c1.8,14.1,13.9,25.1,28.5,25.1h266l43.6,43.6v-70.1h-0.1c0.1-0.7,0.1-1.5,0.1-2.2V186.8z"/>
	<path class="st0" d="M406,141.3c0-15.9-12.9-28.7-28.7-28.7h-294c-15.9,0-28.7,12.9-28.7,28.7v135.5c0,0.4,0,0.8,0.1,1.2h-0.1v72.9
		l45.3-45.3h277.4c15.9,0,28.7-12.9,28.7-28.7V141.3z"/>
	<g>
		<g>
			<path class="st13" d="M113.3,163.2h19.2v2.7h-16.1v11.8h14.4v2.7h-14.4v13.4h-3V163.2z"/>
			<path class="st13" d="M160.2,193.8l-3.6-8.1h-17l-3.6,8.1h-3.2l13.8-30.6h3.1l13.8,30.6H160.2z M140.8,182.9h14.6l-7.3-16.5
				L140.8,182.9z"/>
			<path class="st13" d="M181.2,191.5c-1.5,1.6-3.6,2.4-6.3,2.4c-1.6,0-3.2-0.4-4.6-1.1c-1.4-0.7-2.7-1.8-3.7-3.2l1.5-2.3
				c0.9,1.2,2,2.1,3.1,2.7c1.2,0.6,2.4,0.9,3.6,0.9c1.8,0,3.1-0.5,4.1-1.6c0.9-1.1,1.4-2.6,1.4-4.7v-18.8h-11v-2.8h14.1v21.6
				C183.4,187.7,182.7,189.9,181.2,191.5z"/>
			<path class="st13" d="M215.7,163.2h3v30.6h-3.2l-18.9-25.9v25.9h-3v-30.6h3.2l19,25.9V163.2z"/>
			<path class="st13" d="M229.2,163.2h3v30.6h-3V163.2z"/>
			<path class="st13" d="M242.7,163.2h20.5v2.7h-17.4v10.9h15.6v2.7h-15.6v11.5h18v2.7h-21V163.2z"/>
			<path class="st13" d="M273.1,190.7c0.4,0.4,0.5,0.8,0.5,1.4c0,0.4-0.2,1-0.5,1.7l-2.2,5h-1.7l1.7-4.9c-0.4-0.1-0.6-0.4-0.8-0.7
				c-0.2-0.3-0.3-0.7-0.3-1c0-0.6,0.2-1,0.5-1.4c0.4-0.4,0.8-0.6,1.4-0.6C272.3,190.2,272.8,190.4,273.1,190.7z"/>
			<path class="st13" d="M294.9,163.2H319v2.3l-20.7,25.5h20.9v2.7h-24.8v-2.4l20.8-25.5h-20.2V163.2z M308.4,156.7
				c0.4,0.4,0.6,0.9,0.6,1.5c0,0.6-0.2,1.1-0.6,1.5s-0.9,0.6-1.5,0.6c-0.6,0-1-0.2-1.4-0.6c-0.4-0.4-0.6-0.9-0.6-1.5
				c0-0.6,0.2-1.1,0.6-1.5c0.4-0.4,0.9-0.6,1.4-0.6C307.5,156.1,308,156.3,308.4,156.7z"/>
			<path class="st13" d="M326.2,163.2h20.5v2.7h-17.4v10.9h15.6v2.7h-15.6v11.5h18v2.7h-21V163.2z"/>
		</g>
		<g>
			<path class="st13" d="M134.3,241.2l8.5-27.5h11.2l8.4,27.5l9.5-27.5h11.6l-16.7,47.8h-7.9l-10.5-33.2l-10.4,33.2H130l-16.7-47.8
				h11.6L134.3,241.2z"/>
			<path class="st13" d="M191.9,213.7h10.7v47.8h-10.7V213.7z"/>
			<path class="st13" d="M251.5,213.7v9.5h-23.8v9.8h21.4v9.1h-21.4v9.9h24.6v9.4H217v-47.8H251.5z"/>
			<path class="st13" d="M275.6,223.3c-1,0.8-1.5,2-1.5,3.4c0,1.4,0.6,2.5,1.9,3.3c1.3,0.8,4.1,1.8,8.7,2.9c4.5,1.1,8.1,2.8,10.6,5
				c2.5,2.2,3.8,5.5,3.8,9.8c0,4.3-1.6,7.8-4.8,10.4c-3.2,2.7-7.4,4-12.7,4c-7.6,0-14.4-2.8-20.5-8.4l6.4-7.8
				c5.2,4.5,9.9,6.8,14.3,6.8c2,0,3.5-0.4,4.6-1.3c1.1-0.8,1.7-2,1.7-3.4c0-1.4-0.6-2.6-1.8-3.4c-1.2-0.8-3.5-1.7-7-2.6
				c-5.6-1.3-9.6-3-12.2-5.2s-3.9-5.4-3.9-10c0-4.5,1.6-8,4.9-10.5c3.3-2.5,7.3-3.7,12.2-3.7c3.2,0,6.4,0.5,9.6,1.6s6,2.6,8.3,4.7
				l-5.4,7.8c-4.2-3.1-8.4-4.7-12.9-4.7C278,222,276.6,222.4,275.6,223.3z"/>
			<path class="st13" d="M307.2,261.5v-7.3l25-31.3h-24.2v-9.2h38.8v7.4l-25,31.1h25.4v9.3H307.2z"/>
		</g>
	</g>
</g>
<g>
	<path class="st0" d="M-181.1,451.1c0-10.3-7.9-18.7-18-19.6v81.2c0,15.8-12.9,28.7-28.7,28.7h-184.6c1.2,9.7,9.5,17.2,19.5,17.2
		h182l29.8,29.8v-48h-0.1c0-0.5,0.1-1,0.1-1.5V451.1z"/>
	<path class="st0" d="M-208.1,420c0-10.9-8.8-19.7-19.7-19.7h-201.1c-10.9,0-19.7,8.8-19.7,19.7v92.7c0,0.3,0,0.5,0,0.8h0v49.8
		l31-31h189.8c10.9,0,19.7-8.8,19.7-19.7V420z"/>
	<g>
		<g>
			<path class="st13" d="M-408.4,435h13.1v1.9h-11v8h9.8v1.9h-9.8v9.2h-2.1V435z"/>
			<path class="st13" d="M-376.3,455.9l-2.5-5.6h-11.6l-2.5,5.6h-2.2l9.4-20.9h2.2l9.4,20.9H-376.3z M-389.6,448.5h10l-5-11.3
				L-389.6,448.5z"/>
			<path class="st13" d="M-362,454.4c-1,1.1-2.5,1.6-4.3,1.6c-1.1,0-2.2-0.3-3.1-0.8c-1-0.5-1.8-1.2-2.5-2.2l1-1.6
				c0.6,0.8,1.4,1.4,2.2,1.9c0.8,0.4,1.6,0.6,2.5,0.6c1.2,0,2.1-0.4,2.8-1.1c0.6-0.7,1-1.8,1-3.2v-12.8h-7.5V435h9.6v14.8
				C-360.4,451.7-360.9,453.3-362,454.4z"/>
			<path class="st13" d="M-338.3,435h2v20.9h-2.2l-13-17.7v17.7h-2.1V435h2.2l13,17.7V435z"/>
			<path class="st13" d="M-329.1,435h2.1v20.9h-2.1V435z"/>
			<path class="st13" d="M-319.9,435h14v1.9h-11.9v7.5h10.7v1.9h-10.7v7.9h12.3v1.9h-14.4V435z"/>
			<path class="st13" d="M-299,453.8c0.2,0.2,0.4,0.6,0.4,1c0,0.3-0.1,0.7-0.3,1.1l-1.5,3.4h-1.2l1.2-3.4c-0.2-0.1-0.4-0.3-0.6-0.5
				c-0.1-0.2-0.2-0.4-0.2-0.7c0-0.4,0.1-0.7,0.4-1c0.2-0.3,0.6-0.4,0.9-0.4C-299.6,453.5-299.3,453.6-299,453.8z"/>
			<path class="st13" d="M-284.2,435h16.5v1.6l-14.2,17.5h14.3v1.9h-17v-1.6l14.2-17.4h-13.8V435z M-274.9,430.5
				c0.3,0.3,0.4,0.6,0.4,1c0,0.4-0.1,0.7-0.4,1c-0.3,0.3-0.6,0.4-1,0.4c-0.4,0-0.7-0.1-1-0.4c-0.3-0.3-0.4-0.6-0.4-1
				c0-0.4,0.1-0.7,0.4-1c0.3-0.3,0.6-0.4,1-0.4C-275.5,430.1-275.2,430.3-274.9,430.5z"/>
			<path class="st13" d="M-262.7,435h14v1.9h-11.9v7.5h10.7v1.9h-10.7v7.9h12.3v1.9h-14.4V435z"/>
		</g>
		<g>
			<path class="st13" d="M-394,488.4l5.8-18.8h7.6l5.8,18.8l6.5-18.8h7.9l-11.4,32.7h-5.4l-7.2-22.7l-7.1,22.7h-5.4l-11.4-32.7h7.9
				L-394,488.4z"/>
			<path class="st13" d="M-354.6,469.6h7.3v32.7h-7.3V469.6z"/>
			<path class="st13" d="M-313.8,469.6v6.5h-16.3v6.7h14.6v6.2h-14.6v6.8h16.8v6.5h-24.1v-32.7H-313.8z"/>
			<path class="st13" d="M-297.4,476.1c-0.7,0.6-1.1,1.3-1.1,2.3c0,1,0.4,1.7,1.3,2.3c0.9,0.6,2.8,1.2,5.9,2
				c3.1,0.8,5.5,1.9,7.2,3.4c1.7,1.5,2.6,3.8,2.6,6.7c0,2.9-1.1,5.3-3.3,7.1s-5.1,2.7-8.7,2.7c-5.2,0-9.8-1.9-14-5.8l4.4-5.3
				c3.5,3.1,6.8,4.6,9.8,4.6c1.3,0,2.4-0.3,3.2-0.9c0.8-0.6,1.1-1.4,1.1-2.3c0-1-0.4-1.8-1.2-2.3c-0.8-0.6-2.4-1.2-4.8-1.8
				c-3.8-0.9-6.6-2.1-8.4-3.5s-2.6-3.7-2.6-6.8c0-3.1,1.1-5.5,3.3-7.2c2.2-1.7,5-2.5,8.4-2.5c2.2,0,4.4,0.4,6.6,1.1
				c2.2,0.7,4.1,1.8,5.7,3.2l-3.7,5.3c-2.8-2.2-5.8-3.2-8.8-3.2C-295.7,475.2-296.7,475.5-297.4,476.1z"/>
			<path class="st13" d="M-275.7,502.3v-5l17.1-21.4h-16.6v-6.3h26.5v5.1l-17.1,21.3h17.4v6.4H-275.7z"/>
		</g>
	</g>
</g>
<g>
	<path class="st0" d="M-963.8,451.1c0-10.3-7.9-18.7-18-19.6v81.2c0,15.8-12.9,28.7-28.7,28.7h-184.6c1.2,9.7,9.5,17.2,19.5,17.2
		h182l29.8,29.8v-48h-0.1c0-0.5,0.1-1,0.1-1.5V451.1z"/>
	<path class="st12" d="M-990.8,420c0-10.9-8.8-19.7-19.7-19.7h-201.1c-10.9,0-19.7,8.8-19.7,19.7v92.7c0,0.3,0,0.5,0,0.8h0v49.8
		l31-31h189.8c10.9,0,19.7-8.8,19.7-19.7V420z"/>
	<g>
		<g>
			<path class="st13" d="M-1191,435h13.1v1.9h-11v8h9.8v1.9h-9.8v9.2h-2.1V435z"/>
			<path class="st13" d="M-1159,455.9l-2.5-5.6h-11.6l-2.5,5.6h-2.2l9.4-20.9h2.2l9.4,20.9H-1159z M-1172.2,448.5h10l-5-11.3
				L-1172.2,448.5z"/>
			<path class="st13" d="M-1144.6,454.4c-1,1.1-2.5,1.6-4.3,1.6c-1.1,0-2.2-0.3-3.1-0.8c-1-0.5-1.8-1.2-2.5-2.2l1-1.6
				c0.6,0.8,1.4,1.4,2.2,1.9c0.8,0.4,1.6,0.6,2.5,0.6c1.2,0,2.1-0.4,2.8-1.1c0.6-0.7,1-1.8,1-3.2v-12.8h-7.5V435h9.6v14.8
				C-1143,451.7-1143.6,453.3-1144.6,454.4z"/>
			<path class="st13" d="M-1121,435h2v20.9h-2.2l-13-17.7v17.7h-2.1V435h2.2l13,17.7V435z"/>
			<path class="st13" d="M-1111.8,435h2.1v20.9h-2.1V435z"/>
			<path class="st13" d="M-1102.5,435h14v1.9h-11.9v7.5h10.7v1.9h-10.7v7.9h12.3v1.9h-14.4V435z"/>
			<path class="st13" d="M-1081.7,453.8c0.2,0.2,0.4,0.6,0.4,1c0,0.3-0.1,0.7-0.3,1.1l-1.5,3.4h-1.2l1.2-3.4
				c-0.2-0.1-0.4-0.3-0.6-0.5c-0.1-0.2-0.2-0.4-0.2-0.7c0-0.4,0.1-0.7,0.4-1c0.2-0.3,0.6-0.4,0.9-0.4
				C-1082.2,453.5-1081.9,453.6-1081.7,453.8z"/>
			<path class="st13" d="M-1066.8,435h16.5v1.6l-14.2,17.5h14.3v1.9h-17v-1.6l14.2-17.4h-13.8V435z M-1057.6,430.5
				c0.3,0.3,0.4,0.6,0.4,1c0,0.4-0.1,0.7-0.4,1c-0.3,0.3-0.6,0.4-1,0.4c-0.4,0-0.7-0.1-1-0.4c-0.3-0.3-0.4-0.6-0.4-1
				c0-0.4,0.1-0.7,0.4-1c0.3-0.3,0.6-0.4,1-0.4C-1058.2,430.1-1057.8,430.3-1057.6,430.5z"/>
			<path class="st13" d="M-1045.4,435h14v1.9h-11.9v7.5h10.7v1.9h-10.7v7.9h12.3v1.9h-14.4V435z"/>
		</g>
		<g>
			<path class="st13" d="M-1176.7,488.4l5.8-18.8h7.6l5.8,18.8l6.5-18.8h7.9l-11.4,32.7h-5.4l-7.2-22.7l-7.1,22.7h-5.4l-11.4-32.7
				h7.9L-1176.7,488.4z"/>
			<path class="st13" d="M-1137.2,469.6h7.3v32.7h-7.3V469.6z"/>
			<path class="st13" d="M-1096.5,469.6v6.5h-16.3v6.7h14.6v6.2h-14.6v6.8h16.8v6.5h-24.1v-32.7H-1096.5z"/>
			<path class="st13" d="M-1080,476.1c-0.7,0.6-1.1,1.3-1.1,2.3c0,1,0.4,1.7,1.3,2.3c0.9,0.6,2.8,1.2,5.9,2c3.1,0.8,5.5,1.9,7.2,3.4
				c1.7,1.5,2.6,3.8,2.6,6.7c0,2.9-1.1,5.3-3.3,7.1s-5.1,2.7-8.7,2.7c-5.2,0-9.8-1.9-14-5.8l4.4-5.3c3.5,3.1,6.8,4.6,9.8,4.6
				c1.3,0,2.4-0.3,3.2-0.9c0.8-0.6,1.1-1.4,1.1-2.3c0-1-0.4-1.8-1.2-2.3c-0.8-0.6-2.4-1.2-4.8-1.8c-3.8-0.9-6.6-2.1-8.4-3.5
				s-2.6-3.7-2.6-6.8c0-3.1,1.1-5.5,3.3-7.2c2.2-1.7,5-2.5,8.4-2.5c2.2,0,4.4,0.4,6.6,1.1c2.2,0.7,4.1,1.8,5.7,3.2l-3.7,5.3
				c-2.8-2.2-5.8-3.2-8.8-3.2C-1078.4,475.2-1079.3,475.5-1080,476.1z"/>
			<path class="st13" d="M-1058.3,502.3v-5l17.1-21.4h-16.6v-6.3h26.5v5.1l-17.1,21.3h17.4v6.4H-1058.3z"/>
		</g>
	</g>
</g>
<g>
	<path class="st12" d="M-566.5,451.1c0-10.3-7.9-18.7-18-19.6v81.2c0,15.8-12.9,28.7-28.7,28.7h-184.6c1.2,9.7,9.5,17.2,19.5,17.2
		h182l29.8,29.8v-48h-0.1c0-0.5,0.1-1,0.1-1.5V451.1z"/>
	<path class="st12" d="M-593.5,420c0-10.9-8.8-19.7-19.7-19.7h-201.1c-10.9,0-19.7,8.8-19.7,19.7v92.7c0,0.3,0,0.5,0,0.8h0v49.8
		l31-31h189.8c10.9,0,19.7-8.8,19.7-19.7V420z"/>
	<g>
		<g>
			<path class="st13" d="M-793.7,435h13.1v1.9h-11v8h9.8v1.9h-9.8v9.2h-2.1V435z"/>
			<path class="st13" d="M-761.6,455.9l-2.5-5.6h-11.6l-2.5,5.6h-2.2l9.4-20.9h2.2l9.4,20.9H-761.6z M-774.9,448.5h10l-5-11.3
				L-774.9,448.5z"/>
			<path class="st13" d="M-747.3,454.4c-1,1.1-2.5,1.6-4.3,1.6c-1.1,0-2.2-0.3-3.1-0.8c-1-0.5-1.8-1.2-2.5-2.2l1-1.6
				c0.6,0.8,1.4,1.4,2.2,1.9c0.8,0.4,1.6,0.6,2.5,0.6c1.2,0,2.1-0.4,2.8-1.1c0.6-0.7,1-1.8,1-3.2v-12.8h-7.5V435h9.6v14.8
				C-745.7,451.7-746.2,453.3-747.3,454.4z"/>
			<path class="st13" d="M-723.7,435h2v20.9h-2.2l-13-17.7v17.7h-2.1V435h2.2l13,17.7V435z"/>
			<path class="st13" d="M-714.4,435h2.1v20.9h-2.1V435z"/>
			<path class="st13" d="M-705.2,435h14v1.9h-11.9v7.5h10.7v1.9h-10.7v7.9h12.3v1.9h-14.4V435z"/>
			<path class="st13" d="M-684.4,453.8c0.2,0.2,0.4,0.6,0.4,1c0,0.3-0.1,0.7-0.3,1.1l-1.5,3.4h-1.2l1.2-3.4
				c-0.2-0.1-0.4-0.3-0.6-0.5c-0.1-0.2-0.2-0.4-0.2-0.7c0-0.4,0.1-0.7,0.4-1c0.2-0.3,0.6-0.4,0.9-0.4
				C-684.9,453.5-684.6,453.6-684.4,453.8z"/>
			<path class="st13" d="M-669.5,435h16.5v1.6l-14.2,17.5h14.3v1.9h-17v-1.6l14.2-17.4h-13.8V435z M-660.2,430.5
				c0.3,0.3,0.4,0.6,0.4,1c0,0.4-0.1,0.7-0.4,1c-0.3,0.3-0.6,0.4-1,0.4c-0.4,0-0.7-0.1-1-0.4c-0.3-0.3-0.4-0.6-0.4-1
				c0-0.4,0.1-0.7,0.4-1c0.3-0.3,0.6-0.4,1-0.4C-660.8,430.1-660.5,430.3-660.2,430.5z"/>
			<path class="st13" d="M-648,435h14v1.9H-646v7.5h10.7v1.9H-646v7.9h12.3v1.9H-648V435z"/>
		</g>
		<g>
			<path class="st13" d="M-779.4,488.4l5.8-18.8h7.6l5.8,18.8l6.5-18.8h7.9l-11.4,32.7h-5.4l-7.2-22.7l-7.1,22.7h-5.4l-11.4-32.7
				h7.9L-779.4,488.4z"/>
			<path class="st13" d="M-739.9,469.6h7.3v32.7h-7.3V469.6z"/>
			<path class="st13" d="M-699.2,469.6v6.5h-16.3v6.7h14.6v6.2h-14.6v6.8h16.8v6.5h-24.1v-32.7H-699.2z"/>
			<path class="st13" d="M-682.7,476.1c-0.7,0.6-1.1,1.3-1.1,2.3c0,1,0.4,1.7,1.3,2.3c0.9,0.6,2.8,1.2,5.9,2
				c3.1,0.8,5.5,1.9,7.2,3.4c1.7,1.5,2.6,3.8,2.6,6.7c0,2.9-1.1,5.3-3.3,7.1c-2.2,1.8-5.1,2.7-8.7,2.7c-5.2,0-9.8-1.9-14-5.8
				l4.4-5.3c3.5,3.1,6.8,4.6,9.8,4.6c1.3,0,2.4-0.3,3.2-0.9c0.8-0.6,1.1-1.4,1.1-2.3c0-1-0.4-1.8-1.2-2.3c-0.8-0.6-2.4-1.2-4.8-1.8
				c-3.8-0.9-6.6-2.1-8.4-3.5s-2.6-3.7-2.6-6.8c0-3.1,1.1-5.5,3.3-7.2c2.2-1.7,5-2.5,8.4-2.5c2.2,0,4.4,0.4,6.6,1.1
				c2.2,0.7,4.1,1.8,5.7,3.2l-3.7,5.3c-2.8-2.2-5.8-3.2-8.8-3.2C-681,475.2-682,475.5-682.7,476.1z"/>
			<path class="st13" d="M-661,502.3v-5l17.1-21.4h-16.6v-6.3h26.5v5.1l-17.1,21.3h17.4v6.4H-661z"/>
		</g>
	</g>
</g>
<g>
	<path class="st12" d="M-802.6,1007.6c0-10.3-7.9-18.7-18-19.6v81.2c0,15.8-12.9,28.7-28.7,28.7h-184.6c1.2,9.7,9.5,17.2,19.5,17.2
		h182l29.8,29.8v-48h-0.1c0-0.5,0.1-1,0.1-1.5V1007.6z"/>
	<g>
		<path class="st12" d="M-849.3,956.8h-201.1c-10.9,0-19.7,8.8-19.7,19.7v92.7c0,0.3,0,0.5,0,0.8h0v49.8l31-31h189.8
			c10.9,0,19.7-8.8,19.7-19.7v-92.7C-829.6,965.6-838.4,956.8-849.3,956.8z M-898.4,987c0.3-0.3,0.6-0.4,1-0.4c0.4,0,0.7,0.1,1,0.4
			s0.4,0.6,0.4,1c0,0.4-0.1,0.7-0.4,1s-0.6,0.4-1,0.4c-0.4,0-0.7-0.1-1-0.4c-0.3-0.3-0.4-0.6-0.4-1
			C-898.8,987.6-898.6,987.3-898.4,987z M-906,1010.8l14.2-17.4h-13.8v-1.9h16.5v1.6l-14.2,17.5h14.3v1.9h-17V1010.8z M-922.5,1012
			c-0.1-0.2-0.2-0.4-0.2-0.7c0-0.4,0.1-0.7,0.4-1c0.2-0.3,0.6-0.4,0.9-0.4c0.4,0,0.7,0.1,0.9,0.4s0.4,0.6,0.4,1
			c0,0.3-0.1,0.7-0.3,1.1l-1.5,3.4h-1.2l1.2-3.4C-922.2,1012.3-922.4,1012.2-922.5,1012z M-941.3,991.5h14v1.9h-11.9v7.5h10.7v1.9
			h-10.7v7.9h12.3v1.9h-14.4V991.5z M-950.6,991.5h2.1v20.9h-2.1V991.5z M-1007.1,991.5h2.2l9.4,20.9h-2.2l-2.5-5.6h-11.6l-2.5,5.6
			h-2.2L-1007.1,991.5z M-1029.9,991.5h13.1v1.9h-11v8h9.8v1.9h-9.8v9.2h-2.1V991.5z M-993.3,1058.7h-5.4l-7.2-22.7l-7.1,22.7h-5.4
			l-11.4-32.7h7.9l6.5,18.8l5.8-18.8h7.6l5.8,18.8l6.5-18.8h7.9L-993.3,1058.7z M-981.9,1006.2c0,2-0.5,3.5-1.5,4.6
			c-1,1.1-2.5,1.6-4.3,1.6c-1.1,0-2.2-0.3-3.1-0.8c-1-0.5-1.8-1.2-2.5-2.2l1-1.6c0.6,0.8,1.4,1.4,2.2,1.9c0.8,0.4,1.6,0.6,2.5,0.6
			c1.2,0,2.1-0.4,2.8-1.1s1-1.8,1-3.2v-12.8h-7.5v-1.9h9.6V1006.2z M-968.7,1058.7h-7.3V1026h7.3V1058.7z M-972.9,994.7v17.7h-2.1
			v-20.9h2.2l13,17.7v-17.7h2v20.9h-2.2L-972.9,994.7z M-934.8,1058.7h-24.1V1026h23.6v6.5h-16.3v6.7h14.6v6.2h-14.6v6.8h16.8
			V1058.7z M-906.1,1056.4c-2.2,1.8-5.1,2.7-8.7,2.7c-5.2,0-9.8-1.9-14-5.8l4.4-5.3c3.5,3.1,6.8,4.6,9.8,4.6c1.3,0,2.4-0.3,3.2-0.9
			c0.8-0.6,1.1-1.4,1.1-2.3c0-1-0.4-1.8-1.2-2.3c-0.8-0.6-2.4-1.2-4.8-1.8c-3.8-0.9-6.6-2.1-8.4-3.5s-2.6-3.7-2.6-6.8
			c0-3.1,1.1-5.5,3.3-7.2c2.2-1.7,5-2.5,8.4-2.5c2.2,0,4.4,0.4,6.6,1.1c2.2,0.7,4.1,1.8,5.7,3.2l-3.7,5.3c-2.8-2.2-5.8-3.2-8.8-3.2
			c-1.2,0-2.2,0.3-2.9,0.9c-0.7,0.6-1.1,1.3-1.1,2.3c0,1,0.4,1.7,1.3,2.3c0.9,0.6,2.8,1.2,5.9,2c3.1,0.8,5.5,1.9,7.2,3.4
			c1.7,1.5,2.6,3.8,2.6,6.7C-902.8,1052.2-903.9,1054.5-906.1,1056.4z M-869.8,1058.7h-27.4v-5l17.1-21.4h-16.6v-6.3h26.5v5.1
			l-17.1,21.3h17.4V1058.7z M-869.8,1012.4h-14.4v-20.9h14v1.9h-11.9v7.5h10.7v1.9h-10.7v7.9h12.3V1012.4z"/>
		<polygon class="st12" points="-1006.1,993.7 -1011,1005 -1001.1,1005 		"/>
	</g>
</g>
<path class="st12" d="M-804.8,793.8c0-10.3-7.9-18.7-18-19.6v81.2c0,15.8-12.9,28.7-28.7,28.7h-184.6c1.2,9.7,9.5,17.2,19.5,17.2
	h182l29.8,29.8v-48h-0.1c0-0.5,0.1-1,0.1-1.5V793.8z"/>
<path class="st13" d="M-831.8,762.7c0-10.9-8.8-19.7-19.7-19.7h-201.1c-10.9,0-19.7,8.8-19.7,19.7v92.7c0,0.3,0,0.5,0,0.8h0V906
	l31-31h189.8c10.9,0,19.7-8.8,19.7-19.7V762.7z"/>
<g>
	<g>
		<g>
			<path class="st0" d="M-1032,777.6h13.1v1.9h-11v8h9.8v1.9h-9.8v9.2h-2.1V777.6z"/>
			<path class="st0" d="M-999.9,798.5l-2.5-5.6h-11.6l-2.5,5.6h-2.2l9.4-20.9h2.2l9.4,20.9H-999.9z M-1013.2,791.1h10l-5-11.3
				L-1013.2,791.1z"/>
			<path class="st0" d="M-985.6,797c-1,1.1-2.5,1.6-4.3,1.6c-1.1,0-2.2-0.3-3.1-0.8c-1-0.5-1.8-1.2-2.5-2.2l1-1.6
				c0.6,0.8,1.4,1.4,2.2,1.9c0.8,0.4,1.6,0.6,2.5,0.6c1.2,0,2.1-0.4,2.8-1.1c0.6-0.7,1-1.8,1-3.2v-12.8h-7.5v-1.9h9.6v14.8
				C-984,794.4-984.5,795.9-985.6,797z"/>
			<path class="st0" d="M-962,777.6h2v20.9h-2.2l-13-17.7v17.7h-2.1v-20.9h2.2l13,17.7V777.6z"/>
			<path class="st0" d="M-952.7,777.6h2.1v20.9h-2.1V777.6z"/>
			<path class="st0" d="M-943.5,777.6h14v1.9h-11.9v7.5h10.7v1.9h-10.7v7.9h12.3v1.9h-14.4V777.6z"/>
			<path class="st0" d="M-922.7,796.5c0.2,0.2,0.4,0.6,0.4,1c0,0.3-0.1,0.7-0.3,1.1l-1.5,3.4h-1.2l1.2-3.4c-0.2-0.1-0.4-0.3-0.6-0.5
				c-0.1-0.2-0.2-0.4-0.2-0.7c0-0.4,0.1-0.7,0.4-1c0.2-0.3,0.6-0.4,0.9-0.4C-923.2,796.1-922.9,796.2-922.7,796.5z"/>
			<path class="st0" d="M-907.8,777.6h16.5v1.6l-14.2,17.5h14.3v1.9h-17v-1.6l14.2-17.4h-13.8V777.6z M-898.6,773.2
				c0.3,0.3,0.4,0.6,0.4,1c0,0.4-0.1,0.7-0.4,1s-0.6,0.4-1,0.4c-0.4,0-0.7-0.1-1-0.4c-0.3-0.3-0.4-0.6-0.4-1c0-0.4,0.1-0.7,0.4-1
				c0.3-0.3,0.6-0.4,1-0.4C-899.2,772.7-898.8,772.9-898.6,773.2z"/>
			<path class="st0" d="M-886.3,777.6h14v1.9h-11.9v7.5h10.7v1.9h-10.7v7.9h12.3v1.9h-14.4V777.6z"/>
		</g>
		<g>
			<path class="st0" d="M-1017.7,831l5.8-18.8h7.6l5.8,18.8l6.5-18.8h7.9l-11.4,32.7h-5.4l-7.2-22.7l-7.1,22.7h-5.4l-11.4-32.7h7.9
				L-1017.7,831z"/>
			<path class="st0" d="M-978.2,812.2h7.3v32.7h-7.3V812.2z"/>
			<path class="st0" d="M-937.5,812.2v6.5h-16.3v6.7h14.6v6.2h-14.6v6.8h16.8v6.5h-24.1v-32.7H-937.5z"/>
			<path class="st0" d="M-921,818.7c-0.7,0.6-1.1,1.3-1.1,2.3c0,1,0.4,1.7,1.3,2.3c0.9,0.6,2.8,1.2,5.9,2c3.1,0.8,5.5,1.9,7.2,3.4
				c1.7,1.5,2.6,3.8,2.6,6.7c0,2.9-1.1,5.3-3.3,7.1s-5.1,2.7-8.7,2.7c-5.2,0-9.8-1.9-14-5.8l4.4-5.3c3.5,3.1,6.8,4.6,9.8,4.6
				c1.3,0,2.4-0.3,3.2-0.9c0.8-0.6,1.1-1.4,1.1-2.3c0-1-0.4-1.8-1.2-2.3c-0.8-0.6-2.4-1.2-4.8-1.8c-3.8-0.9-6.6-2.1-8.4-3.5
				s-2.6-3.7-2.6-6.8c0-3.1,1.1-5.5,3.3-7.2c2.2-1.7,5-2.5,8.4-2.5c2.2,0,4.4,0.4,6.6,1.1c2.2,0.7,4.1,1.8,5.7,3.2l-3.7,5.3
				c-2.8-2.2-5.8-3.2-8.8-3.2C-919.3,817.8-920.3,818.1-921,818.7z"/>
			<path class="st0" d="M-899.3,844.9v-5l17.1-21.4h-16.6v-6.3h26.5v5.1l-17.1,21.3h17.4v6.4H-899.3z"/>
		</g>
	</g>
</g>
<text transform="matrix(1 0 0 1 -1231.2401 82.457)" style="font-family:'Montserrat-Light'; font-size:28.6048px; letter-spacing:1;">główna</text>
<text transform="matrix(1 0 0 1 -683.9834 82.457)" style="font-family:'Montserrat-Light'; font-size:28.6048px; letter-spacing:1;">główna</text>
<text transform="matrix(1 0 0 1 -1231.2401 353.9435)" style="font-family:'Montserrat-Light'; font-size:28.6048px; letter-spacing:1;">pomocne</text>
<rect x="-705.2" y="663.1" class="st12" width="902.5" height="509.5"/>
<g>
	<g>
		<g>
			<path class="st0" d="M-294.4,1007.6c0-10.3-7.9-18.7-18-19.6v81.2c0,15.8-12.9,28.7-28.7,28.7h-184.6c1.2,9.7,9.5,17.2,19.5,17.2
				h182l29.8,29.8v-48h-0.1c0-0.5,0.1-1,0.1-1.5V1007.6z"/>
		</g>
		<g>
			<g>
				<g>
					<path class="st0" d="M-341.1,956.8h-201.1c-10.9,0-19.7,8.8-19.7,19.7v92.7c0,0.3,0,0.5,0,0.8h0v49.8l31-31h189.8
						c10.9,0,19.7-8.8,19.7-19.7v-92.7C-321.4,965.6-330.2,956.8-341.1,956.8z M-390.2,987c0.3-0.3,0.6-0.4,1-0.4
						c0.4,0,0.7,0.1,1,0.4s0.4,0.6,0.4,1c0,0.4-0.1,0.7-0.4,1s-0.6,0.4-1,0.4c-0.4,0-0.7-0.1-1-0.4c-0.3-0.3-0.4-0.6-0.4-1
						C-390.5,987.6-390.4,987.3-390.2,987z M-397.8,1010.8l14.2-17.4h-13.8v-1.9h16.5v1.6l-14.2,17.5h14.3v1.9h-17V1010.8z
						 M-414.3,1012c-0.1-0.2-0.2-0.4-0.2-0.7c0-0.4,0.1-0.7,0.4-1c0.2-0.3,0.6-0.4,0.9-0.4c0.4,0,0.7,0.1,0.9,0.4s0.4,0.6,0.4,1
						c0,0.3-0.1,0.7-0.3,1.1l-1.5,3.4h-1.2l1.2-3.4C-414,1012.3-414.2,1012.2-414.3,1012z M-433.1,991.5h14v1.9h-11.9v7.5h10.7v1.9
						h-10.7v7.9h12.3v1.9h-14.4V991.5z M-442.4,991.5h2.1v20.9h-2.1V991.5z M-498.9,991.5h2.2l9.4,20.9h-2.2l-2.5-5.6h-11.6
						l-2.5,5.6h-2.2L-498.9,991.5z M-521.7,991.5h13.1v1.9h-11v8h9.8v1.9h-9.8v9.2h-2.1V991.5z M-485.1,1058.7h-5.4l-7.2-22.7
						l-7.1,22.7h-5.4l-11.4-32.7h7.9l6.5,18.8l5.8-18.8h7.6l5.8,18.8l6.5-18.8h7.9L-485.1,1058.7z M-473.7,1006.2
						c0,2-0.5,3.5-1.5,4.6c-1,1.1-2.5,1.6-4.3,1.6c-1.1,0-2.2-0.3-3.1-0.8c-1-0.5-1.8-1.2-2.5-2.2l1-1.6c0.6,0.8,1.4,1.4,2.2,1.9
						c0.8,0.4,1.6,0.6,2.5,0.6c1.2,0,2.1-0.4,2.8-1.1s1-1.8,1-3.2v-12.8h-7.5v-1.9h9.6V1006.2z M-460.5,1058.7h-7.3V1026h7.3V1058.7
						z M-464.7,994.7v17.7h-2.1v-20.9h2.2l13,17.7v-17.7h2v20.9h-2.2L-464.7,994.7z M-426.6,1058.7h-24.1V1026h23.6v6.5h-16.3v6.7
						h14.6v6.2h-14.6v6.8h16.8V1058.7z M-397.9,1056.4c-2.2,1.8-5.1,2.7-8.7,2.7c-5.2,0-9.8-1.9-14-5.8l4.4-5.3
						c3.5,3.1,6.8,4.6,9.8,4.6c1.3,0,2.4-0.3,3.2-0.9c0.8-0.6,1.1-1.4,1.1-2.3c0-1-0.4-1.8-1.2-2.3c-0.8-0.6-2.4-1.2-4.8-1.8
						c-3.8-0.9-6.6-2.1-8.4-3.5s-2.6-3.7-2.6-6.8c0-3.1,1.1-5.5,3.3-7.2c2.2-1.7,5-2.5,8.4-2.5c2.2,0,4.4,0.4,6.6,1.1
						c2.2,0.7,4.1,1.8,5.7,3.2l-3.7,5.3c-2.8-2.2-5.8-3.2-8.8-3.2c-1.2,0-2.2,0.3-2.9,0.9c-0.7,0.6-1.1,1.3-1.1,2.3
						c0,1,0.4,1.7,1.3,2.3c0.9,0.6,2.8,1.2,5.9,2c3.1,0.8,5.5,1.9,7.2,3.4c1.7,1.5,2.6,3.8,2.6,6.7
						C-394.6,1052.2-395.7,1054.5-397.9,1056.4z M-361.6,1058.7H-389v-5l17.1-21.4h-16.6v-6.3h26.5v5.1l-17.1,21.3h17.4V1058.7z
						 M-361.6,1012.4H-376v-20.9h14v1.9h-11.9v7.5h10.7v1.9h-10.7v7.9h12.3V1012.4z"/>
				</g>
			</g>
			<g>
				<polygon class="st0" points="-497.9,993.7 -502.8,1005 -492.9,1005 				"/>
			</g>
		</g>
	</g>
</g>
<g>
	<g>
		<g>
			<path class="st13" d="M86.3,1007.6c0-10.3-7.9-18.7-18-19.6v81.2c0,15.8-12.9,28.7-28.7,28.7H-145c1.2,9.7,9.5,17.2,19.5,17.2
				h182l29.8,29.8v-48h-0.1c0-0.5,0.1-1,0.1-1.5V1007.6z"/>
		</g>
		<g>
			<g>
				<g>
					<path class="st13" d="M39.6,956.8h-201.1c-10.9,0-19.7,8.8-19.7,19.7v92.7c0,0.3,0,0.5,0,0.8h0v49.8l31-31H39.6
						c10.9,0,19.7-8.8,19.7-19.7v-92.7C59.3,965.6,50.5,956.8,39.6,956.8z M-9.5,987c0.3-0.3,0.6-0.4,1-0.4c0.4,0,0.7,0.1,1,0.4
						s0.4,0.6,0.4,1c0,0.4-0.1,0.7-0.4,1s-0.6,0.4-1,0.4c-0.4,0-0.7-0.1-1-0.4c-0.3-0.3-0.4-0.6-0.4-1C-9.8,987.6-9.7,987.3-9.5,987
						z M-17.1,1010.8l14.2-17.4h-13.8v-1.9h16.5v1.6l-14.2,17.5h14.3v1.9h-17V1010.8z M-33.6,1012c-0.1-0.2-0.2-0.4-0.2-0.7
						c0-0.4,0.1-0.7,0.4-1c0.2-0.3,0.6-0.4,0.9-0.4c0.4,0,0.7,0.1,0.9,0.4s0.4,0.6,0.4,1c0,0.3-0.1,0.7-0.3,1.1l-1.5,3.4h-1.2
						l1.2-3.4C-33.3,1012.3-33.5,1012.2-33.6,1012z M-52.4,991.5h14v1.9h-11.9v7.5h10.7v1.9h-10.7v7.9H-38v1.9h-14.4V991.5z
						 M-61.7,991.5h2.1v20.9h-2.1V991.5z M-118.2,991.5h2.2l9.4,20.9h-2.2l-2.5-5.6H-123l-2.5,5.6h-2.2L-118.2,991.5z M-141,991.5
						h13.1v1.9h-11v8h9.8v1.9h-9.8v9.2h-2.1V991.5z M-104.4,1058.7h-5.4l-7.2-22.7l-7.1,22.7h-5.4L-141,1026h7.9l6.5,18.8l5.8-18.8
						h7.6l5.8,18.8l6.5-18.8h7.9L-104.4,1058.7z M-93,1006.2c0,2-0.5,3.5-1.5,4.6c-1,1.1-2.5,1.6-4.3,1.6c-1.1,0-2.2-0.3-3.1-0.8
						c-1-0.5-1.8-1.2-2.5-2.2l1-1.6c0.6,0.8,1.4,1.4,2.2,1.9c0.8,0.4,1.6,0.6,2.5,0.6c1.2,0,2.1-0.4,2.8-1.1s1-1.8,1-3.2v-12.8h-7.5
						v-1.9h9.6V1006.2z M-79.8,1058.7h-7.3V1026h7.3V1058.7z M-84,994.7v17.7h-2.1v-20.9h2.2l13,17.7v-17.7h2v20.9H-71L-84,994.7z
						 M-45.9,1058.7H-70V1026h23.6v6.5h-16.3v6.7H-48v6.2h-14.6v6.8h16.8V1058.7z M-17.2,1056.4c-2.2,1.8-5.1,2.7-8.7,2.7
						c-5.2,0-9.8-1.9-14-5.8l4.4-5.3c3.5,3.1,6.8,4.6,9.8,4.6c1.3,0,2.4-0.3,3.2-0.9c0.8-0.6,1.1-1.4,1.1-2.3c0-1-0.4-1.8-1.2-2.3
						c-0.8-0.6-2.4-1.2-4.8-1.8c-3.8-0.9-6.6-2.1-8.4-3.5s-2.6-3.7-2.6-6.8c0-3.1,1.1-5.5,3.3-7.2c2.2-1.7,5-2.5,8.4-2.5
						c2.2,0,4.4,0.4,6.6,1.1c2.2,0.7,4.1,1.8,5.7,3.2l-3.7,5.3c-2.8-2.2-5.8-3.2-8.8-3.2c-1.2,0-2.2,0.3-2.9,0.9
						c-0.7,0.6-1.1,1.3-1.1,2.3c0,1,0.4,1.7,1.3,2.3c0.9,0.6,2.8,1.2,5.9,2c3.1,0.8,5.5,1.9,7.2,3.4c1.7,1.5,2.6,3.8,2.6,6.7
						C-13.9,1052.2-15,1054.5-17.2,1056.4z M19.1,1058.7H-8.3v-5l17.1-21.4H-7.7v-6.3h26.5v5.1l-17.1,21.3h17.4V1058.7z
						 M19.1,1012.4H4.7v-20.9h14v1.9H6.8v7.5h10.7v1.9H6.8v7.9h12.3V1012.4z"/>
				</g>
			</g>
			<g>
				<polygon class="st13" points="-117.2,993.7 -122.1,1005 -112.2,1005 				"/>
			</g>
		</g>
	</g>
</g>
<path class="st0" d="M-299,793.8c0-10.3-7.9-18.7-18-19.6v81.2c0,15.8-12.9,28.7-28.7,28.7h-184.6c1.2,9.7,9.5,17.2,19.5,17.2h182
	L-299,931v-48h-0.1c0-0.5,0.1-1,0.1-1.5V793.8z"/>
<g>
	<polygon class="st13" points="-502.5,779.8 -507.5,791.1 -497.5,791.1 	"/>
	<path class="st13" d="M-345.7,743h-201.1c-10.9,0-19.7,8.8-19.7,19.7v92.7c0,0.3,0,0.5,0,0.8h0V906l31-31h189.8
		c10.9,0,19.7-8.8,19.7-19.7v-92.7C-326,751.8-334.8,743-345.7,743z M-394.8,773.2c0.3-0.3,0.6-0.4,1-0.4c0.4,0,0.7,0.1,1,0.4
		c0.3,0.3,0.4,0.6,0.4,1c0,0.4-0.1,0.7-0.4,1c-0.3,0.3-0.6,0.4-1,0.4c-0.4,0-0.7-0.1-1-0.4c-0.3-0.3-0.4-0.6-0.4-1
		C-395.2,773.8-395,773.4-394.8,773.2z M-402.4,796.9l14.2-17.4H-402v-1.9h16.5v1.6l-14.2,17.5h14.3v1.9h-17V796.9z M-418.9,798.1
		c-0.1-0.2-0.2-0.4-0.2-0.7c0-0.4,0.1-0.7,0.4-1c0.2-0.3,0.6-0.4,0.9-0.4c0.4,0,0.7,0.1,0.9,0.4c0.2,0.2,0.4,0.6,0.4,1
		c0,0.3-0.1,0.7-0.3,1.1l-1.5,3.4h-1.2l1.2-3.4C-418.6,798.5-418.8,798.3-418.9,798.1z M-437.8,777.6h14v1.9h-11.9v7.5h10.7v1.9
		h-10.7v7.9h12.3v1.9h-14.4V777.6z M-447,777.6h2.1v20.9h-2.1V777.6z M-503.5,777.6h2.2l9.4,20.9h-2.2l-2.5-5.6h-11.6l-2.5,5.6h-2.2
		L-503.5,777.6z M-526.3,777.6h13.1v1.9h-11v8h9.8v1.9h-9.8v9.2h-2.1V777.6z M-489.7,844.9h-5.4l-7.2-22.7l-7.1,22.7h-5.4
		l-11.4-32.7h7.9l6.5,18.8l5.8-18.8h7.6l5.8,18.8l6.5-18.8h7.9L-489.7,844.9z M-478.3,792.4c0,2-0.5,3.5-1.5,4.6
		c-1,1.1-2.5,1.6-4.3,1.6c-1.1,0-2.2-0.3-3.1-0.8c-1-0.5-1.8-1.2-2.5-2.2l1-1.6c0.6,0.8,1.4,1.4,2.2,1.9c0.8,0.4,1.6,0.6,2.5,0.6
		c1.2,0,2.1-0.4,2.8-1.1c0.6-0.7,1-1.8,1-3.2v-12.8h-7.5v-1.9h9.6V792.4z M-465.2,844.9h-7.3v-32.7h7.3V844.9z M-469.3,780.8v17.7
		h-2.1v-20.9h2.2l13,17.7v-17.7h2v20.9h-2.2L-469.3,780.8z M-431.2,844.9h-24.1v-32.7h23.6v6.5H-448v6.7h14.6v6.2H-448v6.8h16.8
		V844.9z M-402.6,842.5c-2.2,1.8-5.1,2.7-8.7,2.7c-5.2,0-9.8-1.9-14-5.8l4.4-5.3c3.5,3.1,6.8,4.6,9.8,4.6c1.3,0,2.4-0.3,3.2-0.9
		c0.8-0.6,1.1-1.4,1.1-2.3c0-1-0.4-1.8-1.2-2.3c-0.8-0.6-2.4-1.2-4.8-1.8c-3.8-0.9-6.6-2.1-8.4-3.5c-1.8-1.5-2.6-3.7-2.6-6.8
		c0-3.1,1.1-5.5,3.3-7.2c2.2-1.7,5-2.5,8.4-2.5c2.2,0,4.4,0.4,6.6,1.1c2.2,0.7,4.1,1.8,5.7,3.2l-3.7,5.3c-2.8-2.2-5.8-3.2-8.8-3.2
		c-1.2,0-2.2,0.3-2.9,0.9c-0.7,0.6-1.1,1.3-1.1,2.3c0,1,0.4,1.7,1.3,2.3c0.9,0.6,2.8,1.2,5.9,2c3.1,0.8,5.5,1.9,7.2,3.4
		c1.7,1.5,2.6,3.8,2.6,6.7C-399.3,838.3-400.4,840.7-402.6,842.5z M-366.2,844.9h-27.4v-5l17.1-21.4H-393v-6.3h26.5v5.1l-17.1,21.3
		h17.4V844.9z M-366.2,798.5h-14.4v-20.9h14v1.9h-11.9v7.5h10.7v1.9h-10.7v7.9h12.3V798.5z"/>
</g>
</svg>
