<?xml version="1.0" encoding="utf-8"?>
<!-- Generator: Adobe Illustrator 23.0.0, SVG Export Plug-In . SVG Version: 6.00 Build 0)  -->
<svg version="1.1" id="Layer_1" xmlns="http://www.w3.org/2000/svg" xmlns:xlink="http://www.w3.org/1999/xlink" x="0px" y="0px"
	 viewBox="0 0 124.72 124.72" style="enable-background:new 0 0 124.72 124.72;" xml:space="preserve">
<style type="text/css">
	.st0{fill:#EE4523;}
	.st1{fill:#FFFFFF;}
	.st2{fill:#15284E;}
</style>
<title>logo_web</title>
<g>
	<path class="st0" d="M24.58,32.16c-0.77,0-1.49-0.37-1.93-1l-3.51-4.87c-0.76-1.07-0.52-2.55,0.54-3.32l4.87-3.5
		c1.06-0.77,2.55-0.53,3.32,0.53c0,0,0,0.01,0.01,0.01l3.5,4.87c0.77,1.07,0.53,2.55-0.54,3.32l-4.87,3.5
		C25.57,32,25.08,32.16,24.58,32.16z M21.65,25.01l3,4.2l4.21-3l-3-4.2L21.65,25.01z"/>
	<path class="st0" d="M34.93,80.2h0.15l19.36,0.38c0.4,0.01,0.78,0.15,1.1,0.39c0.3,0.25,0.53,0.57,0.67,0.94
		c0.15,0.38,0.19,0.78,0.14,1.18c-0.05,0.42-0.23,0.82-0.51,1.15l-17.53,20.68c-0.09,0.11-0.2,0.22-0.31,0.31
		c-0.11,0.09-0.23,0.17-0.35,0.23c-0.11,0.06-0.24,0.11-0.36,0.15c-0.12,0.04-0.24,0.07-0.37,0.08c-0.27,0.03-0.54,0.01-0.8-0.06
		c-0.26-0.07-0.51-0.2-0.72-0.37c-0.22-0.18-0.4-0.39-0.53-0.64c-0.15-0.27-0.23-0.58-0.25-0.89l-1.7-21.1
		c-0.05-0.6,0.13-1.21,0.51-1.68c0.18-0.22,0.41-0.4,0.66-0.53C34.35,80.29,34.64,80.22,34.93,80.2z"/>
	<path class="st0" d="M106.86,33.25c0.72-0.01,1.43,0.15,2.08,0.46c0.66,0.32,1.25,0.77,1.74,1.32c0.52,0.59,0.93,1.27,1.21,2
		c0.31,0.77,0.49,1.59,0.53,2.42l1.71,34.89c0.04,0.82-0.05,1.63-0.28,2.42c-0.21,0.75-0.55,1.46-1,2.1
		c-0.42,0.61-0.95,1.14-1.56,1.55c-0.6,0.41-1.28,0.68-2,0.79L30.08,93.38c-1.03,0.17-2.08,0.13-3.09-0.12
		c-0.96-0.23-1.87-0.66-2.66-1.25c-0.78-0.58-1.43-1.31-1.91-2.16c-0.51-0.89-0.81-1.87-0.88-2.89l-3.65-44.07
		c-0.09-1.05,0.05-2.11,0.4-3.1c0.34-0.95,0.87-1.82,1.56-2.56c0.7-0.74,1.53-1.33,2.46-1.75c0.98-0.43,2.03-0.66,3.1-0.68
		L106.86,33.25z"/>
	<g>
		<path class="st1" d="M104.21,70.22c0.24-0.03,0.47-0.03,0.71,0c0.18,0.03,0.34,0.11,0.47,0.23c0.13,0.14,0.22,0.31,0.27,0.5
			c0.07,0.26,0.11,0.53,0.12,0.8v0.76c0.02,0.27,0.02,0.55,0,0.82c-0.03,0.2-0.1,0.39-0.22,0.56c-0.11,0.15-0.27,0.27-0.44,0.35
			c-0.22,0.09-0.46,0.15-0.7,0.18l-0.93,0.12c-0.23,0.04-0.47,0.04-0.7,0c-0.18-0.02-0.34-0.1-0.47-0.22
			c-0.13-0.14-0.23-0.31-0.28-0.5c-0.07-0.27-0.11-0.54-0.12-0.81v-0.77c-0.03-0.28-0.03-0.55,0-0.83c0.03-0.2,0.1-0.39,0.22-0.56
			c0.12-0.15,0.27-0.27,0.44-0.35c0.22-0.09,0.46-0.15,0.7-0.17L104.21,70.22z"/>
		<path class="st1" d="M102.18,68.52l-0.81-9.53c-0.02-0.13-0.02-0.26,0-0.39c0.01-0.1,0.05-0.19,0.11-0.26
			c0.06-0.07,0.13-0.13,0.22-0.16c0.11-0.04,0.23-0.07,0.35-0.07l2.13-0.19c0.12-0.02,0.23-0.02,0.35,0
			c0.09,0.02,0.17,0.05,0.24,0.11c0.06,0.07,0.11,0.15,0.13,0.24c0.02,0.13,0.02,0.26,0,0.39l0.16,9.5c0,0.16,0,0.29,0,0.4
			c-0.02,0.09-0.05,0.19-0.1,0.27c-0.05,0.07-0.12,0.12-0.2,0.16c-0.1,0.05-0.22,0.07-0.33,0.08l-1.53,0.19
			c-0.11,0.01-0.23,0.01-0.34,0c-0.09-0.01-0.17-0.06-0.23-0.12c-0.06-0.07-0.11-0.16-0.13-0.25
			C102.18,68.77,102.17,68.64,102.18,68.52z"/>
		<path class="st1" d="M103.43,42.84c0.08-0.02,0.17-0.02,0.25,0c0.07,0.01,0.13,0.05,0.17,0.1c0.05,0.05,0.09,0.12,0.1,0.19
			c0.01,0.1,0.01,0.19,0,0.29l0.07,1.33c0.01,0.1,0.01,0.2,0,0.3c-0.01,0.08-0.03,0.15-0.08,0.21c-0.04,0.05-0.1,0.09-0.16,0.12
			c-0.08,0.01-0.17,0.01-0.25,0l-3.35,0.18l0.07,1.33l2.68-0.15c0.09-0.02,0.17-0.02,0.26,0c0.06,0.01,0.12,0.04,0.17,0.09
			c0.05,0.05,0.09,0.12,0.1,0.19c0.03,0.09,0.05,0.19,0.05,0.29l0.07,1.42c0.01,0.1,0.01,0.2,0,0.3c-0.01,0.07-0.04,0.14-0.08,0.2
			c-0.04,0.05-0.1,0.09-0.16,0.12c-0.08,0.03-0.17,0.05-0.26,0.05l-2.67,0.17l0.07,1.43l3.46-0.23c0.08-0.02,0.17-0.02,0.25,0
			c0.06,0.02,0.11,0.05,0.16,0.09c0.05,0.05,0.09,0.12,0.1,0.19c0.01,0.1,0.01,0.19,0,0.29l0.07,1.34c0.01,0.1,0.01,0.2,0,0.3
			c-0.01,0.07-0.04,0.14-0.08,0.19c-0.03,0.06-0.09,0.1-0.15,0.12c-0.08,0.02-0.17,0.02-0.25,0l-5.43,0.42
			c-0.09,0.02-0.17,0.02-0.26,0c-0.07-0.01-0.13-0.04-0.18-0.09c-0.05-0.05-0.09-0.12-0.1-0.19c-0.01-0.1-0.01-0.19,0-0.29
			l-0.49-9.39c-0.01-0.1-0.01-0.2,0-0.3c0.02-0.07,0.05-0.14,0.09-0.2c0.04-0.05,0.1-0.09,0.16-0.12c0.09-0.01,0.17-0.01,0.26,0
			L103.43,42.84z"/>
		<path class="st1" d="M92.82,42.63c-0.16,0.02-0.32,0.02-0.48,0c-0.12-0.02-0.23-0.08-0.32-0.17c-0.09-0.1-0.15-0.21-0.18-0.34
			c-0.05-0.18-0.07-0.37-0.08-0.56v-0.12c-0.02-0.19-0.02-0.37,0-0.56c0.02-0.13,0.07-0.25,0.14-0.36c0.08-0.1,0.18-0.17,0.3-0.2
			c0.15-0.05,0.32-0.08,0.48-0.08h0.08c0.16-0.03,0.33-0.03,0.49,0c0.12,0.03,0.23,0.08,0.31,0.17c0.09,0.1,0.15,0.22,0.18,0.35
			c0.05,0.18,0.07,0.37,0.08,0.56v0.12c0.02,0.18,0.02,0.37,0,0.55c-0.01,0.13-0.06,0.25-0.14,0.36c-0.08,0.09-0.18,0.16-0.3,0.2
			c-0.15,0.04-0.31,0.07-0.47,0.07L92.82,42.63z"/>
		<path class="st1" d="M99.03,59.03c0.13-0.02,0.26-0.02,0.39,0c0.1,0.01,0.19,0.06,0.26,0.13c0.08,0.08,0.13,0.17,0.15,0.28
			c0.03,0.14,0.05,0.29,0.06,0.44l0.07,1.33c0,0.11,0,0.2,0,0.29v0.26c-0.02,0.08-0.04,0.15-0.07,0.23
			c-0.03,0.08-0.06,0.16-0.1,0.23l-4.91,9.31l4.92-0.6c0.13-0.01,0.25-0.01,0.38,0c0.1,0.01,0.19,0.06,0.26,0.13
			c0.07,0.07,0.13,0.17,0.15,0.27c0.03,0.14,0.05,0.29,0.06,0.44l0.11,2c0.02,0.15,0.02,0.29,0,0.44c-0.02,0.11-0.05,0.21-0.11,0.3
			c-0.06,0.08-0.15,0.15-0.24,0.19c-0.12,0.05-0.25,0.09-0.38,0.1l-9.3,1.25c-0.13,0.02-0.27,0.02-0.4,0
			c-0.1-0.02-0.19-0.06-0.27-0.12c-0.07-0.08-0.13-0.18-0.16-0.28c-0.04-0.14-0.07-0.29-0.07-0.44l-0.08-1.38
			c-0.01-0.09-0.01-0.19,0-0.28c-0.01-0.09-0.01-0.17,0-0.26c0.02-0.08,0.04-0.16,0.07-0.23c0.03-0.08,0.07-0.16,0.11-0.23l5-9.47
			l-4.86,0.49c-0.13,0.02-0.27,0.02-0.4,0c-0.1-0.02-0.2-0.07-0.27-0.14c-0.08-0.08-0.14-0.18-0.17-0.29
			c-0.04-0.15-0.07-0.3-0.07-0.46l-0.12-2.06c-0.02-0.15-0.02-0.31,0-0.46c0.02-0.11,0.06-0.22,0.13-0.31
			c0.07-0.08,0.15-0.15,0.25-0.19c0.13-0.04,0.26-0.08,0.4-0.09L99.03,59.03z"/>
		<path class="st1" d="M96.41,51.29c0.09-0.02,0.17-0.02,0.26,0c0.06,0.02,0.12,0.05,0.17,0.09c0.05,0.05,0.09,0.12,0.1,0.19
			c0.01,0.1,0.01,0.2,0,0.3l0.07,1.37c0.02,0.1,0.02,0.2,0,0.3c-0.01,0.07-0.04,0.14-0.08,0.2c-0.04,0.06-0.09,0.1-0.16,0.12
			c-0.08,0.03-0.17,0.05-0.26,0.06l-6.28,0.48c-0.09,0.01-0.18,0.01-0.27,0c-0.07-0.01-0.13-0.04-0.18-0.09
			c-0.06-0.05-0.09-0.12-0.11-0.2c-0.01-0.1-0.01-0.2,0-0.3l-0.05-0.93c-0.01-0.06-0.01-0.13,0-0.19c0-0.06,0-0.11,0-0.17
			c0.02-0.05,0.04-0.1,0.06-0.15c0.02-0.05,0.04-0.1,0.07-0.15l3.38-6.2l-3.28,0.17c-0.09,0.02-0.18,0.02-0.27,0
			c-0.07-0.02-0.13-0.05-0.18-0.1c-0.05-0.06-0.09-0.13-0.11-0.2c-0.03-0.1-0.05-0.21-0.05-0.32l-0.08-1.38
			c-0.01-0.1-0.01-0.21,0-0.31c0.02-0.07,0.05-0.14,0.09-0.2c0.04-0.06,0.1-0.1,0.17-0.12c0.09-0.01,0.18-0.01,0.27,0l6.18-0.29
			c0.09-0.01,0.17-0.01,0.26,0c0.07,0.01,0.13,0.05,0.18,0.1c0.05,0.06,0.09,0.12,0.1,0.2c0.01,0.1,0.01,0.19,0,0.29l0.05,0.91v0.2
			c0,0.06,0,0.11,0,0.17c0,0.05,0,0.1,0,0.15c-0.02,0.05-0.04,0.1-0.06,0.15l-3.33,6.13L96.41,51.29z"/>
		<path class="st1" d="M85.72,51.85c0.12-0.02,0.23-0.02,0.35,0c0.08,0.03,0.16,0.08,0.21,0.15c0.05,0.07,0.07,0.15,0.07,0.24
			c0.02,0.11,0.02,0.23,0,0.34l-0.82,3.47c0,0.11-0.06,0.2-0.09,0.28c-0.03,0.07-0.08,0.14-0.14,0.19c-0.05,0.06-0.12,0.1-0.19,0.13
			l-0.28,0.05l-0.78,0.06c-0.07,0.01-0.14,0.01-0.21,0c-0.05-0.01-0.09-0.03-0.12-0.06c-0.05-0.01-0.1-0.03-0.14-0.07
			c-0.01-0.07-0.01-0.15,0-0.22l0.18-3.59c-0.01-0.13-0.01-0.25,0-0.38c0.02-0.09,0.06-0.18,0.12-0.25c0.05-0.07,0.12-0.13,0.2-0.16
			c0.1-0.03,0.2-0.05,0.31-0.06L85.72,51.85z"/>
		<path class="st1" d="M81.67,60.25c0.7-0.08,1.4-0.08,2.1,0c0.57,0.06,1.13,0.21,1.66,0.44c0.48,0.22,0.91,0.53,1.28,0.9
			c0.4,0.4,0.74,0.85,1,1.35c0.07,0.14,0.12,0.28,0.16,0.43c0.05,0.24-0.03,0.48-0.21,0.65c-0.11,0.1-0.23,0.19-0.37,0.26l-2,1.21
			l-0.14,0.08l-0.12,0.06h-0.11h-0.1c-0.06,0.01-0.12,0.01-0.18,0c-0.06-0.02-0.12-0.05-0.16-0.1c-0.07-0.05-0.12-0.11-0.17-0.18
			c-0.06-0.09-0.12-0.18-0.17-0.27c-0.11-0.19-0.24-0.37-0.4-0.52c-0.15-0.14-0.32-0.25-0.51-0.32c-0.19-0.08-0.39-0.13-0.6-0.15
			c-0.23-0.03-0.46-0.03-0.69,0c-0.31,0.03-0.62,0.09-0.92,0.17c-0.22,0.06-0.42,0.15-0.61,0.28c-0.14,0.11-0.26,0.26-0.33,0.42
			c-0.07,0.17-0.1,0.36-0.08,0.55c0.01,0.23,0.1,0.44,0.26,0.6c0.18,0.16,0.39,0.27,0.62,0.33c0.3,0.08,0.6,0.13,0.9,0.15
			c0.33,0,0.69,0,1.07,0c0.64,0.02,1.28,0.08,1.92,0.18c0.64,0.1,1.26,0.31,1.83,0.62c0.59,0.33,1.07,0.82,1.4,1.41
			c0.42,0.79,0.65,1.66,0.67,2.55c0.05,0.78-0.07,1.56-0.35,2.29c-0.27,0.69-0.69,1.3-1.23,1.81c-0.59,0.54-1.26,0.98-2,1.28
			c-0.82,0.34-1.67,0.57-2.55,0.69c-0.72,0.1-1.45,0.13-2.18,0.07c-0.63-0.05-1.25-0.19-1.84-0.44c-0.54-0.24-1.03-0.58-1.44-1
			c-0.43-0.43-0.77-0.94-1-1.5c-0.07-0.14-0.12-0.29-0.13-0.45c-0.03-0.12-0.03-0.24,0-0.36c0.04-0.12,0.12-0.22,0.21-0.3
			c0.12-0.1,0.24-0.19,0.38-0.26l2-1l0.15-0.07l0.13-0.06h0.13h0.12c0.07-0.02,0.14-0.02,0.21,0c0.07,0.02,0.13,0.05,0.19,0.09
			c0.07,0.05,0.13,0.11,0.18,0.18c0.07,0.08,0.13,0.17,0.18,0.27c0.11,0.19,0.24,0.36,0.4,0.5c0.17,0.14,0.35,0.24,0.55,0.32
			c0.23,0.08,0.46,0.12,0.7,0.14c0.27,0.02,0.55,0.02,0.82,0c0.32-0.04,0.63-0.11,0.94-0.19c0.24-0.07,0.47-0.17,0.69-0.3
			c0.17-0.12,0.31-0.28,0.41-0.46c0.1-0.2,0.13-0.42,0.11-0.64c0-0.2-0.08-0.4-0.22-0.55c-0.15-0.15-0.33-0.25-0.53-0.31
			c-0.26-0.08-0.53-0.14-0.8-0.16c-0.3,0-0.63,0-1-0.06c-0.62,0-1.31,0-2-0.13c-0.69-0.08-1.37-0.27-2-0.56
			c-0.66-0.31-1.21-0.79-1.6-1.4c-0.47-0.82-0.73-1.74-0.76-2.68c-0.05-0.75,0.04-1.49,0.29-2.2c0.24-0.68,0.63-1.29,1.14-1.79
			c0.56-0.55,1.21-0.99,1.94-1.28C79.79,60.5,80.73,60.3,81.67,60.25z"/>
		<path class="st1" d="M81.58,43.86c0.1-0.01,0.19-0.01,0.29,0c0.07,0.02,0.14,0.06,0.19,0.11c0.06,0.06,0.1,0.12,0.12,0.2
			c0.03,0.1,0.04,0.21,0.05,0.31l0.08,1.41c0.02,0.11,0.02,0.21,0,0.32c-0.02,0.08-0.05,0.15-0.09,0.22
			c-0.05,0.06-0.11,0.1-0.18,0.12c-0.09,0.03-0.18,0.05-0.28,0.05l-3.78,0.21l0.09,1.41l3-0.18c0.1-0.01,0.2-0.01,0.3,0
			c0.07,0.01,0.14,0.05,0.19,0.1c0.05,0.06,0.09,0.13,0.12,0.2c0.03,0.1,0.05,0.21,0.05,0.31l0.08,1.42c0.02,0.11,0.02,0.21,0,0.32
			c0,0.08-0.04,0.15-0.09,0.21c-0.04,0.06-0.11,0.11-0.18,0.13c-0.1,0.01-0.19,0.01-0.29,0l-3,0.2l0.09,1.51l3.89-0.26
			c0.09-0.02,0.19-0.02,0.28,0c0.15,0.03,0.26,0.14,0.3,0.29c0.02,0.1,0.04,0.21,0.05,0.31l0.08,1.43c0.02,0.1,0.02,0.21,0,0.31
			c-0.01,0.08-0.04,0.15-0.09,0.21c-0.05,0.06-0.1,0.1-0.17,0.13l-0.28,0.05l-6.12,0.47c-0.1,0.02-0.19,0.02-0.29,0
			c-0.08-0.01-0.15-0.05-0.2-0.1c-0.06-0.05-0.1-0.12-0.12-0.19c-0.01-0.11-0.01-0.21,0-0.32l-0.62-10c-0.02-0.11-0.02-0.21,0-0.32
			c0.01-0.08,0.04-0.15,0.09-0.21c0.05-0.06,0.12-0.1,0.19-0.13c0.1-0.01,0.19-0.01,0.29,0L81.58,43.86z"/>
		<path class="st1" d="M72.8,44.27c0.09-0.01,0.19-0.01,0.28,0c0.07,0.02,0.14,0.05,0.19,0.1c0.05,0.06,0.08,0.12,0.11,0.19
			c0.02,0.1,0.04,0.2,0.05,0.3l0.63,10.12c0.02,0.1,0.02,0.2,0,0.3c-0.01,0.08-0.04,0.15-0.09,0.21c-0.05,0.05-0.1,0.09-0.17,0.12
			c-0.09,0.01-0.18,0.01-0.27,0l-1.75,0.13c-0.1,0.02-0.19,0.02-0.29,0c-0.07-0.01-0.14-0.04-0.19-0.09
			c-0.05-0.06-0.08-0.12-0.11-0.19c-0.01-0.1-0.01-0.2,0-0.3l-0.65-10.19c-0.01-0.1-0.01-0.21,0-0.31c0.02-0.07,0.05-0.14,0.09-0.2
			c0.05-0.06,0.11-0.1,0.18-0.12c0.09-0.03,0.18-0.05,0.28-0.05L72.8,44.27z"/>
		<path class="st1" d="M73.01,61.39c0.15-0.02,0.3-0.02,0.45,0c0.11,0.03,0.21,0.08,0.3,0.15c0.08,0.08,0.15,0.18,0.19,0.29
			c0.05,0.15,0.07,0.31,0.08,0.47l0.13,2.14c0.02,0.16,0.02,0.33,0,0.49c-0.02,0.12-0.06,0.24-0.14,0.34
			c-0.08,0.09-0.17,0.16-0.28,0.2c-0.14,0.05-0.29,0.09-0.44,0.1l-5.92,0.6l0.14,2.15l4.74-0.51c0.15-0.03,0.3-0.03,0.45,0
			c0.11,0.02,0.22,0.07,0.31,0.14c0.08,0.08,0.15,0.18,0.18,0.29c0.05,0.15,0.07,0.3,0.08,0.46l0.13,2.15
			c0.02,0.16,0.02,0.33,0,0.49c-0.02,0.12-0.07,0.24-0.15,0.34c-0.07,0.09-0.17,0.17-0.28,0.21c-0.14,0.05-0.29,0.09-0.44,0.1
			l-4.73,0.56l0.15,2.31l6.08-0.75c0.15-0.02,0.29-0.02,0.44,0c0.11,0.01,0.21,0.06,0.29,0.13c0.09,0.07,0.15,0.17,0.18,0.28
			c0.05,0.15,0.07,0.31,0.08,0.47l0.13,2.15c0.02,0.16,0.02,0.31,0,0.47c-0.01,0.12-0.06,0.23-0.13,0.33
			c-0.07,0.09-0.17,0.17-0.28,0.21c-0.14,0.05-0.28,0.09-0.42,0.11l-9.61,1.29c-0.16,0.02-0.31,0.02-0.47,0
			c-0.12-0.01-0.23-0.06-0.32-0.13c-0.09-0.08-0.16-0.18-0.19-0.3c-0.05-0.15-0.07-0.31-0.08-0.47l-1-15.3
			c-0.02-0.16-0.02-0.33,0-0.49c0.02-0.12,0.07-0.24,0.15-0.34c0.08-0.09,0.19-0.16,0.3-0.2c0.15-0.05,0.3-0.09,0.46-0.1
			L73.01,61.39z"/>
		<path class="st1" d="M68.3,44.48c0.1-0.01,0.2-0.01,0.3,0c0.08,0.02,0.14,0.06,0.2,0.11c0.06,0.05,0.1,0.13,0.12,0.21
			c0.03,0.1,0.05,0.21,0.06,0.32l0.65,10.15c0.02,0.11,0.02,0.21,0,0.32c-0.01,0.08-0.05,0.16-0.1,0.22
			c-0.04,0.06-0.11,0.11-0.18,0.13c-0.1,0.03-0.2,0.05-0.3,0.06l-1.7,0.13h-0.22h-0.17c-0.05-0.02-0.1-0.05-0.14-0.09
			c-0.04-0.04-0.09-0.09-0.12-0.14l-2.63-3.71c-0.19-0.28-0.35-0.53-0.49-0.78s-0.27-0.49-0.39-0.74s-0.23-0.52-0.34-0.82
			s-0.24-0.61-0.37-1h-0.12c0.11,0.39,0.21,0.74,0.29,1.07s0.16,0.63,0.23,1s0.11,0.64,0.16,1s0.08,0.75,0.12,1.21l0.17,2.67
			c0.02,0.11,0.02,0.22,0,0.33c-0.01,0.08-0.05,0.16-0.1,0.22c-0.05,0.06-0.12,0.1-0.19,0.13c-0.1,0.04-0.21,0.06-0.32,0.06
			l-1.58,0.12c-0.1,0.02-0.21,0.02-0.31,0c-0.08-0.01-0.16-0.05-0.22-0.1c-0.06-0.06-0.11-0.13-0.13-0.21
			c-0.02-0.11-0.02-0.21,0-0.32l-0.78-10.4c-0.01-0.11-0.01-0.22,0-0.33c0.02-0.08,0.05-0.15,0.1-0.22
			c0.06-0.06,0.13-0.11,0.21-0.13c0.1-0.03,0.2-0.05,0.31-0.06l1.86-0.08h0.23h0.18c0.05,0.03,0.1,0.06,0.14,0.1
			c0.05,0.04,0.09,0.09,0.13,0.15l2.8,4.08c0.19,0.28,0.34,0.52,0.47,0.75c0.13,0.21,0.24,0.43,0.34,0.66l0.31,0.69
			c0.1,0.25,0.22,0.51,0.36,0.82h0.13c-0.15-0.42-0.28-0.78-0.39-1.11s-0.2-0.63-0.27-0.93c-0.08-0.31-0.14-0.62-0.19-0.94
			c0-0.34-0.08-0.7-0.11-1.11l-0.17-2.7c-0.02-0.11-0.02-0.21,0-0.32c0.02-0.08,0.05-0.15,0.09-0.22c0.05-0.06,0.12-0.1,0.19-0.13
			c0.1-0.01,0.21-0.01,0.31,0L68.3,44.48z"/>
		<path class="st1" d="M59.19,62.63c0.15-0.02,0.3-0.02,0.45,0c0.11,0.02,0.22,0.07,0.31,0.14c0.08,0.08,0.14,0.18,0.18,0.29
			c0.04,0.15,0.07,0.31,0.07,0.47l1.06,15.49c0.02,0.16,0.02,0.31,0,0.47c-0.02,0.12-0.06,0.23-0.13,0.32
			c-0.08,0.09-0.17,0.16-0.28,0.21c-0.14,0.05-0.29,0.09-0.44,0.1l-2.79,0.38c-0.15,0.02-0.31,0.02-0.46,0
			c-0.11-0.01-0.21-0.06-0.3-0.13c-0.09-0.07-0.15-0.17-0.18-0.28c-0.05-0.15-0.09-0.3-0.1-0.46l-1.09-15.67
			c-0.02-0.16-0.02-0.32,0-0.48c0.02-0.12,0.07-0.23,0.14-0.32c0.08-0.09,0.18-0.16,0.29-0.2c0.15-0.05,0.3-0.08,0.45-0.09
			L59.19,62.63z"/>
		<path class="st1" d="M57.47,44.96c0.1-0.02,0.21-0.02,0.31,0c0.08,0.02,0.15,0.05,0.21,0.11c0.06,0.06,0.1,0.13,0.12,0.21
			c0.03,0.11,0.05,0.22,0.06,0.33l0.48,7.05c0.05,0.62,0,1.25-0.15,1.85c-0.14,0.53-0.39,1.01-0.74,1.43
			c-0.36,0.43-0.81,0.77-1.32,1c-0.6,0.26-1.25,0.41-1.9,0.44c-0.51,0.05-1.03,0.03-1.53-0.07c-0.44-0.08-0.86-0.24-1.25-0.46
			c-0.38-0.22-0.71-0.5-1-0.83c-0.28-0.36-0.52-0.75-0.7-1.17c-0.05-0.1-0.08-0.21-0.1-0.32c-0.03-0.08-0.03-0.17,0-0.25
			c0.03-0.08,0.09-0.15,0.16-0.2c0.09-0.07,0.18-0.13,0.28-0.18l1.67-0.74l0.1-0.05h0.1h0.09h0.09h0.16
			c0.05,0.02,0.11,0.04,0.15,0.08c0.05,0.04,0.09,0.09,0.13,0.15c0.04,0.07,0.08,0.14,0.12,0.21c0.07,0.15,0.16,0.3,0.25,0.44
			c0.08,0.11,0.19,0.22,0.3,0.3c0.1,0.08,0.22,0.14,0.35,0.18c0.15,0.02,0.29,0.02,0.44,0c0.18-0.01,0.36-0.05,0.52-0.12
			c0.14-0.07,0.26-0.17,0.35-0.3c0.09-0.14,0.16-0.3,0.19-0.46c0.02-0.22,0.02-0.43,0-0.65l-0.5-7.12c-0.01-0.11-0.01-0.22,0-0.33
			c0.01-0.08,0.05-0.16,0.1-0.22c0.05-0.06,0.12-0.11,0.2-0.14c0.11-0.02,0.21-0.02,0.32,0L57.47,44.96z"/>
		<path class="st1" d="M50.13,56.76c0.05,0.09,0.08,0.2,0.09,0.3c0.02,0.07,0.02,0.15,0,0.22c-0.04,0.06-0.1,0.12-0.17,0.15
			c-0.1,0.03-0.2,0.05-0.3,0.06l-1.8,0.14c-0.18,0.01-0.37,0.01-0.55,0c-0.13-0.01-0.25-0.05-0.37-0.1
			c-0.09-0.05-0.18-0.12-0.24-0.2c-0.07-0.1-0.12-0.21-0.15-0.33l-0.48-1.2l-3.69,0.26l-0.29,1.27c-0.03,0.12-0.07,0.24-0.13,0.35
			c-0.05,0.09-0.12,0.18-0.2,0.24c-0.1,0.08-0.22,0.13-0.35,0.15c-0.17,0.05-0.35,0.07-0.53,0.08l-1.82,0.14
			c-0.11,0.02-0.22,0.02-0.33,0c-0.08-0.01-0.15-0.06-0.19-0.12c-0.04-0.07-0.06-0.14-0.06-0.22c-0.02-0.11-0.02-0.21,0-0.32
			l3.17-11.28c0.03-0.11,0.07-0.22,0.12-0.32c0.04-0.08,0.1-0.14,0.17-0.2c0.07-0.05,0.15-0.08,0.24-0.1h0.33l1.98-0.1h0.33
			c0.09,0.02,0.17,0.04,0.25,0.08c0.07,0.05,0.14,0.1,0.19,0.17c0.07,0.08,0.12,0.17,0.16,0.27L50.13,56.76z M43.03,53.3l2.13-0.14
			l-0.77-2c-0.11-0.28-0.2-0.57-0.27-0.86c-0.07-0.27-0.13-0.53-0.17-0.75c-0.04-0.18-0.07-0.36-0.09-0.55c0-0.14,0-0.22,0-0.24
			H43.7c0,0,0,0.1,0,0.24s0,0.33,0,0.55s0,0.48-0.05,0.76c-0.03,0.29-0.07,0.58-0.13,0.87l-0.48,2.08"/>
		<path class="st1" d="M53.22,63.19c0.15-0.03,0.3-0.03,0.45,0c0.1,0.02,0.19,0.08,0.25,0.17c0.05,0.09,0.08,0.2,0.07,0.31
			c0.02,0.16,0.02,0.31,0,0.47L51.18,80.5c-0.02,0.16-0.06,0.32-0.13,0.47c-0.06,0.11-0.14,0.21-0.24,0.3
			c-0.11,0.07-0.23,0.13-0.35,0.17c-0.15,0.05-0.31,0.09-0.47,0.1l-2.9,0.39c-0.17,0.02-0.33,0.02-0.5,0
			c-0.13,0-0.27-0.03-0.39-0.08c-0.11-0.05-0.21-0.12-0.29-0.22c-0.1-0.11-0.16-0.24-0.2-0.38l-1.81-5.78
			c-0.11-0.39-0.21-0.78-0.3-1.17c-0.09-0.38-0.16-0.77-0.23-1.15s-0.12-0.76-0.17-1.13s-0.09-0.74-0.12-1.11h-0.21
			c0,0.37,0,0.74,0,1.12s0,0.75,0,1.14s0,0.78-0.08,1.18s-0.08,0.82-0.14,1.25l-0.91,6.1c-0.03,0.17-0.09,0.33-0.17,0.48
			c-0.06,0.12-0.15,0.23-0.26,0.31c-0.11,0.08-0.24,0.14-0.37,0.18c-0.16,0.05-0.32,0.08-0.49,0.1l-3,0.4
			c-0.17,0.01-0.34,0.01-0.51,0c-0.14,0-0.28-0.02-0.41-0.07c-0.12-0.05-0.22-0.12-0.31-0.22c-0.09-0.12-0.16-0.26-0.2-0.41
			l-5.54-16.22c-0.06-0.15-0.1-0.31-0.13-0.47c-0.04-0.11-0.04-0.24,0-0.35c0.05-0.1,0.14-0.18,0.24-0.22
			c0.16-0.07,0.33-0.1,0.5-0.11l3.31-0.3c0.2-0.01,0.4-0.01,0.6,0c0.15,0,0.3,0.04,0.44,0.1c0.13,0.06,0.23,0.15,0.31,0.27
			c0.1,0.15,0.17,0.31,0.21,0.48l1.69,6.72c0.08,0.33,0.16,0.74,0.24,1.17s0.16,0.89,0.22,1.33s0.12,0.86,0.17,1.22
			s0.07,0.65,0.08,0.83h0.18c0-0.2,0-0.49,0-0.85s0-0.79,0-1.23s0-0.9,0-1.34s0.07-0.87,0.12-1.22l1.1-7
			c0.02-0.18,0.07-0.36,0.16-0.52c0.06-0.12,0.16-0.23,0.27-0.31c0.12-0.08,0.26-0.14,0.41-0.17c0.18-0.04,0.36-0.07,0.54-0.09
			l2.79-0.25c0.18-0.01,0.35-0.01,0.53,0c0.15,0,0.29,0.04,0.42,0.1c0.13,0.06,0.24,0.15,0.32,0.26c0.1,0.14,0.18,0.3,0.23,0.47
			l2,6.53c0.11,0.35,0.2,0.76,0.29,1.18s0.17,0.86,0.24,1.28s0.13,0.82,0.18,1.16s0.08,0.62,0.1,0.81h0.19c0-0.18,0-0.47,0-0.81
			s0-0.76,0-1.19s0-0.89,0-1.32s0-0.85,0.06-1.21l0.56-6.75c0.02-0.17,0.07-0.34,0.13-0.5c0.06-0.12,0.14-0.23,0.25-0.31
			c0.12-0.08,0.26-0.14,0.4-0.17c0.19-0.04,0.38-0.07,0.57-0.09L53.22,63.19z"/>
		<path class="st1" d="M37.73,45.91c0.12-0.01,0.24-0.01,0.36,0c0.09,0.02,0.17,0.06,0.24,0.12c0.07,0.06,0.12,0.13,0.15,0.22
			c0.05,0.12,0.08,0.25,0.1,0.38l0.12,1.57c0.02,0.12,0.02,0.25,0,0.37c-0.02,0.09-0.05,0.17-0.11,0.24
			c-0.06,0.06-0.14,0.11-0.22,0.14c-0.11,0.03-0.23,0.05-0.35,0.06l-4.69,0.25l0.16,2l3.75-0.22c0.12-0.01,0.24-0.01,0.36,0
			c0.09,0.02,0.17,0.06,0.24,0.11c0.06,0.06,0.11,0.14,0.14,0.22c0.04,0.11,0.07,0.23,0.07,0.35l0.12,1.56
			c0.02,0.12,0.02,0.25,0,0.37c-0.01,0.09-0.05,0.17-0.11,0.24c-0.06,0.07-0.13,0.12-0.22,0.14c-0.11,0.04-0.23,0.06-0.35,0.06
			l-3.74,0.25l0.27,3.56c0.02,0.12,0.02,0.23,0,0.35c-0.01,0.09-0.05,0.17-0.11,0.24c-0.06,0.07-0.13,0.12-0.22,0.14
			c-0.11,0.04-0.23,0.06-0.35,0.07l-2,0.15c-0.12,0.02-0.25,0.02-0.37,0c-0.09-0.01-0.18-0.05-0.25-0.11
			c-0.07-0.06-0.12-0.14-0.15-0.22c-0.03-0.11-0.05-0.23-0.06-0.35l-0.88-11.16c-0.02-0.12-0.02-0.23,0-0.35
			c0.02-0.09,0.06-0.17,0.12-0.24c0.06-0.07,0.14-0.12,0.23-0.14c0.12-0.03,0.24-0.05,0.36-0.06L37.73,45.91z"/>
	</g>
	<path class="st0" d="M105.78,96.86c-0.56,0-1.06-0.34-1.28-0.85l-1.83-4.38c-0.4-0.66-0.19-1.52,0.47-1.92s1.52-0.19,1.92,0.47
		c0.08,0.14,0.14,0.29,0.18,0.45l1.83,4.34c0.3,0.71-0.04,1.53-0.75,1.83C106.15,96.85,105.96,96.87,105.78,96.86z"/>
	<path class="st0" d="M102.7,95.63c-0.56,0-1.07-0.34-1.29-0.86c-0.3-0.71,0.04-1.52,0.75-1.82c0,0,0,0,0,0l4.34-1.83
		c0.75-0.17,1.49,0.3,1.66,1.05c0.13,0.56-0.11,1.14-0.58,1.46l-4.34,1.83C103.07,95.55,102.89,95.61,102.7,95.63z"/>
	<path class="st2" d="M104.87,35.5c-2.92,0.01-5.29-2.36-5.3-5.28c-0.01-2.92,2.36-5.29,5.28-5.3c2.92-0.01,5.29,2.36,5.3,5.28
		c0,0.01,0,0.01,0,0.02C110.15,33.13,107.78,35.5,104.87,35.5z M104.87,27.72c-1.38-0.01-2.5,1.11-2.51,2.49
		c-0.01,1.38,1.11,2.5,2.49,2.51s2.5-1.11,2.51-2.49c0,0,0-0.01,0-0.01C107.36,28.84,106.25,27.73,104.87,27.72z"/>
	<path class="st2" d="M14.26,65.9c-0.44,0-0.87-0.09-1.27-0.28c-1.01-0.44-1.7-1.39-1.8-2.49l-0.59-6
		c-0.17-1.68,1.05-3.18,2.73-3.36c0.54-0.06,1.09,0.03,1.58,0.26l5.46,2.46c1.01,0.44,1.69,1.39,1.79,2.49
		c0.13,1.09-0.36,2.17-1.26,2.8l-4.86,3.5C15.53,65.67,14.9,65.88,14.26,65.9z M13.37,56.9l0.6,6c0.01,0.1,0.07,0.19,0.16,0.23
		c0.09,0.05,0.19,0.05,0.28,0l4.86-3.5c0.09-0.05,0.13-0.15,0.12-0.25c-0.01-0.1-0.07-0.19-0.16-0.23l-5.47-2.52
		c-0.08-0.05-0.19-0.05-0.27,0c-0.08,0.05-0.13,0.15-0.12,0.25L13.37,56.9z"/>
</g>
</svg>
