<?xml version="1.0" encoding="UTF-8" standalone="no"?>
<!-- Generator: Adobe Illustrator 21.1.0, SVG Export Plug-In . SVG Version: 6.00 Build 0)  -->

<svg
   xmlns:dc="http://purl.org/dc/elements/1.1/"
   xmlns:cc="http://creativecommons.org/ns#"
   xmlns:rdf="http://www.w3.org/1999/02/22-rdf-syntax-ns#"
   xmlns:svg="http://www.w3.org/2000/svg"
   xmlns="http://www.w3.org/2000/svg"
   xmlns:xlink="http://www.w3.org/1999/xlink"
   xmlns:sodipodi="http://sodipodi.sourceforge.net/DTD/sodipodi-0.dtd"
   xmlns:inkscape="http://www.inkscape.org/namespaces/inkscape"
   version="1.1"
   id="Layer_1"
   x="0px"
   y="0px"
   viewBox="0 0 400 400"
   xml:space="preserve"
   inkscape:version="0.91 r13725"
   sodipodi:docname="fzw_logo.svg"
   width="400"
   height="400"><metadata
     id="metadata493"><rdf:RDF><cc:Work
         rdf:about=""><dc:format>image/svg+xml</dc:format><dc:type
           rdf:resource="http://purl.org/dc/dcmitype/StillImage" /><dc:title></dc:title></cc:Work></rdf:RDF></metadata><defs
     id="defs491" /><sodipodi:namedview
     pagecolor="#ffffff"
     bordercolor="#666666"
     borderopacity="1"
     objecttolerance="10"
     gridtolerance="10"
     guidetolerance="10"
     inkscape:pageopacity="0"
     inkscape:pageshadow="2"
     inkscape:window-width="1460"
     inkscape:window-height="812"
     id="namedview489"
     showgrid="false"
     inkscape:zoom="0.472"
     inkscape:cx="258.47458"
     inkscape:cy="504.23729"
     inkscape:window-x="0"
     inkscape:window-y="33"
     inkscape:window-maximized="0"
     inkscape:current-layer="Layer_1" /><style
     type="text/css"
     id="style3">
	.st0{fill:#0A264F;}
	.st1{fill:#F2F2F2;}
	.st2{fill:none;stroke:#CCCCCC;stroke-miterlimit:10;}
	.st3{fill:#4D4D4D;}
	.st4{fill:#B3B3B3;}
	.st5{fill:#666666;}
	.st6{fill:#808080;}
	.st7{fill:#999999;}
	.st8{fill:none;stroke:#FFFFFF;stroke-width:8;stroke-miterlimit:10;}
	.st9{fill:none;stroke:#B3B3B3;stroke-width:6;stroke-miterlimit:10;}
	.st10{fill:#E6E6E6;stroke:#B3B3B3;stroke-width:5;stroke-miterlimit:10;}
	.st11{clip-path:url(#SVGID_2_);}
	.st12{fill:#EF420C;}
	.st13{fill:#FFFFFF;}
</style><rect
     x="-1214.2"
     y="563.09998"
     class="st0"
     width="509"
     height="509"
     id="rect5"
     style="fill:#0a264f" /><rect
     x="-2475.2"
     y="440.5"
     class="st1"
     width="1078"
     height="227"
     id="rect7"
     style="fill:#f2f2f2" /><circle
     class="st2"
     cx="-2361.2"
     cy="330.5"
     r="83"
     id="circle9"
     style="fill:none;stroke:#cccccc;stroke-miterlimit:10" /><circle
     class="st2"
     cx="-2130.2"
     cy="330.5"
     r="83"
     id="circle11"
     style="fill:none;stroke:#cccccc;stroke-miterlimit:10" /><circle
     class="st2"
     cx="-1904.2"
     cy="330.5"
     r="83"
     id="circle13"
     style="fill:none;stroke:#cccccc;stroke-miterlimit:10" /><text
     class="st3"
     style="font-size:72.38220215px;font-family:SegoeUI-Bold;fill:#4d4d4d"
     id="text15"
     x="-2633.8755"
     y="90.142113">5</text>
<path
     class="st3"
     d="m -2612.2,-11.8 c 35,0 64.8,22.8 75.3,54.4 l 7.8,-2.5 c -11.5,-34.9 -44.4,-60.1 -83.1,-60.1 -0.1,0 -0.3,0 -0.4,0 l 0,8.2 c 0.1,0 0.2,0 0.4,0 z"
     id="path17"
     inkscape:connector-curvature="0"
     style="fill:#4d4d4d" /><path
     class="st4"
     d="m -2612.6,-11.8 0,-8.2 c -38.9,0.2 -71.7,25.7 -82.9,60.8 l 7.8,2.5 c 10.1,-31.8 39.9,-54.9 75.1,-55.1 z"
     id="path19"
     inkscape:connector-curvature="0"
     style="fill:#b3b3b3" /><path
     class="st5"
     d="m -2537,42.6 c 2.6,7.8 4,16.2 4,24.9 0,26.2 -12.8,49.4 -32.4,63.9 l 4.8,6.7 c 21.7,-15.9 35.7,-41.6 35.7,-70.5 0,-9.6 -1.5,-18.8 -4.4,-27.4 l -7.7,2.4 z"
     id="path21"
     inkscape:connector-curvature="0"
     style="fill:#666666" /><path
     class="st6"
     d="m -2612.2,146.8 c -17.2,0 -33.2,-5.5 -46.3,-14.9 l -4.8,6.7 c 14.4,10.4 32,16.5 51.1,16.5 19.4,0 37.3,-6.3 51.8,-17 l -4.8,-6.7 c -13.3,9.7 -29.5,15.4 -47,15.4 z"
     id="path23"
     inkscape:connector-curvature="0"
     style="fill:#808080" /><path
     class="st7"
     d="m -2691.5,67.5 c 0,-8.4 1.3,-16.5 3.8,-24.1 l -7.8,-2.5 c -2.7,8.4 -4.1,17.4 -4.1,26.7 0,29.2 14.4,55.1 36.4,71 l 4.8,-6.7 c -20.1,-14.5 -33.1,-37.9 -33.1,-64.4 z"
     id="path25"
     inkscape:connector-curvature="0"
     style="fill:#999999" /><text
     class="st5"
     style="font-size:72.38220215px;font-family:SegoeUI-Bold;fill:#666666"
     id="text27"
     x="-2378.3589"
     y="90.142113">4</text>
<path
     class="st4"
     d="m -2357.1,-11.8 0,-8.2 c -38.9,0.2 -71.7,25.7 -82.9,60.8 l 7.8,2.5 c 10.1,-31.8 39.9,-54.9 75.1,-55.1 z"
     id="path29"
     inkscape:connector-curvature="0"
     style="fill:#b3b3b3" /><path
     class="st5"
     d="m -2281.4,42.6 c 2.6,7.8 4,16.2 4,24.9 0,26.2 -12.8,49.4 -32.4,63.9 l 4.8,6.7 c 21.7,-15.9 35.7,-41.6 35.7,-70.5 0,-9.6 -1.5,-18.8 -4.4,-27.4 l -7.7,2.4 z"
     id="path31"
     inkscape:connector-curvature="0"
     style="fill:#666666" /><path
     class="st6"
     d="m -2356.7,146.8 c -17.2,0 -33.2,-5.5 -46.3,-14.9 l -4.8,6.7 c 14.4,10.4 32,16.5 51.1,16.5 19.4,0 37.3,-6.3 51.8,-17 l -4.8,-6.7 c -13.3,9.7 -29.5,15.4 -47,15.4 z"
     id="path33"
     inkscape:connector-curvature="0"
     style="fill:#808080" /><path
     class="st7"
     d="m -2436,67.5 c 0,-8.4 1.3,-16.5 3.8,-24.1 l -7.8,-2.5 c -2.7,8.4 -4.1,17.4 -4.1,26.7 0,29.2 14.4,55.1 36.4,71 l 4.8,-6.7 C -2423,117.4 -2436,94 -2436,67.5 Z"
     id="path35"
     inkscape:connector-curvature="0"
     style="fill:#999999" /><text
     class="st6"
     style="font-size:72.38220215px;font-family:SegoeUI-Bold;fill:#808080"
     id="text37"
     x="-2155.7065"
     y="90.142113">3</text>
<path
     class="st4"
     d="m -2134.5,-11.8 0,-8.2 c -38.9,0.2 -71.7,25.7 -82.9,60.8 l 7.8,2.5 c 10.2,-31.8 40,-54.9 75.1,-55.1 z"
     id="path39"
     inkscape:connector-curvature="0"
     style="fill:#b3b3b3" /><path
     class="st6"
     d="m -2134.1,146.8 c -17.2,0 -33.2,-5.5 -46.3,-14.9 l -4.8,6.7 c 14.4,10.4 32,16.5 51.1,16.5 19.4,0 37.3,-6.3 51.8,-17 l -4.8,-6.7 c -13.2,9.7 -29.4,15.4 -47,15.4 z"
     id="path41"
     inkscape:connector-curvature="0"
     style="fill:#808080" /><path
     class="st7"
     d="m -2213.4,67.5 c 0,-8.4 1.3,-16.5 3.8,-24.1 l -7.8,-2.5 c -2.7,8.4 -4.1,17.4 -4.1,26.7 0,29.2 14.4,55.1 36.4,71 l 4.8,-6.7 c -20,-14.5 -33.1,-37.9 -33.1,-64.4 z"
     id="path43"
     inkscape:connector-curvature="0"
     style="fill:#999999" /><text
     class="st7"
     style="font-size:72.38220215px;font-family:SegoeUI-Bold;fill:#999999"
     id="text45"
     x="-1923.1945"
     y="90.142113">2</text>
<path
     class="st4"
     d="m -1902,-11.8 0,-8.2 c -38.9,0.2 -71.7,25.7 -82.9,60.8 l 7.8,2.5 c 10.2,-31.8 40,-54.9 75.1,-55.1 z"
     id="path47"
     inkscape:connector-curvature="0"
     style="fill:#b3b3b3" /><path
     class="st7"
     d="m -1980.8,67.5 c 0,-8.4 1.3,-16.5 3.8,-24.1 l -7.8,-2.5 c -2.7,8.4 -4.1,17.4 -4.1,26.7 0,29.2 14.4,55.1 36.4,71 l 4.8,-6.7 c -20.1,-14.5 -33.1,-37.9 -33.1,-64.4 z"
     id="path49"
     inkscape:connector-curvature="0"
     style="fill:#999999" /><text
     class="st4"
     style="font-size:72.38220215px;font-family:SegoeUI-Bold;fill:#b3b3b3"
     id="text51"
     x="-1700.5421"
     y="90.142113">1</text>
<path
     class="st4"
     d="m -1679.3,-11.8 0,-8.2 c -38.9,0.2 -71.7,25.7 -82.9,60.8 l 7.8,2.5 c 10.2,-31.8 39.9,-54.9 75.1,-55.1 z"
     id="path53"
     inkscape:connector-curvature="0"
     style="fill:#b3b3b3" /><text
     style="font-size:72.38220215px;font-family:SegoeUI-Bold;fill:#cccccc"
     id="text55"
     x="-2633.8755"
     y="353.14209">5</text>
<g
     id="g57"
     transform="translate(0,-100)"><circle
       class="st2"
       cx="-1664.2"
       cy="430.5"
       r="83"
       id="circle59"
       style="fill:none;stroke:#cccccc;stroke-miterlimit:10" /><text
       transform="translate(-1685.9646,453.1421)"
       class="st5"
       style="font-size:72.38220215px;font-family:SegoeUI-Bold;fill:#666666"
       id="text61">1</text>
<path
       class="st4"
       d="m -1664.7,351.2 0,-8.2 c -38.9,0.2 -71.7,25.7 -82.9,60.8 l 7.8,2.5 c 10.1,-31.8 39.9,-54.9 75.1,-55.1 z"
       id="path63"
       inkscape:connector-curvature="0"
       style="fill:#b3b3b3" /><path
       class="st5"
       d="m -1589,405.6 c 2.6,7.8 4,16.2 4,24.9 0,26.2 -12.8,49.4 -32.4,63.9 l 4.8,6.7 c 21.7,-15.9 35.7,-41.6 35.7,-70.5 0,-9.6 -1.5,-18.8 -4.4,-27.4 l -7.7,2.4 z"
       id="path65"
       inkscape:connector-curvature="0"
       style="fill:#666666" /><path
       class="st6"
       d="m -1664.3,509.8 c -17.2,0 -33.2,-5.5 -46.3,-14.9 l -4.8,6.7 c 14.4,10.4 32,16.5 51.1,16.5 19.4,0 37.3,-6.3 51.8,-17 l -4.8,-6.7 c -13.3,9.7 -29.5,15.4 -47,15.4 z"
       id="path67"
       inkscape:connector-curvature="0"
       style="fill:#808080" /><path
       class="st7"
       d="m -1743.6,430.5 c 0,-8.4 1.3,-16.5 3.8,-24.1 l -7.8,-2.5 c -2.7,8.4 -4.1,17.4 -4.1,26.7 0,29.2 14.4,55.1 36.4,71 l 4.8,-6.7 c -20.1,-14.5 -33.1,-37.9 -33.1,-64.4 z"
       id="path69"
       inkscape:connector-curvature="0"
       style="fill:#999999" /></g><circle
     class="st8"
     cx="-1793.2"
     cy="555.5"
     r="83"
     id="circle71"
     style="fill:none;stroke:#ffffff;stroke-width:8;stroke-miterlimit:10" /><path
     class="st7"
     d="m -1793.7,476.2 0,-8.2 c -38.9,0.2 -71.7,25.7 -82.9,60.8 l 7.8,2.5 c 10.1,-31.8 39.9,-54.9 75.1,-55.1 z"
     id="path73"
     inkscape:connector-curvature="0"
     style="fill:#999999" /><path
     class="st7"
     d="m -1718,530.6 c 2.6,7.8 4,16.2 4,24.9 0,26.2 -12.8,49.4 -32.4,63.9 l 4.8,6.7 c 21.7,-15.9 35.7,-41.6 35.7,-70.5 0,-9.6 -1.5,-18.8 -4.4,-27.4 l -7.7,2.4 z"
     id="path75"
     inkscape:connector-curvature="0"
     style="fill:#999999" /><path
     class="st7"
     d="m -1793.3,634.8 c -17.2,0 -33.2,-5.5 -46.3,-14.9 l -4.8,6.7 c 14.4,10.4 32,16.5 51.1,16.5 19.4,0 37.3,-6.3 51.8,-17 l -4.8,-6.7 c -13.3,9.7 -29.5,15.4 -47,15.4 z"
     id="path77"
     inkscape:connector-curvature="0"
     style="fill:#999999" /><path
     class="st7"
     d="m -1872.6,555.5 c 0,-8.4 1.3,-16.5 3.8,-24.1 l -7.8,-2.5 c -2.7,8.4 -4.1,17.4 -4.1,26.7 0,29.2 14.4,55.1 36.4,71 l 4.8,-6.7 c -20.1,-14.5 -33.1,-37.9 -33.1,-64.4 z"
     id="path79"
     inkscape:connector-curvature="0"
     style="fill:#999999" /><text
     class="st6"
     style="font-size:72.38220215px;font-family:SegoeUI-Bold;fill:#808080"
     id="text81"
     x="-1924.9648"
     y="353.14209">2</text>
<path
     class="st4"
     d="m -1903.7,251.2 0,-8.2 c -38.9,0.2 -71.7,25.7 -82.9,60.8 l 7.8,2.5 c 10.1,-31.8 39.9,-54.9 75.1,-55.1 z"
     id="path83"
     inkscape:connector-curvature="0"
     style="fill:#b3b3b3" /><path
     class="st6"
     d="m -1903.3,409.8 c -17.2,0 -33.2,-5.5 -46.3,-14.9 l -4.8,6.7 c 14.4,10.4 32,16.5 51.1,16.5 19.4,0 37.3,-6.3 51.8,-17 l -4.8,-6.7 c -13.3,9.7 -29.5,15.4 -47,15.4 z"
     id="path85"
     inkscape:connector-curvature="0"
     style="fill:#808080" /><path
     class="st7"
     d="m -1982.6,330.5 c 0,-8.4 1.3,-16.5 3.8,-24.1 l -7.8,-2.5 c -2.7,8.4 -4.1,17.4 -4.1,26.7 0,29.2 14.4,55.1 36.4,71 l 4.8,-6.7 c -20.1,-14.5 -33.1,-37.9 -33.1,-64.4 z"
     id="path87"
     inkscape:connector-curvature="0"
     style="fill:#999999" /><text
     class="st7"
     style="font-size:72.38220215px;font-family:SegoeUI-Bold;fill:#999999"
     id="text89"
     x="-2151.1943"
     y="353.14209">3</text>
<path
     class="st4"
     d="m -2130,251.2 0,-8.2 c -38.9,0.2 -71.7,25.7 -82.9,60.8 l 7.8,2.5 c 10.2,-31.8 40,-54.9 75.1,-55.1 z"
     id="path91"
     inkscape:connector-curvature="0"
     style="fill:#b3b3b3" /><path
     class="st7"
     d="m -2208.8,330.5 c 0,-8.4 1.3,-16.5 3.8,-24.1 l -7.8,-2.5 c -2.7,8.4 -4.1,17.4 -4.1,26.7 0,29.2 14.4,55.1 36.4,71 l 4.8,-6.7 c -20.1,-14.5 -33.1,-37.9 -33.1,-64.4 z"
     id="path93"
     inkscape:connector-curvature="0"
     style="fill:#999999" /><circle
     class="st8"
     cx="-2303.2"
     cy="555.5"
     r="83"
     id="circle95"
     style="fill:none;stroke:#ffffff;stroke-width:8;stroke-miterlimit:10" /><text
     id="text97"
     x="-2359.1943"
     y="578.14209"><tspan
       x="-2359.1943"
       y="578.14209"
       class="st7"
       style="font-size:72.38220215px;font-family:SegoeUI-Bold;fill:#999999"
       id="tspan99">30</tspan><tspan
       x="-2275.8943"
       y="578.14209"
       class="st7"
       style="font-size:42px;font-family:SegoeUI-Bold;fill:#999999"
       id="tspan101">%</tspan></text>
<text
     id="text103"
     x="-2105.1943"
     y="578.14209"><tspan
       x="-2105.1943"
       y="578.14209"
       class="st7"
       style="font-size:72.38220215px;font-family:SegoeUI-Bold;fill:#999999"
       id="tspan105">20</tspan><tspan
       x="-2021.8943"
       y="578.14209"
       class="st7"
       style="font-size:42px;font-family:SegoeUI-Bold;fill:#999999"
       id="tspan107">%</tspan></text>
<text
     id="text109"
     x="-1851.1945"
     y="578.14209"><tspan
       x="-1851.1945"
       y="578.14209"
       class="st7"
       style="font-size:72.38220215px;font-family:SegoeUI-Bold;fill:#999999"
       id="tspan111">70</tspan><tspan
       x="-1767.8945"
       y="578.14209"
       class="st7"
       style="font-size:42px;font-family:SegoeUI-Bold;fill:#999999"
       id="tspan113">%</tspan></text>
<text
     id="text115"
     x="-1577.1945"
     y="578.14209"><tspan
       x="-1577.1945"
       y="578.14209"
       class="st7"
       style="font-size:72.38220215px;font-family:SegoeUI-Bold;fill:#999999"
       id="tspan117">0</tspan><tspan
       x="-1535.5945"
       y="578.14209"
       class="st7"
       style="font-size:42px;font-family:SegoeUI-Bold;fill:#999999"
       id="tspan119">%</tspan></text>
<path
     class="st7"
     d="m -2303,476.2 0,-8.2 c -38.9,0.2 -71.7,25.7 -82.9,60.8 l 7.8,2.5 c 10.2,-31.8 40,-54.9 75.1,-55.1 z"
     id="path121"
     inkscape:connector-curvature="0"
     style="fill:#999999" /><path
     class="st7"
     d="m -2381.8,555.5 c 0,-8.4 1.3,-16.5 3.8,-24.1 l -7.8,-2.5 c -2.7,8.4 -4.1,17.4 -4.1,26.7 0,29.2 14.4,55.1 36.4,71 l 4.8,-6.7 c -20.1,-14.5 -33.1,-37.9 -33.1,-64.4 z"
     id="path123"
     inkscape:connector-curvature="0"
     style="fill:#999999" /><text
     class="st4"
     style="font-size:72.38220215px;font-family:SegoeUI-Bold;fill:#b3b3b3"
     id="text125"
     x="-2382.9646"
     y="353.14209">4</text>
<path
     class="st4"
     d="m -2361.7,251.2 0,-8.2 c -38.9,0.2 -71.7,25.7 -82.9,60.8 l 7.8,2.5 c 10.1,-31.8 39.9,-54.9 75.1,-55.1 z"
     id="path127"
     inkscape:connector-curvature="0"
     style="fill:#b3b3b3" /><circle
     class="st8"
     cx="-2047.2"
     cy="555.5"
     r="83"
     id="circle129"
     style="fill:none;stroke:#ffffff;stroke-width:8;stroke-miterlimit:10" /><path
     class="st7"
     d="m -2047.7,476.2 0,-8.2 c -38.9,0.2 -71.7,25.7 -82.9,60.8 l 7.8,2.5 c 10.1,-31.8 39.9,-54.9 75.1,-55.1 z"
     id="path131"
     inkscape:connector-curvature="0"
     style="fill:#999999" /><circle
     class="st2"
     cx="-2612.2"
     cy="330.5"
     r="83"
     id="circle133"
     style="fill:none;stroke:#cccccc;stroke-miterlimit:10" /><circle
     class="st8"
     cx="-1539.2"
     cy="555.5"
     r="83"
     id="circle135"
     style="fill:none;stroke:#ffffff;stroke-width:8;stroke-miterlimit:10" /><path
     class="st9"
     d="m -2538.7,557 c 0,42.5 -77,77 -77,77 l 0,0 0,0 c 0,0 -77,-34.5 -77,-77 l 0,-25 0,-102 77,0 77,0 0,102 0,25 z"
     id="path137"
     inkscape:connector-curvature="0"
     style="fill:none;stroke:#b3b3b3;stroke-width:6;stroke-miterlimit:10" /><path
     class="st4"
     d="m -2538.7,517.7 0,39.3 c 0,42.5 -77,77 -77,77 l 0,0 0,0 c 0,0 -77,-34.5 -77,-77 l 0,-39.2"
     id="path139"
     inkscape:connector-curvature="0"
     style="fill:#b3b3b3" /><text
     id="text141"
     x="-2675.7373"
     y="546.92383"><tspan
       x="-2675.7373"
       y="546.92383"
       style="font-size:71.16249847px;font-family:SegoeUI-Bold;fill:#606060"
       id="tspan143">50</tspan><tspan
       x="-2593.8374"
       y="546.92383"
       style="font-size:46.12009811px;font-family:SegoeUI-Bold;fill:#606060"
       id="tspan145">%</tspan></text>
<path
     class="st10"
     d="m -2430.8,775.5 c -47.5,0 -83.9,-13.6 -114.7,-43.5 -30.8,29.9 -67.2,43.5 -114.7,43.5 0,77.9 -16.1,189.6 114.7,234.9 130.8,-45.4 114.7,-157 114.7,-234.9 z"
     id="path147"
     inkscape:connector-curvature="0"
     style="fill:#e6e6e6;stroke:#b3b3b3;stroke-width:5;stroke-miterlimit:10" /><g
     id="g149"
     transform="translate(0,-100)"><path
       class="st4"
       d="m -2650.4,1010 c 13.1,41.4 42,78.6 104.9,100.4 62.9,-21.8 91.9,-59 104.9,-100.4 l -209.8,0 z"
       id="path151"
       inkscape:connector-curvature="0"
       style="fill:#b3b3b3" /></g><g
     id="g153"
     transform="translate(0,-100)"><path
       d="m -2228.7,1074.1 c -10.9,0 -19.9,8.9 -19.9,19.9 0,11 8.9,19.9 19.9,19.9 11,0 19.9,-8.9 19.9,-19.9 -0.1,-11 -9,-19.9 -19.9,-19.9 l 0,0 z m 4.9,20.6 -3.2,0 0,11.5 -4.8,0 0,-11.5 -2.3,0 0,-4.1 2.3,0 0,-2.6 c 0,-1.9 0.9,-4.8 4.8,-4.8 l 3.5,0 0,4 -2.6,0 c -0.4,0 -1,0.2 -1,1.1 l 0,2.4 3.6,0 -0.3,4 z m 0,0"
       id="path155"
       inkscape:connector-curvature="0" /></g><g
     id="g157"
     transform="translate(0,-100)"><path
       d="m -2111.6,1073 -19.3,0 c -6.5,0 -11.9,5.3 -11.9,11.9 l 0,19.3 c 0,6.5 5.3,11.9 11.9,11.9 l 19.3,0 c 6.5,0 11.9,-5.3 11.9,-11.9 l 0,-19.3 c 0,-6.6 -5.4,-11.9 -11.9,-11.9 l 0,0 z m 8,31.1 c 0,4.4 -3.6,8.1 -8.1,8.1 l -19.3,0 c -4.4,0 -8.1,-3.6 -8.1,-8.1 l 0,-19.3 c 0,-4.4 3.6,-8.1 8.1,-8.1 l 19.3,0 c 4.4,0 8.1,3.6 8.1,8.1 l 0,19.3 z m 0,0"
       id="path159"
       inkscape:connector-curvature="0" /><path
       d="m -2121.2,1083.4 c -6.1,0 -11.1,5 -11.1,11.1 0,6.1 5,11.1 11.1,11.1 6.1,0 11.1,-5 11.1,-11.1 -0.1,-6.1 -5,-11.1 -11.1,-11.1 l 0,0 z m 0,18.4 c -4,0 -7.3,-3.3 -7.3,-7.3 0,-4 3.3,-7.3 7.3,-7.3 4,0 7.3,3.3 7.3,7.3 -0.1,4 -3.3,7.3 -7.3,7.3 l 0,0 z m 0,0"
       id="path161"
       inkscape:connector-curvature="0" /><path
       d="m -2109.7,1080.2 c -0.7,0 -1.5,0.3 -2,0.8 -0.5,0.5 -0.8,1.2 -0.8,2 0,0.7 0.3,1.5 0.8,2 0.5,0.5 1.2,0.8 2,0.8 0.7,0 1.5,-0.3 2,-0.8 0.5,-0.5 0.8,-1.2 0.8,-2 0,-0.7 -0.3,-1.5 -0.8,-2 -0.5,-0.5 -1.3,-0.8 -2,-0.8 l 0,0 z m 0,0"
       id="path163"
       inkscape:connector-curvature="0" /></g><g
     id="g165"
     transform="translate(0,-100)"><g
       id="g167"><defs
         id="defs169"><rect
           id="SVGID_1_"
           x="-2033.2"
           y="1075.8"
           width="40"
           height="37.5" /></defs><clipPath
         id="SVGID_2_"><use
           xlink:href="#SVGID_1_"
           style="overflow:visible"
           id="use173"
           x="0"
           y="0"
           width="100%"
           height="100%" /></clipPath><path
         class="st11"
         d="m -1994.2,1103.8 c -5,-0.8 -7.3,-5.9 -7.6,-6.5 0,0 0,-0.1 0,-0.1 -0.3,-0.5 -0.3,-0.9 -0.2,-1.2 0.3,-0.6 1.4,-1 2.1,-1.2 0.2,-0.1 0.4,-0.1 0.5,-0.2 1.5,-0.6 2.2,-1.3 2.2,-2.2 0,-0.7 -0.6,-1.3 -1.4,-1.6 -0.3,-0.1 -0.6,-0.2 -0.9,-0.2 -0.2,0 -0.6,0 -0.9,0.2 -0.6,0.3 -1.2,0.4 -1.6,0.5 -0.2,0 -0.3,0 -0.4,-0.1 0,-0.2 0,-0.4 0,-0.7 l 0,-0.1 c 0.2,-2.7 0.4,-6.1 -0.5,-8.1 -2.7,-6 -8.4,-6.5 -10,-6.5 l -0.8,0 c -1.7,0 -7.3,0.5 -10,6.5 -0.9,2 -0.7,5.4 -0.5,8.1 0,0.3 0,0.5 0,0.8 -0.1,0 -0.3,0.1 -0.5,0.1 -0.5,0 -1.1,-0.2 -1.7,-0.5 -0.9,-0.4 -2.7,0.1 -2.9,1.4 -0.1,0.7 0.1,1.6 2.1,2.4 0.2,0.1 0.4,0.1 0.6,0.2 0.7,0.2 1.8,0.6 2.1,1.2 0.1,0.3 0.1,0.7 -0.2,1.3 -0.1,0.2 -2.5,5.6 -7.7,6.5 -0.5,0.1 -0.9,0.6 -0.9,1.1 0,0.2 0,0.3 0.1,0.5 0.4,1 2.1,1.7 5.3,2.2 0.1,0.2 0.1,0.5 0.2,0.8 0.1,0.3 0.1,0.6 0.2,0.9 0.1,0.3 0.4,0.9 1.2,0.9 0.3,0 0.6,-0.1 1,-0.1 0.5,-0.1 1.2,-0.2 2.1,-0.2 0.5,0 1,0 1.5,0.1 0.9,0.2 1.8,0.7 2.7,1.4 1.4,1 2.7,1.8 5.3,1.8 0.1,0 0.1,0 0.2,0 0.1,0 0.2,0 0.3,0 2.3,0 4.2,-0.6 5.9,-1.8 0.9,-0.6 1.8,-1.3 2.7,-1.4 0.5,-0.1 1,-0.1 1.5,-0.1 0.8,0 1.5,0.1 2.1,0.2 0.4,0.1 0.7,0.1 1,0.1 0.6,0 1,-0.3 1.2,-0.9 0.1,-0.3 0.2,-0.6 0.2,-0.9 0,-0.2 0.1,-0.6 0.2,-0.8 3.1,-0.5 4.7,-1.2 5.1,-2.2 0.1,-0.1 0.1,-0.3 0.1,-0.5 0,-0.5 -0.4,-1 -1,-1.1 l 0,0 z m 0,0"
         id="path175"
         clip-path="url(#SVGID_2_)"
         inkscape:connector-curvature="0" /></g></g><rect
     x="-1241.7"
     y="-333"
     class="st0"
     width="154"
     height="154"
     id="rect177"
     style="fill:#0a264f" /><rect
     x="-1041.7"
     y="-333"
     class="st12"
     width="154"
     height="154"
     id="rect179"
     style="fill:#ef420c" /><rect
     x="-841.70001"
     y="-333"
     class="st13"
     width="154"
     height="154"
     id="rect181"
     style="fill:#ffffff" /><g
     id="g183"
     transform="translate(0,-100)"><path
       class="st12"
       d="m -968.8,174.8 c 0,-10.3 -7.9,-18.7 -18,-19.6 l 0,81.2 c 0,15.8 -12.9,28.7 -28.7,28.7 l -184.6,0 c 1.2,9.7 9.5,17.2 19.5,17.2 l 182,0 29.8,29.8 0,-48 -0.1,0 c 0,-0.5 0.1,-1 0.1,-1.5 l 0,-87.8 z"
       id="path185"
       inkscape:connector-curvature="0"
       style="fill:#ef420c" /><path
       class="st0"
       d="m -995.8,143.7 c 0,-10.9 -8.8,-19.7 -19.7,-19.7 l -201.1,0 c -10.9,0 -19.7,8.8 -19.7,19.7 l 0,92.7 c 0,0.3 0,0.5 0,0.8 l 0,0 0,49.8 31,-31 189.8,0 c 10.9,0 19.7,-8.8 19.7,-19.7 l 0,-92.6 z"
       id="path187"
       inkscape:connector-curvature="0"
       style="fill:#0a264f" /><g
       id="g189"><g
         id="g191"><path
           class="st13"
           d="m -1196.1,158.6 13.1,0 0,1.9 -11,0 0,8 9.8,0 0,1.9 -9.8,0 0,9.2 -2.1,0 0,-21 z"
           id="path193"
           inkscape:connector-curvature="0"
           style="fill:#ffffff" /><path
           class="st13"
           d="m -1164,179.5 -2.5,-5.6 -11.6,0 -2.5,5.6 -2.2,0 9.4,-20.9 2.2,0 9.4,20.9 -2.2,0 z m -13.3,-7.4 10,0 -5,-11.3 -5,11.3 z"
           id="path195"
           inkscape:connector-curvature="0"
           style="fill:#ffffff" /><path
           class="st13"
           d="m -1149.6,178 c -1,1.1 -2.5,1.6 -4.3,1.6 -1.1,0 -2.2,-0.3 -3.1,-0.8 -1,-0.5 -1.8,-1.2 -2.5,-2.2 l 1,-1.6 c 0.6,0.8 1.4,1.4 2.2,1.9 0.8,0.4 1.6,0.6 2.5,0.6 1.2,0 2.1,-0.4 2.8,-1.1 0.6,-0.7 1,-1.8 1,-3.2 l 0,-12.8 -7.5,0 0,-1.9 9.6,0 0,14.8 c -0.2,2.1 -0.7,3.6 -1.7,4.7 z"
           id="path197"
           inkscape:connector-curvature="0"
           style="fill:#ffffff" /><path
           class="st13"
           d="m -1126,158.6 2,0 0,20.9 -2.2,0 -13,-17.7 0,17.7 -2.1,0 0,-20.9 2.2,0 13,17.7 0,-17.7 z"
           id="path199"
           inkscape:connector-curvature="0"
           style="fill:#ffffff" /><path
           class="st13"
           d="m -1116.8,158.6 2.1,0 0,20.9 -2.1,0 0,-20.9 z"
           id="path201"
           inkscape:connector-curvature="0"
           style="fill:#ffffff" /><path
           class="st13"
           d="m -1107.5,158.6 14,0 0,1.9 -11.9,0 0,7.5 10.7,0 0,1.9 -10.7,0 0,7.9 12.3,0 0,1.9 -14.4,0 0,-21.1 z"
           id="path203"
           inkscape:connector-curvature="0"
           style="fill:#ffffff" /><path
           class="st13"
           d="m -1086.7,177.5 c 0.2,0.2 0.4,0.6 0.4,1 0,0.3 -0.1,0.7 -0.3,1.1 l -1.5,3.4 -1.2,0 1.2,-3.4 c -0.2,-0.1 -0.4,-0.3 -0.6,-0.5 -0.1,-0.2 -0.2,-0.4 -0.2,-0.7 0,-0.4 0.1,-0.7 0.4,-1 0.2,-0.3 0.6,-0.4 0.9,-0.4 0.4,0.1 0.7,0.2 0.9,0.5 z"
           id="path205"
           inkscape:connector-curvature="0"
           style="fill:#ffffff" /><path
           class="st13"
           d="m -1071.8,158.6 16.5,0 0,1.6 -14.2,17.5 14.3,0 0,1.9 -17,0 0,-1.6 14.2,-17.4 -13.8,0 0,-2 z m 9.2,-4.4 c 0.3,0.3 0.4,0.6 0.4,1 0,0.4 -0.1,0.7 -0.4,1 -0.3,0.3 -0.6,0.4 -1,0.4 -0.4,0 -0.7,-0.1 -1,-0.4 -0.3,-0.3 -0.4,-0.6 -0.4,-1 0,-0.4 0.1,-0.7 0.4,-1 0.3,-0.3 0.6,-0.4 1,-0.4 0.4,-0.1 0.8,0.1 1,0.4 z"
           id="path207"
           inkscape:connector-curvature="0"
           style="fill:#ffffff" /><path
           class="st13"
           d="m -1050.4,158.6 14,0 0,1.9 -11.9,0 0,7.5 10.7,0 0,1.9 -10.7,0 0,7.9 12.3,0 0,1.9 -14.4,0 0,-21.1 z"
           id="path209"
           inkscape:connector-curvature="0"
           style="fill:#ffffff" /></g><g
         id="g211"><path
           class="st13"
           d="m -1181.7,212 5.8,-18.8 7.6,0 5.8,18.8 6.5,-18.8 7.9,0 -11.4,32.7 -5.4,0 -7.2,-22.7 -7.1,22.7 -5.4,0 -11.4,-32.7 7.9,0 6.4,18.8 z"
           id="path213"
           inkscape:connector-curvature="0"
           style="fill:#ffffff" /><path
           class="st13"
           d="m -1142.3,193.2 7.3,0 0,32.7 -7.3,0 0,-32.7 z"
           id="path215"
           inkscape:connector-curvature="0"
           style="fill:#ffffff" /><path
           class="st13"
           d="m -1101.5,193.2 0,6.5 -16.3,0 0,6.7 14.6,0 0,6.2 -14.6,0 0,6.8 16.8,0 0,6.5 -24.1,0 0,-32.7 23.6,0 z"
           id="path217"
           inkscape:connector-curvature="0"
           style="fill:#ffffff" /><path
           class="st13"
           d="m -1085,199.7 c -0.7,0.6 -1.1,1.3 -1.1,2.3 0,1 0.4,1.7 1.3,2.3 0.9,0.6 2.8,1.2 5.9,2 3.1,0.8 5.5,1.9 7.2,3.4 1.7,1.5 2.6,3.8 2.6,6.7 0,2.9 -1.1,5.3 -3.3,7.1 -2.2,1.8 -5.1,2.7 -8.7,2.7 -5.2,0 -9.8,-1.9 -14,-5.8 l 4.4,-5.3 c 3.5,3.1 6.8,4.6 9.8,4.6 1.3,0 2.4,-0.3 3.2,-0.9 0.8,-0.6 1.1,-1.4 1.1,-2.3 0,-1 -0.4,-1.8 -1.2,-2.3 -0.8,-0.6 -2.4,-1.2 -4.8,-1.8 -3.8,-0.9 -6.6,-2.1 -8.4,-3.5 -1.8,-1.4 -2.6,-3.7 -2.6,-6.8 0,-3.1 1.1,-5.5 3.3,-7.2 2.2,-1.7 5,-2.5 8.4,-2.5 2.2,0 4.4,0.4 6.6,1.1 2.2,0.7 4.1,1.8 5.7,3.2 l -3.7,5.3 c -2.8,-2.2 -5.8,-3.2 -8.8,-3.2 -1.3,0 -2.2,0.3 -2.9,0.9 z"
           id="path219"
           inkscape:connector-curvature="0"
           style="fill:#ffffff" /><path
           class="st13"
           d="m -1063.4,225.9 0,-5 17.1,-21.4 -16.6,0 0,-6.3 26.5,0 0,5.1 -17.1,21.3 17.4,0 0,6.4 -27.3,0 z"
           id="path221"
           inkscape:connector-curvature="0"
           style="fill:#ffffff" /></g></g></g><g
     id="g223"
     transform="translate(-50,-48)"><path
       class="st12"
       d="m 445.5,186.8 c 0,-15.1 -11.6,-27.4 -26.3,-28.6 l 0,118.6 c 0,23.1 -18.8,41.9 -41.9,41.9 l -269.9,0 c 1.8,14.1 13.9,25.1 28.5,25.1 l 266,0 43.6,43.6 0,-70.1 -0.1,0 c 0.1,-0.7 0.1,-1.5 0.1,-2.2 l 0,-128.3 z"
       id="path225"
       inkscape:connector-curvature="0"
       style="fill:#ef420c" /><path
       class="st0"
       d="m 406,141.3 c 0,-15.9 -12.9,-28.7 -28.7,-28.7 l -294,0 c -15.9,0 -28.7,12.9 -28.7,28.7 l 0,135.5 c 0,0.4 0,0.8 0.1,1.2 l -0.1,0 0,72.9 45.3,-45.3 277.4,0 c 15.9,0 28.7,-12.9 28.7,-28.7 l 0,-135.6 z"
       id="path227"
       inkscape:connector-curvature="0"
       style="fill:#0a264f" /><g
       id="g229"><g
         id="g231"><path
           class="st13"
           d="m 113.3,163.2 19.2,0 0,2.7 -16.1,0 0,11.8 14.4,0 0,2.7 -14.4,0 0,13.4 -3,0 0,-30.6 z"
           id="path233"
           inkscape:connector-curvature="0"
           style="fill:#ffffff" /><path
           class="st13"
           d="m 160.2,193.8 -3.6,-8.1 -17,0 -3.6,8.1 -3.2,0 13.8,-30.6 3.1,0 13.8,30.6 -3.3,0 z m -19.4,-10.9 14.6,0 -7.3,-16.5 -7.3,16.5 z"
           id="path235"
           inkscape:connector-curvature="0"
           style="fill:#ffffff" /><path
           class="st13"
           d="m 181.2,191.5 c -1.5,1.6 -3.6,2.4 -6.3,2.4 -1.6,0 -3.2,-0.4 -4.6,-1.1 -1.4,-0.7 -2.7,-1.8 -3.7,-3.2 l 1.5,-2.3 c 0.9,1.2 2,2.1 3.1,2.7 1.2,0.6 2.4,0.9 3.6,0.9 1.8,0 3.1,-0.5 4.1,-1.6 0.9,-1.1 1.4,-2.6 1.4,-4.7 l 0,-18.8 -11,0 0,-2.8 14.1,0 0,21.6 c 0,3.1 -0.7,5.3 -2.2,6.9 z"
           id="path237"
           inkscape:connector-curvature="0"
           style="fill:#ffffff" /><path
           class="st13"
           d="m 215.7,163.2 3,0 0,30.6 -3.2,0 -18.9,-25.9 0,25.9 -3,0 0,-30.6 3.2,0 19,25.9 0,-25.9 z"
           id="path239"
           inkscape:connector-curvature="0"
           style="fill:#ffffff" /><path
           class="st13"
           d="m 229.2,163.2 3,0 0,30.6 -3,0 0,-30.6 z"
           id="path241"
           inkscape:connector-curvature="0"
           style="fill:#ffffff" /><path
           class="st13"
           d="m 242.7,163.2 20.5,0 0,2.7 -17.4,0 0,10.9 15.6,0 0,2.7 -15.6,0 0,11.5 18,0 0,2.7 -21,0 0,-30.5 z"
           id="path243"
           inkscape:connector-curvature="0"
           style="fill:#ffffff" /><path
           class="st13"
           d="m 273.1,190.7 c 0.4,0.4 0.5,0.8 0.5,1.4 0,0.4 -0.2,1 -0.5,1.7 l -2.2,5 -1.7,0 1.7,-4.9 c -0.4,-0.1 -0.6,-0.4 -0.8,-0.7 -0.2,-0.3 -0.3,-0.7 -0.3,-1 0,-0.6 0.2,-1 0.5,-1.4 0.4,-0.4 0.8,-0.6 1.4,-0.6 0.6,0 1.1,0.2 1.4,0.5 z"
           id="path245"
           inkscape:connector-curvature="0"
           style="fill:#ffffff" /><path
           class="st13"
           d="m 294.9,163.2 24.1,0 0,2.3 -20.7,25.5 20.9,0 0,2.7 -24.8,0 0,-2.4 20.8,-25.5 -20.2,0 0,-2.6 z m 13.5,-6.5 c 0.4,0.4 0.6,0.9 0.6,1.5 0,0.6 -0.2,1.1 -0.6,1.5 -0.4,0.4 -0.9,0.6 -1.5,0.6 -0.6,0 -1,-0.2 -1.4,-0.6 -0.4,-0.4 -0.6,-0.9 -0.6,-1.5 0,-0.6 0.2,-1.1 0.6,-1.5 0.4,-0.4 0.9,-0.6 1.4,-0.6 0.6,0 1.1,0.2 1.5,0.6 z"
           id="path247"
           inkscape:connector-curvature="0"
           style="fill:#ffffff" /><path
           class="st13"
           d="m 326.2,163.2 20.5,0 0,2.7 -17.4,0 0,10.9 15.6,0 0,2.7 -15.6,0 0,11.5 18,0 0,2.7 -21,0 0,-30.5 z"
           id="path249"
           inkscape:connector-curvature="0"
           style="fill:#ffffff" /></g><g
         id="g251"><path
           class="st13"
           d="m 134.3,241.2 8.5,-27.5 11.2,0 8.4,27.5 9.5,-27.5 11.6,0 -16.7,47.8 -7.9,0 -10.5,-33.2 -10.4,33.2 -8,0 -16.7,-47.8 11.6,0 9.4,27.5 z"
           id="path253"
           inkscape:connector-curvature="0"
           style="fill:#ffffff" /><path
           class="st13"
           d="m 191.9,213.7 10.7,0 0,47.8 -10.7,0 0,-47.8 z"
           id="path255"
           inkscape:connector-curvature="0"
           style="fill:#ffffff" /><path
           class="st13"
           d="m 251.5,213.7 0,9.5 -23.8,0 0,9.8 21.4,0 0,9.1 -21.4,0 0,9.9 24.6,0 0,9.4 -35.3,0 0,-47.8 34.5,0 z"
           id="path257"
           inkscape:connector-curvature="0"
           style="fill:#ffffff" /><path
           class="st13"
           d="m 275.6,223.3 c -1,0.8 -1.5,2 -1.5,3.4 0,1.4 0.6,2.5 1.9,3.3 1.3,0.8 4.1,1.8 8.7,2.9 4.5,1.1 8.1,2.8 10.6,5 2.5,2.2 3.8,5.5 3.8,9.8 0,4.3 -1.6,7.8 -4.8,10.4 -3.2,2.7 -7.4,4 -12.7,4 -7.6,0 -14.4,-2.8 -20.5,-8.4 l 6.4,-7.8 c 5.2,4.5 9.9,6.8 14.3,6.8 2,0 3.5,-0.4 4.6,-1.3 1.1,-0.8 1.7,-2 1.7,-3.4 0,-1.4 -0.6,-2.6 -1.8,-3.4 -1.2,-0.8 -3.5,-1.7 -7,-2.6 -5.6,-1.3 -9.6,-3 -12.2,-5.2 -2.6,-2.2 -3.9,-5.4 -3.9,-10 0,-4.5 1.6,-8 4.9,-10.5 3.3,-2.5 7.3,-3.7 12.2,-3.7 3.2,0 6.4,0.5 9.6,1.6 3.2,1.1 6,2.6 8.3,4.7 l -5.4,7.8 c -4.2,-3.1 -8.4,-4.7 -12.9,-4.7 -1.9,0 -3.3,0.4 -4.3,1.3 z"
           id="path259"
           inkscape:connector-curvature="0"
           style="fill:#ffffff" /><path
           class="st13"
           d="m 307.2,261.5 0,-7.3 25,-31.3 -24.2,0 0,-9.2 38.8,0 0,7.4 -25,31.1 25.4,0 0,9.3 -40,0 z"
           id="path261"
           inkscape:connector-curvature="0"
           style="fill:#ffffff" /></g></g></g><g
     id="g263"
     transform="translate(0,-100)"><path
       class="st0"
       d="m -181.1,451.1 c 0,-10.3 -7.9,-18.7 -18,-19.6 l 0,81.2 c 0,15.8 -12.9,28.7 -28.7,28.7 l -184.6,0 c 1.2,9.7 9.5,17.2 19.5,17.2 l 182,0 29.8,29.8 0,-48 -0.1,0 c 0,-0.5 0.1,-1 0.1,-1.5 l 0,-87.8 z"
       id="path265"
       inkscape:connector-curvature="0"
       style="fill:#0a264f" /><path
       class="st0"
       d="m -208.1,420 c 0,-10.9 -8.8,-19.7 -19.7,-19.7 l -201.1,0 c -10.9,0 -19.7,8.8 -19.7,19.7 l 0,92.7 c 0,0.3 0,0.5 0,0.8 l 0,0 0,49.8 31,-31 189.8,0 c 10.9,0 19.7,-8.8 19.7,-19.7 l 0,-92.6 z"
       id="path267"
       inkscape:connector-curvature="0"
       style="fill:#0a264f" /><g
       id="g269"><g
         id="g271"><path
           class="st13"
           d="m -408.4,435 13.1,0 0,1.9 -11,0 0,8 9.8,0 0,1.9 -9.8,0 0,9.2 -2.1,0 0,-21 z"
           id="path273"
           inkscape:connector-curvature="0"
           style="fill:#ffffff" /><path
           class="st13"
           d="m -376.3,455.9 -2.5,-5.6 -11.6,0 -2.5,5.6 -2.2,0 9.4,-20.9 2.2,0 9.4,20.9 -2.2,0 z m -13.3,-7.4 10,0 -5,-11.3 -5,11.3 z"
           id="path275"
           inkscape:connector-curvature="0"
           style="fill:#ffffff" /><path
           class="st13"
           d="m -362,454.4 c -1,1.1 -2.5,1.6 -4.3,1.6 -1.1,0 -2.2,-0.3 -3.1,-0.8 -1,-0.5 -1.8,-1.2 -2.5,-2.2 l 1,-1.6 c 0.6,0.8 1.4,1.4 2.2,1.9 0.8,0.4 1.6,0.6 2.5,0.6 1.2,0 2.1,-0.4 2.8,-1.1 0.6,-0.7 1,-1.8 1,-3.2 l 0,-12.8 -7.5,0 0,-1.8 9.6,0 0,14.8 c -0.1,1.9 -0.6,3.5 -1.7,4.6 z"
           id="path277"
           inkscape:connector-curvature="0"
           style="fill:#ffffff" /><path
           class="st13"
           d="m -338.3,435 2,0 0,20.9 -2.2,0 -13,-17.7 0,17.7 -2.1,0 0,-20.9 2.2,0 13,17.7 0,-17.7 z"
           id="path279"
           inkscape:connector-curvature="0"
           style="fill:#ffffff" /><path
           class="st13"
           d="m -329.1,435 2.1,0 0,20.9 -2.1,0 0,-20.9 z"
           id="path281"
           inkscape:connector-curvature="0"
           style="fill:#ffffff" /><path
           class="st13"
           d="m -319.9,435 14,0 0,1.9 -11.9,0 0,7.5 10.7,0 0,1.9 -10.7,0 0,7.9 12.3,0 0,1.9 -14.4,0 0,-21.1 z"
           id="path283"
           inkscape:connector-curvature="0"
           style="fill:#ffffff" /><path
           class="st13"
           d="m -299,453.8 c 0.2,0.2 0.4,0.6 0.4,1 0,0.3 -0.1,0.7 -0.3,1.1 l -1.5,3.4 -1.2,0 1.2,-3.4 c -0.2,-0.1 -0.4,-0.3 -0.6,-0.5 -0.1,-0.2 -0.2,-0.4 -0.2,-0.7 0,-0.4 0.1,-0.7 0.4,-1 0.2,-0.3 0.6,-0.4 0.9,-0.4 0.3,0.2 0.6,0.3 0.9,0.5 z"
           id="path285"
           inkscape:connector-curvature="0"
           style="fill:#ffffff" /><path
           class="st13"
           d="m -284.2,435 16.5,0 0,1.6 -14.2,17.5 14.3,0 0,1.9 -17,0 0,-1.6 14.2,-17.4 -13.8,0 0,-2 z m 9.3,-4.5 c 0.3,0.3 0.4,0.6 0.4,1 0,0.4 -0.1,0.7 -0.4,1 -0.3,0.3 -0.6,0.4 -1,0.4 -0.4,0 -0.7,-0.1 -1,-0.4 -0.3,-0.3 -0.4,-0.6 -0.4,-1 0,-0.4 0.1,-0.7 0.4,-1 0.3,-0.3 0.6,-0.4 1,-0.4 0.4,0 0.7,0.2 1,0.4 z"
           id="path287"
           inkscape:connector-curvature="0"
           style="fill:#ffffff" /><path
           class="st13"
           d="m -262.7,435 14,0 0,1.9 -11.9,0 0,7.5 10.7,0 0,1.9 -10.7,0 0,7.9 12.3,0 0,1.9 -14.4,0 0,-21.1 z"
           id="path289"
           inkscape:connector-curvature="0"
           style="fill:#ffffff" /></g><g
         id="g291"><path
           class="st13"
           d="m -394,488.4 5.8,-18.8 7.6,0 5.8,18.8 6.5,-18.8 7.9,0 -11.4,32.7 -5.4,0 -7.2,-22.7 -7.1,22.7 -5.4,0 -11.4,-32.7 7.9,0 6.4,18.8 z"
           id="path293"
           inkscape:connector-curvature="0"
           style="fill:#ffffff" /><path
           class="st13"
           d="m -354.6,469.6 7.3,0 0,32.7 -7.3,0 0,-32.7 z"
           id="path295"
           inkscape:connector-curvature="0"
           style="fill:#ffffff" /><path
           class="st13"
           d="m -313.8,469.6 0,6.5 -16.3,0 0,6.7 14.6,0 0,6.2 -14.6,0 0,6.8 16.8,0 0,6.5 -24.1,0 0,-32.7 23.6,0 z"
           id="path297"
           inkscape:connector-curvature="0"
           style="fill:#ffffff" /><path
           class="st13"
           d="m -297.4,476.1 c -0.7,0.6 -1.1,1.3 -1.1,2.3 0,1 0.4,1.7 1.3,2.3 0.9,0.6 2.8,1.2 5.9,2 3.1,0.8 5.5,1.9 7.2,3.4 1.7,1.5 2.6,3.8 2.6,6.7 0,2.9 -1.1,5.3 -3.3,7.1 -2.2,1.8 -5.1,2.7 -8.7,2.7 -5.2,0 -9.8,-1.9 -14,-5.8 l 4.4,-5.3 c 3.5,3.1 6.8,4.6 9.8,4.6 1.3,0 2.4,-0.3 3.2,-0.9 0.8,-0.6 1.1,-1.4 1.1,-2.3 0,-1 -0.4,-1.8 -1.2,-2.3 -0.8,-0.6 -2.4,-1.2 -4.8,-1.8 -3.8,-0.9 -6.6,-2.1 -8.4,-3.5 -1.8,-1.4 -2.6,-3.7 -2.6,-6.8 0,-3.1 1.1,-5.5 3.3,-7.2 2.2,-1.7 5,-2.5 8.4,-2.5 2.2,0 4.4,0.4 6.6,1.1 2.2,0.7 4.1,1.8 5.7,3.2 l -3.7,5.3 c -2.8,-2.2 -5.8,-3.2 -8.8,-3.2 -1.2,0 -2.2,0.3 -2.9,0.9 z"
           id="path299"
           inkscape:connector-curvature="0"
           style="fill:#ffffff" /><path
           class="st13"
           d="m -275.7,502.3 0,-5 17.1,-21.4 -16.6,0 0,-6.3 26.5,0 0,5.1 -17.1,21.3 17.4,0 0,6.4 -27.3,0 z"
           id="path301"
           inkscape:connector-curvature="0"
           style="fill:#ffffff" /></g></g></g><g
     id="g303"
     transform="translate(0,-100)"><path
       class="st0"
       d="m -963.8,451.1 c 0,-10.3 -7.9,-18.7 -18,-19.6 l 0,81.2 c 0,15.8 -12.9,28.7 -28.7,28.7 l -184.6,0 c 1.2,9.7 9.5,17.2 19.5,17.2 l 182,0 29.8,29.8 0,-48 -0.1,0 c 0,-0.5 0.1,-1 0.1,-1.5 l 0,-87.8 z"
       id="path305"
       inkscape:connector-curvature="0"
       style="fill:#0a264f" /><path
       class="st12"
       d="m -990.8,420 c 0,-10.9 -8.8,-19.7 -19.7,-19.7 l -201.1,0 c -10.9,0 -19.7,8.8 -19.7,19.7 l 0,92.7 c 0,0.3 0,0.5 0,0.8 l 0,0 0,49.8 31,-31 189.8,0 c 10.9,0 19.7,-8.8 19.7,-19.7 l 0,-92.6 z"
       id="path307"
       inkscape:connector-curvature="0"
       style="fill:#ef420c" /><g
       id="g309"><g
         id="g311"><path
           class="st13"
           d="m -1191,435 13.1,0 0,1.9 -11,0 0,8 9.8,0 0,1.9 -9.8,0 0,9.2 -2.1,0 0,-21 z"
           id="path313"
           inkscape:connector-curvature="0"
           style="fill:#ffffff" /><path
           class="st13"
           d="m -1159,455.9 -2.5,-5.6 -11.6,0 -2.5,5.6 -2.2,0 9.4,-20.9 2.2,0 9.4,20.9 -2.2,0 z m -13.2,-7.4 10,0 -5,-11.3 -5,11.3 z"
           id="path315"
           inkscape:connector-curvature="0"
           style="fill:#ffffff" /><path
           class="st13"
           d="m -1144.6,454.4 c -1,1.1 -2.5,1.6 -4.3,1.6 -1.1,0 -2.2,-0.3 -3.1,-0.8 -1,-0.5 -1.8,-1.2 -2.5,-2.2 l 1,-1.6 c 0.6,0.8 1.4,1.4 2.2,1.9 0.8,0.4 1.6,0.6 2.5,0.6 1.2,0 2.1,-0.4 2.8,-1.1 0.6,-0.7 1,-1.8 1,-3.2 l 0,-12.8 -7.5,0 0,-1.8 9.6,0 0,14.8 c -0.1,1.9 -0.7,3.5 -1.7,4.6 z"
           id="path317"
           inkscape:connector-curvature="0"
           style="fill:#ffffff" /><path
           class="st13"
           d="m -1121,435 2,0 0,20.9 -2.2,0 -13,-17.7 0,17.7 -2.1,0 0,-20.9 2.2,0 13,17.7 0,-17.7 z"
           id="path319"
           inkscape:connector-curvature="0"
           style="fill:#ffffff" /><path
           class="st13"
           d="m -1111.8,435 2.1,0 0,20.9 -2.1,0 0,-20.9 z"
           id="path321"
           inkscape:connector-curvature="0"
           style="fill:#ffffff" /><path
           class="st13"
           d="m -1102.5,435 14,0 0,1.9 -11.9,0 0,7.5 10.7,0 0,1.9 -10.7,0 0,7.9 12.3,0 0,1.9 -14.4,0 0,-21.1 z"
           id="path323"
           inkscape:connector-curvature="0"
           style="fill:#ffffff" /><path
           class="st13"
           d="m -1081.7,453.8 c 0.2,0.2 0.4,0.6 0.4,1 0,0.3 -0.1,0.7 -0.3,1.1 l -1.5,3.4 -1.2,0 1.2,-3.4 c -0.2,-0.1 -0.4,-0.3 -0.6,-0.5 -0.1,-0.2 -0.2,-0.4 -0.2,-0.7 0,-0.4 0.1,-0.7 0.4,-1 0.2,-0.3 0.6,-0.4 0.9,-0.4 0.4,0.2 0.7,0.3 0.9,0.5 z"
           id="path325"
           inkscape:connector-curvature="0"
           style="fill:#ffffff" /><path
           class="st13"
           d="m -1066.8,435 16.5,0 0,1.6 -14.2,17.5 14.3,0 0,1.9 -17,0 0,-1.6 14.2,-17.4 -13.8,0 0,-2 z m 9.2,-4.5 c 0.3,0.3 0.4,0.6 0.4,1 0,0.4 -0.1,0.7 -0.4,1 -0.3,0.3 -0.6,0.4 -1,0.4 -0.4,0 -0.7,-0.1 -1,-0.4 -0.3,-0.3 -0.4,-0.6 -0.4,-1 0,-0.4 0.1,-0.7 0.4,-1 0.3,-0.3 0.6,-0.4 1,-0.4 0.4,0 0.8,0.2 1,0.4 z"
           id="path327"
           inkscape:connector-curvature="0"
           style="fill:#ffffff" /><path
           class="st13"
           d="m -1045.4,435 14,0 0,1.9 -11.9,0 0,7.5 10.7,0 0,1.9 -10.7,0 0,7.9 12.3,0 0,1.9 -14.4,0 0,-21.1 z"
           id="path329"
           inkscape:connector-curvature="0"
           style="fill:#ffffff" /></g><g
         id="g331"><path
           class="st13"
           d="m -1176.7,488.4 5.8,-18.8 7.6,0 5.8,18.8 6.5,-18.8 7.9,0 -11.4,32.7 -5.4,0 -7.2,-22.7 -7.1,22.7 -5.4,0 -11.4,-32.7 7.9,0 6.4,18.8 z"
           id="path333"
           inkscape:connector-curvature="0"
           style="fill:#ffffff" /><path
           class="st13"
           d="m -1137.2,469.6 7.3,0 0,32.7 -7.3,0 0,-32.7 z"
           id="path335"
           inkscape:connector-curvature="0"
           style="fill:#ffffff" /><path
           class="st13"
           d="m -1096.5,469.6 0,6.5 -16.3,0 0,6.7 14.6,0 0,6.2 -14.6,0 0,6.8 16.8,0 0,6.5 -24.1,0 0,-32.7 23.6,0 z"
           id="path337"
           inkscape:connector-curvature="0"
           style="fill:#ffffff" /><path
           class="st13"
           d="m -1080,476.1 c -0.7,0.6 -1.1,1.3 -1.1,2.3 0,1 0.4,1.7 1.3,2.3 0.9,0.6 2.8,1.2 5.9,2 3.1,0.8 5.5,1.9 7.2,3.4 1.7,1.5 2.6,3.8 2.6,6.7 0,2.9 -1.1,5.3 -3.3,7.1 -2.2,1.8 -5.1,2.7 -8.7,2.7 -5.2,0 -9.8,-1.9 -14,-5.8 l 4.4,-5.3 c 3.5,3.1 6.8,4.6 9.8,4.6 1.3,0 2.4,-0.3 3.2,-0.9 0.8,-0.6 1.1,-1.4 1.1,-2.3 0,-1 -0.4,-1.8 -1.2,-2.3 -0.8,-0.6 -2.4,-1.2 -4.8,-1.8 -3.8,-0.9 -6.6,-2.1 -8.4,-3.5 -1.8,-1.4 -2.6,-3.7 -2.6,-6.8 0,-3.1 1.1,-5.5 3.3,-7.2 2.2,-1.7 5,-2.5 8.4,-2.5 2.2,0 4.4,0.4 6.6,1.1 2.2,0.7 4.1,1.8 5.7,3.2 l -3.7,5.3 c -2.8,-2.2 -5.8,-3.2 -8.8,-3.2 -1.3,0 -2.2,0.3 -2.9,0.9 z"
           id="path339"
           inkscape:connector-curvature="0"
           style="fill:#ffffff" /><path
           class="st13"
           d="m -1058.3,502.3 0,-5 17.1,-21.4 -16.6,0 0,-6.3 26.5,0 0,5.1 -17.1,21.3 17.4,0 0,6.4 -27.3,0 z"
           id="path341"
           inkscape:connector-curvature="0"
           style="fill:#ffffff" /></g></g></g><g
     id="g343"
     transform="translate(0,-100)"><path
       class="st12"
       d="m -566.5,451.1 c 0,-10.3 -7.9,-18.7 -18,-19.6 l 0,81.2 c 0,15.8 -12.9,28.7 -28.7,28.7 l -184.6,0 c 1.2,9.7 9.5,17.2 19.5,17.2 l 182,0 29.8,29.8 0,-48 -0.1,0 c 0,-0.5 0.1,-1 0.1,-1.5 l 0,-87.8 z"
       id="path345"
       inkscape:connector-curvature="0"
       style="fill:#ef420c" /><path
       class="st12"
       d="m -593.5,420 c 0,-10.9 -8.8,-19.7 -19.7,-19.7 l -201.1,0 c -10.9,0 -19.7,8.8 -19.7,19.7 l 0,92.7 c 0,0.3 0,0.5 0,0.8 l 0,0 0,49.8 31,-31 189.8,0 c 10.9,0 19.7,-8.8 19.7,-19.7 l 0,-92.6 z"
       id="path347"
       inkscape:connector-curvature="0"
       style="fill:#ef420c" /><g
       id="g349"><g
         id="g351"><path
           class="st13"
           d="m -793.7,435 13.1,0 0,1.9 -11,0 0,8 9.8,0 0,1.9 -9.8,0 0,9.2 -2.1,0 0,-21 z"
           id="path353"
           inkscape:connector-curvature="0"
           style="fill:#ffffff" /><path
           class="st13"
           d="m -761.6,455.9 -2.5,-5.6 -11.6,0 -2.5,5.6 -2.2,0 9.4,-20.9 2.2,0 9.4,20.9 -2.2,0 z m -13.3,-7.4 10,0 -5,-11.3 -5,11.3 z"
           id="path355"
           inkscape:connector-curvature="0"
           style="fill:#ffffff" /><path
           class="st13"
           d="m -747.3,454.4 c -1,1.1 -2.5,1.6 -4.3,1.6 -1.1,0 -2.2,-0.3 -3.1,-0.8 -1,-0.5 -1.8,-1.2 -2.5,-2.2 l 1,-1.6 c 0.6,0.8 1.4,1.4 2.2,1.9 0.8,0.4 1.6,0.6 2.5,0.6 1.2,0 2.1,-0.4 2.8,-1.1 0.6,-0.7 1,-1.8 1,-3.2 l 0,-12.8 -7.5,0 0,-1.8 9.6,0 0,14.8 c -0.1,1.9 -0.6,3.5 -1.7,4.6 z"
           id="path357"
           inkscape:connector-curvature="0"
           style="fill:#ffffff" /><path
           class="st13"
           d="m -723.7,435 2,0 0,20.9 -2.2,0 -13,-17.7 0,17.7 -2.1,0 0,-20.9 2.2,0 13,17.7 0,-17.7 z"
           id="path359"
           inkscape:connector-curvature="0"
           style="fill:#ffffff" /><path
           class="st13"
           d="m -714.4,435 2.1,0 0,20.9 -2.1,0 0,-20.9 z"
           id="path361"
           inkscape:connector-curvature="0"
           style="fill:#ffffff" /><path
           class="st13"
           d="m -705.2,435 14,0 0,1.9 -11.9,0 0,7.5 10.7,0 0,1.9 -10.7,0 0,7.9 12.3,0 0,1.9 -14.4,0 0,-21.1 z"
           id="path363"
           inkscape:connector-curvature="0"
           style="fill:#ffffff" /><path
           class="st13"
           d="m -684.4,453.8 c 0.2,0.2 0.4,0.6 0.4,1 0,0.3 -0.1,0.7 -0.3,1.1 l -1.5,3.4 -1.2,0 1.2,-3.4 c -0.2,-0.1 -0.4,-0.3 -0.6,-0.5 -0.1,-0.2 -0.2,-0.4 -0.2,-0.7 0,-0.4 0.1,-0.7 0.4,-1 0.2,-0.3 0.6,-0.4 0.9,-0.4 0.4,0.2 0.7,0.3 0.9,0.5 z"
           id="path365"
           inkscape:connector-curvature="0"
           style="fill:#ffffff" /><path
           class="st13"
           d="m -669.5,435 16.5,0 0,1.6 -14.2,17.5 14.3,0 0,1.9 -17,0 0,-1.6 14.2,-17.4 -13.8,0 0,-2 z m 9.3,-4.5 c 0.3,0.3 0.4,0.6 0.4,1 0,0.4 -0.1,0.7 -0.4,1 -0.3,0.3 -0.6,0.4 -1,0.4 -0.4,0 -0.7,-0.1 -1,-0.4 -0.3,-0.3 -0.4,-0.6 -0.4,-1 0,-0.4 0.1,-0.7 0.4,-1 0.3,-0.3 0.6,-0.4 1,-0.4 0.4,0 0.7,0.2 1,0.4 z"
           id="path367"
           inkscape:connector-curvature="0"
           style="fill:#ffffff" /><path
           class="st13"
           d="m -648,435 14,0 0,1.9 -12,0 0,7.5 10.7,0 0,1.9 -10.7,0 0,7.9 12.3,0 0,1.9 -14.3,0 0,-21.1 z"
           id="path369"
           inkscape:connector-curvature="0"
           style="fill:#ffffff" /></g><g
         id="g371"><path
           class="st13"
           d="m -779.4,488.4 5.8,-18.8 7.6,0 5.8,18.8 6.5,-18.8 7.9,0 -11.4,32.7 -5.4,0 -7.2,-22.7 -7.1,22.7 -5.4,0 -11.4,-32.7 7.9,0 6.4,18.8 z"
           id="path373"
           inkscape:connector-curvature="0"
           style="fill:#ffffff" /><path
           class="st13"
           d="m -739.9,469.6 7.3,0 0,32.7 -7.3,0 0,-32.7 z"
           id="path375"
           inkscape:connector-curvature="0"
           style="fill:#ffffff" /><path
           class="st13"
           d="m -699.2,469.6 0,6.5 -16.3,0 0,6.7 14.6,0 0,6.2 -14.6,0 0,6.8 16.8,0 0,6.5 -24.1,0 0,-32.7 23.6,0 z"
           id="path377"
           inkscape:connector-curvature="0"
           style="fill:#ffffff" /><path
           class="st13"
           d="m -682.7,476.1 c -0.7,0.6 -1.1,1.3 -1.1,2.3 0,1 0.4,1.7 1.3,2.3 0.9,0.6 2.8,1.2 5.9,2 3.1,0.8 5.5,1.9 7.2,3.4 1.7,1.5 2.6,3.8 2.6,6.7 0,2.9 -1.1,5.3 -3.3,7.1 -2.2,1.8 -5.1,2.7 -8.7,2.7 -5.2,0 -9.8,-1.9 -14,-5.8 l 4.4,-5.3 c 3.5,3.1 6.8,4.6 9.8,4.6 1.3,0 2.4,-0.3 3.2,-0.9 0.8,-0.6 1.1,-1.4 1.1,-2.3 0,-1 -0.4,-1.8 -1.2,-2.3 -0.8,-0.6 -2.4,-1.2 -4.8,-1.8 -3.8,-0.9 -6.6,-2.1 -8.4,-3.5 -1.8,-1.4 -2.6,-3.7 -2.6,-6.8 0,-3.1 1.1,-5.5 3.3,-7.2 2.2,-1.7 5,-2.5 8.4,-2.5 2.2,0 4.4,0.4 6.6,1.1 2.2,0.7 4.1,1.8 5.7,3.2 l -3.7,5.3 c -2.8,-2.2 -5.8,-3.2 -8.8,-3.2 -1.2,0 -2.2,0.3 -2.9,0.9 z"
           id="path379"
           inkscape:connector-curvature="0"
           style="fill:#ffffff" /><path
           class="st13"
           d="m -661,502.3 0,-5 17.1,-21.4 -16.6,0 0,-6.3 26.5,0 0,5.1 -17.1,21.3 17.4,0 0,6.4 -27.3,0 z"
           id="path381"
           inkscape:connector-curvature="0"
           style="fill:#ffffff" /></g></g></g><g
     id="g383"
     transform="translate(0,-100)"><path
       class="st12"
       d="m -802.6,1007.6 c 0,-10.3 -7.9,-18.7 -18,-19.6 l 0,81.2 c 0,15.8 -12.9,28.7 -28.7,28.7 l -184.6,0 c 1.2,9.7 9.5,17.2 19.5,17.2 l 182,0 29.8,29.8 0,-48 -0.1,0 c 0,-0.5 0.1,-1 0.1,-1.5 l 0,-87.8 z"
       id="path385"
       inkscape:connector-curvature="0"
       style="fill:#ef420c" /><g
       id="g387"><path
         class="st12"
         d="m -849.3,956.8 -201.1,0 c -10.9,0 -19.7,8.8 -19.7,19.7 l 0,92.7 c 0,0.3 0,0.5 0,0.8 l 0,0 0,49.8 31,-31 189.8,0 c 10.9,0 19.7,-8.8 19.7,-19.7 l 0,-92.7 c 0,-10.8 -8.8,-19.6 -19.7,-19.6 z m -49.1,30.2 c 0.3,-0.3 0.6,-0.4 1,-0.4 0.4,0 0.7,0.1 1,0.4 0.3,0.3 0.4,0.6 0.4,1 0,0.4 -0.1,0.7 -0.4,1 -0.3,0.3 -0.6,0.4 -1,0.4 -0.4,0 -0.7,-0.1 -1,-0.4 -0.3,-0.3 -0.4,-0.6 -0.4,-1 0,-0.4 0.2,-0.7 0.4,-1 z m -7.6,23.8 14.2,-17.4 -13.8,0 0,-1.9 16.5,0 0,1.6 -14.2,17.5 14.3,0 0,1.9 -17,0 0,-1.7 z m -16.5,1.2 c -0.1,-0.2 -0.2,-0.4 -0.2,-0.7 0,-0.4 0.1,-0.7 0.4,-1 0.2,-0.3 0.6,-0.4 0.9,-0.4 0.4,0 0.7,0.1 0.9,0.4 0.2,0.3 0.4,0.6 0.4,1 0,0.3 -0.1,0.7 -0.3,1.1 l -1.5,3.4 -1.2,0 1.2,-3.4 c -0.3,-0.1 -0.5,-0.2 -0.6,-0.4 z m -18.8,-20.5 14,0 0,1.9 -11.9,0 0,7.5 10.7,0 0,1.9 -10.7,0 0,7.9 12.3,0 0,1.9 -14.4,0 0,-21.1 z m -9.3,0 2.1,0 0,20.9 -2.1,0 0,-20.9 z m -56.5,0 2.2,0 9.4,20.9 -2.2,0 -2.5,-5.6 -11.6,0 -2.5,5.6 -2.2,0 9.4,-20.9 z m -22.8,0 13.1,0 0,1.9 -11,0 0,8 9.8,0 0,1.9 -9.8,0 0,9.2 -2.1,0 0,-21 z m 36.6,67.2 -5.4,0 -7.2,-22.7 -7.1,22.7 -5.4,0 -11.4,-32.7 7.9,0 6.5,18.8 5.8,-18.8 7.6,0 5.8,18.8 6.5,-18.8 7.9,0 -11.5,32.7 z m 11.4,-52.5 c 0,2 -0.5,3.5 -1.5,4.6 -1,1.1 -2.5,1.6 -4.3,1.6 -1.1,0 -2.2,-0.3 -3.1,-0.8 -1,-0.5 -1.8,-1.2 -2.5,-2.2 l 1,-1.6 c 0.6,0.8 1.4,1.4 2.2,1.9 0.8,0.4 1.6,0.6 2.5,0.6 1.2,0 2.1,-0.4 2.8,-1.1 0.7,-0.7 1,-1.8 1,-3.2 l 0,-12.8 -7.5,0 0,-1.9 9.6,0 0,14.9 z m 13.2,52.5 -7.3,0 0,-32.7 7.3,0 0,32.7 z m -4.2,-64 0,17.7 -2.1,0 0,-20.9 2.2,0 13,17.7 0,-17.7 2,0 0,20.9 -2.2,0 -12.9,-17.7 z m 38.1,64 -24.1,0 0,-32.7 23.6,0 0,6.5 -16.3,0 0,6.7 14.6,0 0,6.2 -14.6,0 0,6.8 16.8,0 0,6.5 z m 28.7,-2.3 c -2.2,1.8 -5.1,2.7 -8.7,2.7 -5.2,0 -9.8,-1.9 -14,-5.8 l 4.4,-5.3 c 3.5,3.1 6.8,4.6 9.8,4.6 1.3,0 2.4,-0.3 3.2,-0.9 0.8,-0.6 1.1,-1.4 1.1,-2.3 0,-1 -0.4,-1.8 -1.2,-2.3 -0.8,-0.6 -2.4,-1.2 -4.8,-1.8 -3.8,-0.9 -6.6,-2.1 -8.4,-3.5 -1.8,-1.4 -2.6,-3.7 -2.6,-6.8 0,-3.1 1.1,-5.5 3.3,-7.2 2.2,-1.7 5,-2.5 8.4,-2.5 2.2,0 4.4,0.4 6.6,1.1 2.2,0.7 4.1,1.8 5.7,3.2 l -3.7,5.3 c -2.8,-2.2 -5.8,-3.2 -8.8,-3.2 -1.2,0 -2.2,0.3 -2.9,0.9 -0.7,0.6 -1.1,1.3 -1.1,2.3 0,1 0.4,1.7 1.3,2.3 0.9,0.6 2.8,1.2 5.9,2 3.1,0.8 5.5,1.9 7.2,3.4 1.7,1.5 2.6,3.8 2.6,6.7 0,2.9 -1.1,5.2 -3.3,7.1 z m 36.3,2.3 -27.4,0 0,-5 17.1,-21.4 -16.6,0 0,-6.3 26.5,0 0,5.1 -17.1,21.3 17.4,0 0,6.3 z m 0,-46.3 -14.4,0 0,-20.9 14,0 0,1.9 -11.9,0 0,7.5 10.7,0 0,1.9 -10.7,0 0,7.9 12.3,0 0,1.7 z"
         id="path389"
         inkscape:connector-curvature="0"
         style="fill:#ef420c" /><polygon
         class="st12"
         points="-1006.1,993.7 -1011,1005 -1001.1,1005 "
         id="polygon391"
         style="fill:#ef420c" /></g></g><path
     class="st12"
     d="m -804.8,693.8 c 0,-10.3 -7.9,-18.7 -18,-19.6 l 0,81.2 c 0,15.8 -12.9,28.7 -28.7,28.7 l -184.6,0 c 1.2,9.7 9.5,17.2 19.5,17.2 l 182,0 29.8,29.8 0,-48 -0.1,0 c 0,-0.5 0.1,-1 0.1,-1.5 l 0,-87.8 z"
     id="path393"
     inkscape:connector-curvature="0"
     style="fill:#ef420c" /><path
     class="st13"
     d="m -831.8,662.7 c 0,-10.9 -8.8,-19.7 -19.7,-19.7 l -201.1,0 c -10.9,0 -19.7,8.8 -19.7,19.7 l 0,92.7 c 0,0.3 0,0.5 0,0.8 l 0,0 0,49.8 31,-31 189.8,0 c 10.9,0 19.7,-8.8 19.7,-19.7 l 0,-92.6 z"
     id="path395"
     inkscape:connector-curvature="0"
     style="fill:#ffffff" /><g
     id="g397"
     transform="translate(0,-100)"><g
       id="g399"><g
         id="g401"><path
           class="st0"
           d="m -1032,777.6 13.1,0 0,1.9 -11,0 0,8 9.8,0 0,1.9 -9.8,0 0,9.2 -2.1,0 0,-21 z"
           id="path403"
           inkscape:connector-curvature="0"
           style="fill:#0a264f" /><path
           class="st0"
           d="m -999.9,798.5 -2.5,-5.6 -11.6,0 -2.5,5.6 -2.2,0 9.4,-20.9 2.2,0 9.4,20.9 -2.2,0 z m -13.3,-7.4 10,0 -5,-11.3 -5,11.3 z"
           id="path405"
           inkscape:connector-curvature="0"
           style="fill:#0a264f" /><path
           class="st0"
           d="m -985.6,797 c -1,1.1 -2.5,1.6 -4.3,1.6 -1.1,0 -2.2,-0.3 -3.1,-0.8 -1,-0.5 -1.8,-1.2 -2.5,-2.2 l 1,-1.6 c 0.6,0.8 1.4,1.4 2.2,1.9 0.8,0.4 1.6,0.6 2.5,0.6 1.2,0 2.1,-0.4 2.8,-1.1 0.6,-0.7 1,-1.8 1,-3.2 l 0,-12.8 -7.5,0 0,-1.9 9.6,0 0,14.8 c -0.1,2.1 -0.6,3.6 -1.7,4.7 z"
           id="path407"
           inkscape:connector-curvature="0"
           style="fill:#0a264f" /><path
           class="st0"
           d="m -962,777.6 2,0 0,20.9 -2.2,0 -13,-17.7 0,17.7 -2.1,0 0,-20.9 2.2,0 13,17.7 0,-17.7 z"
           id="path409"
           inkscape:connector-curvature="0"
           style="fill:#0a264f" /><path
           class="st0"
           d="m -952.7,777.6 2.1,0 0,20.9 -2.1,0 0,-20.9 z"
           id="path411"
           inkscape:connector-curvature="0"
           style="fill:#0a264f" /><path
           class="st0"
           d="m -943.5,777.6 14,0 0,1.9 -11.9,0 0,7.5 10.7,0 0,1.9 -10.7,0 0,7.9 12.3,0 0,1.9 -14.4,0 0,-21.1 z"
           id="path413"
           inkscape:connector-curvature="0"
           style="fill:#0a264f" /><path
           class="st0"
           d="m -922.7,796.5 c 0.2,0.2 0.4,0.6 0.4,1 0,0.3 -0.1,0.7 -0.3,1.1 l -1.5,3.4 -1.2,0 1.2,-3.4 c -0.2,-0.1 -0.4,-0.3 -0.6,-0.5 -0.1,-0.2 -0.2,-0.4 -0.2,-0.7 0,-0.4 0.1,-0.7 0.4,-1 0.2,-0.3 0.6,-0.4 0.9,-0.4 0.4,0.1 0.7,0.2 0.9,0.5 z"
           id="path415"
           inkscape:connector-curvature="0"
           style="fill:#0a264f" /><path
           class="st0"
           d="m -907.8,777.6 16.5,0 0,1.6 -14.2,17.5 14.3,0 0,1.9 -17,0 0,-1.6 14.2,-17.4 -13.8,0 0,-2 z m 9.2,-4.4 c 0.3,0.3 0.4,0.6 0.4,1 0,0.4 -0.1,0.7 -0.4,1 -0.3,0.3 -0.6,0.4 -1,0.4 -0.4,0 -0.7,-0.1 -1,-0.4 -0.3,-0.3 -0.4,-0.6 -0.4,-1 0,-0.4 0.1,-0.7 0.4,-1 0.3,-0.3 0.6,-0.4 1,-0.4 0.4,-0.1 0.8,0.1 1,0.4 z"
           id="path417"
           inkscape:connector-curvature="0"
           style="fill:#0a264f" /><path
           class="st0"
           d="m -886.3,777.6 14,0 0,1.9 -11.9,0 0,7.5 10.7,0 0,1.9 -10.7,0 0,7.9 12.3,0 0,1.9 -14.4,0 0,-21.1 z"
           id="path419"
           inkscape:connector-curvature="0"
           style="fill:#0a264f" /></g><g
         id="g421"><path
           class="st0"
           d="m -1017.7,831 5.8,-18.8 7.6,0 5.8,18.8 6.5,-18.8 7.9,0 -11.4,32.7 -5.4,0 -7.2,-22.7 -7.1,22.7 -5.4,0 -11.4,-32.7 7.9,0 6.4,18.8 z"
           id="path423"
           inkscape:connector-curvature="0"
           style="fill:#0a264f" /><path
           class="st0"
           d="m -978.2,812.2 7.3,0 0,32.7 -7.3,0 0,-32.7 z"
           id="path425"
           inkscape:connector-curvature="0"
           style="fill:#0a264f" /><path
           class="st0"
           d="m -937.5,812.2 0,6.5 -16.3,0 0,6.7 14.6,0 0,6.2 -14.6,0 0,6.8 16.8,0 0,6.5 -24.1,0 0,-32.7 23.6,0 z"
           id="path427"
           inkscape:connector-curvature="0"
           style="fill:#0a264f" /><path
           class="st0"
           d="m -921,818.7 c -0.7,0.6 -1.1,1.3 -1.1,2.3 0,1 0.4,1.7 1.3,2.3 0.9,0.6 2.8,1.2 5.9,2 3.1,0.8 5.5,1.9 7.2,3.4 1.7,1.5 2.6,3.8 2.6,6.7 0,2.9 -1.1,5.3 -3.3,7.1 -2.2,1.8 -5.1,2.7 -8.7,2.7 -5.2,0 -9.8,-1.9 -14,-5.8 l 4.4,-5.3 c 3.5,3.1 6.8,4.6 9.8,4.6 1.3,0 2.4,-0.3 3.2,-0.9 0.8,-0.6 1.1,-1.4 1.1,-2.3 0,-1 -0.4,-1.8 -1.2,-2.3 -0.8,-0.6 -2.4,-1.2 -4.8,-1.8 -3.8,-0.9 -6.6,-2.1 -8.4,-3.5 -1.8,-1.4 -2.6,-3.7 -2.6,-6.8 0,-3.1 1.1,-5.5 3.3,-7.2 2.2,-1.7 5,-2.5 8.4,-2.5 2.2,0 4.4,0.4 6.6,1.1 2.2,0.7 4.1,1.8 5.7,3.2 l -3.7,5.3 c -2.8,-2.2 -5.8,-3.2 -8.8,-3.2 -1.2,0 -2.2,0.3 -2.9,0.9 z"
           id="path429"
           inkscape:connector-curvature="0"
           style="fill:#0a264f" /><path
           class="st0"
           d="m -899.3,844.9 0,-5 17.1,-21.4 -16.6,0 0,-6.3 26.5,0 0,5.1 -17.1,21.3 17.4,0 0,6.4 -27.3,0 z"
           id="path431"
           inkscape:connector-curvature="0"
           style="fill:#0a264f" /></g></g></g><text
     style="font-size:28.60479927px;font-family:Montserrat-Light;letter-spacing:1"
     id="text433"
     x="-1231.2401"
     y="-17.542999">gwna</text>
<text
     style="font-size:28.60479927px;font-family:Montserrat-Light;letter-spacing:1"
     id="text435"
     x="-683.9834"
     y="-17.542999">gwna</text>
<text
     style="font-size:28.60479927px;font-family:Montserrat-Light;letter-spacing:1"
     id="text437"
     x="-1231.2401"
     y="253.94351">pomocne</text>
<rect
     x="-705.20001"
     y="563.09998"
     class="st12"
     width="902.5"
     height="509.5"
     id="rect439"
     style="fill:#ef420c" /><g
     id="g441"
     transform="translate(0,-100)"><g
       id="g443"><g
         id="g445"><path
           class="st0"
           d="m -294.4,1007.6 c 0,-10.3 -7.9,-18.7 -18,-19.6 l 0,81.2 c 0,15.8 -12.9,28.7 -28.7,28.7 l -184.6,0 c 1.2,9.7 9.5,17.2 19.5,17.2 l 182,0 29.8,29.8 0,-48 -0.1,0 c 0,-0.5 0.1,-1 0.1,-1.5 l 0,-87.8 z"
           id="path447"
           inkscape:connector-curvature="0"
           style="fill:#0a264f" /></g><g
         id="g449"><g
           id="g451"><g
             id="g453"><path
               class="st0"
               d="m -341.1,956.8 -201.1,0 c -10.9,0 -19.7,8.8 -19.7,19.7 l 0,92.7 c 0,0.3 0,0.5 0,0.8 l 0,0 0,49.8 31,-31 189.8,0 c 10.9,0 19.7,-8.8 19.7,-19.7 l 0,-92.7 c 0,-10.8 -8.8,-19.6 -19.7,-19.6 z m -49.1,30.2 c 0.3,-0.3 0.6,-0.4 1,-0.4 0.4,0 0.7,0.1 1,0.4 0.3,0.3 0.4,0.6 0.4,1 0,0.4 -0.1,0.7 -0.4,1 -0.3,0.3 -0.6,0.4 -1,0.4 -0.4,0 -0.7,-0.1 -1,-0.4 -0.3,-0.3 -0.4,-0.6 -0.4,-1 0.1,-0.4 0.2,-0.7 0.4,-1 z m -7.6,23.8 14.2,-17.4 -13.8,0 0,-1.9 16.5,0 0,1.6 -14.2,17.5 14.3,0 0,1.9 -17,0 0,-1.7 z m -16.5,1.2 c -0.1,-0.2 -0.2,-0.4 -0.2,-0.7 0,-0.4 0.1,-0.7 0.4,-1 0.2,-0.3 0.6,-0.4 0.9,-0.4 0.4,0 0.7,0.1 0.9,0.4 0.2,0.3 0.4,0.6 0.4,1 0,0.3 -0.1,0.7 -0.3,1.1 l -1.5,3.4 -1.2,0 1.2,-3.4 c -0.3,-0.1 -0.5,-0.2 -0.6,-0.4 z m -18.8,-20.5 14,0 0,1.9 -11.9,0 0,7.5 10.7,0 0,1.9 -10.7,0 0,7.9 12.3,0 0,1.9 -14.4,0 0,-21.1 z m -9.3,0 2.1,0 0,20.9 -2.1,0 0,-20.9 z m -56.5,0 2.2,0 9.4,20.9 -2.2,0 -2.5,-5.6 -11.6,0 -2.5,5.6 -2.2,0 9.4,-20.9 z m -22.8,0 13.1,0 0,1.9 -11,0 0,8 9.8,0 0,1.9 -9.8,0 0,9.2 -2.1,0 0,-21 z m 36.6,67.2 -5.4,0 -7.2,-22.7 -7.1,22.7 -5.4,0 -11.4,-32.7 7.9,0 6.5,18.8 5.8,-18.8 7.6,0 5.8,18.8 6.5,-18.8 7.9,0 -11.5,32.7 z m 11.4,-52.5 c 0,2 -0.5,3.5 -1.5,4.6 -1,1.1 -2.5,1.6 -4.3,1.6 -1.1,0 -2.2,-0.3 -3.1,-0.8 -1,-0.5 -1.8,-1.2 -2.5,-2.2 l 1,-1.6 c 0.6,0.8 1.4,1.4 2.2,1.9 0.8,0.4 1.6,0.6 2.5,0.6 1.2,0 2.1,-0.4 2.8,-1.1 0.7,-0.7 1,-1.8 1,-3.2 l 0,-12.8 -7.5,0 0,-1.9 9.6,0 0,14.9 z m 13.2,52.5 -7.3,0 0,-32.7 7.3,0 0,32.7 z m -4.2,-64 0,17.7 -2.1,0 0,-20.9 2.2,0 13,17.7 0,-17.7 2,0 0,20.9 -2.2,0 -12.9,-17.7 z m 38.1,64 -24.1,0 0,-32.7 23.6,0 0,6.5 -16.3,0 0,6.7 14.6,0 0,6.2 -14.6,0 0,6.8 16.8,0 0,6.5 z m 28.7,-2.3 c -2.2,1.8 -5.1,2.7 -8.7,2.7 -5.2,0 -9.8,-1.9 -14,-5.8 l 4.4,-5.3 c 3.5,3.1 6.8,4.6 9.8,4.6 1.3,0 2.4,-0.3 3.2,-0.9 0.8,-0.6 1.1,-1.4 1.1,-2.3 0,-1 -0.4,-1.8 -1.2,-2.3 -0.8,-0.6 -2.4,-1.2 -4.8,-1.8 -3.8,-0.9 -6.6,-2.1 -8.4,-3.5 -1.8,-1.4 -2.6,-3.7 -2.6,-6.8 0,-3.1 1.1,-5.5 3.3,-7.2 2.2,-1.7 5,-2.5 8.4,-2.5 2.2,0 4.4,0.4 6.6,1.1 2.2,0.7 4.1,1.8 5.7,3.2 l -3.7,5.3 c -2.8,-2.2 -5.8,-3.2 -8.8,-3.2 -1.2,0 -2.2,0.3 -2.9,0.9 -0.7,0.6 -1.1,1.3 -1.1,2.3 0,1 0.4,1.7 1.3,2.3 0.9,0.6 2.8,1.2 5.9,2 3.1,0.8 5.5,1.9 7.2,3.4 1.7,1.5 2.6,3.8 2.6,6.7 0,2.9 -1.1,5.2 -3.3,7.1 z m 36.3,2.3 -27.4,0 0,-5 17.1,-21.4 -16.6,0 0,-6.3 26.5,0 0,5.1 -17.1,21.3 17.4,0 0,6.3 z m 0,-46.3 -14.4,0 0,-20.9 14,0 0,1.9 -11.9,0 0,7.5 10.7,0 0,1.9 -10.7,0 0,7.9 12.3,0 0,1.7 z"
               id="path455"
               inkscape:connector-curvature="0"
               style="fill:#0a264f" /></g></g><g
           id="g457"><polygon
             class="st0"
             points="-497.9,993.7 -502.8,1005 -492.9,1005 "
             id="polygon459"
             style="fill:#0a264f" /></g></g></g></g><g
     id="g461"
     transform="translate(0,-100)"><g
       id="g463"><g
         id="g465"><path
           class="st13"
           d="m 86.3,1007.6 c 0,-10.3 -7.9,-18.7 -18,-19.6 l 0,81.2 c 0,15.8 -12.9,28.7 -28.7,28.7 l -184.6,0 c 1.2,9.7 9.5,17.2 19.5,17.2 l 182,0 29.8,29.8 0,-48 -0.1,0 c 0,-0.5 0.1,-1 0.1,-1.5 l 0,-87.8 z"
           id="path467"
           inkscape:connector-curvature="0"
           style="fill:#ffffff" /></g><g
         id="g469"><g
           id="g471"><g
             id="g473"><path
               class="st13"
               d="m 39.6,956.8 -201.1,0 c -10.9,0 -19.7,8.8 -19.7,19.7 l 0,92.7 c 0,0.3 0,0.5 0,0.8 l 0,0 0,49.8 31,-31 189.8,0 c 10.9,0 19.7,-8.8 19.7,-19.7 l 0,-92.7 c 0,-10.8 -8.8,-19.6 -19.7,-19.6 z M -9.5,987 c 0.3,-0.3 0.6,-0.4 1,-0.4 0.4,0 0.7,0.1 1,0.4 0.3,0.3 0.4,0.6 0.4,1 0,0.4 -0.1,0.7 -0.4,1 -0.3,0.3 -0.6,0.4 -1,0.4 -0.4,0 -0.7,-0.1 -1,-0.4 -0.3,-0.3 -0.4,-0.6 -0.4,-1 0.1,-0.4 0.2,-0.7 0.4,-1 z m -7.6,23.8 14.2,-17.4 -13.8,0 0,-1.9 16.5,0 0,1.6 -14.2,17.5 14.3,0 0,1.9 -17,0 0,-1.7 z m -16.5,1.2 c -0.1,-0.2 -0.2,-0.4 -0.2,-0.7 0,-0.4 0.1,-0.7 0.4,-1 0.2,-0.3 0.6,-0.4 0.9,-0.4 0.4,0 0.7,0.1 0.9,0.4 0.2,0.3 0.4,0.6 0.4,1 0,0.3 -0.1,0.7 -0.3,1.1 l -1.5,3.4 -1.2,0 1.2,-3.4 c -0.3,-0.1 -0.5,-0.2 -0.6,-0.4 z m -18.8,-20.5 14,0 0,1.9 -11.9,0 0,7.5 10.7,0 0,1.9 -10.7,0 0,7.9 12.3,0 0,1.9 -14.4,0 0,-21.1 z m -9.3,0 2.1,0 0,20.9 -2.1,0 0,-20.9 z m -56.5,0 2.2,0 9.4,20.9 -2.2,0 -2.5,-5.6 -11.7,0 -2.5,5.6 -2.2,0 9.5,-20.9 z m -22.8,0 13.1,0 0,1.9 -11,0 0,8 9.8,0 0,1.9 -9.8,0 0,9.2 -2.1,0 0,-21 z m 36.6,67.2 -5.4,0 -7.2,-22.7 -7.1,22.7 -5.4,0 -11.5,-32.7 7.9,0 6.5,18.8 5.8,-18.8 7.6,0 5.8,18.8 6.5,-18.8 7.9,0 -11.4,32.7 z m 11.4,-52.5 c 0,2 -0.5,3.5 -1.5,4.6 -1,1.1 -2.5,1.6 -4.3,1.6 -1.1,0 -2.2,-0.3 -3.1,-0.8 -1,-0.5 -1.8,-1.2 -2.5,-2.2 l 1,-1.6 c 0.6,0.8 1.4,1.4 2.2,1.9 0.8,0.4 1.6,0.6 2.5,0.6 1.2,0 2.1,-0.4 2.8,-1.1 0.7,-0.7 1,-1.8 1,-3.2 l 0,-12.8 -7.5,0 0,-1.9 9.6,0 0,14.9 z m 13.2,52.5 -7.3,0 0,-32.7 7.3,0 0,32.7 z m -4.2,-64 0,17.7 -2.1,0 0,-20.9 2.2,0 13,17.7 0,-17.7 2,0 0,20.9 -2.1,0 -13,-17.7 z m 38.1,64 -24.1,0 0,-32.7 23.6,0 0,6.5 -16.3,0 0,6.7 14.7,0 0,6.2 -14.6,0 0,6.8 16.8,0 0,6.5 z m 28.7,-2.3 c -2.2,1.8 -5.1,2.7 -8.7,2.7 -5.2,0 -9.8,-1.9 -14,-5.8 l 4.4,-5.3 c 3.5,3.1 6.8,4.6 9.8,4.6 1.3,0 2.4,-0.3 3.2,-0.9 0.8,-0.6 1.1,-1.4 1.1,-2.3 0,-1 -0.4,-1.8 -1.2,-2.3 -0.8,-0.6 -2.4,-1.2 -4.8,-1.8 -3.8,-0.9 -6.6,-2.1 -8.4,-3.5 -1.8,-1.4 -2.6,-3.7 -2.6,-6.8 0,-3.1 1.1,-5.5 3.3,-7.2 2.2,-1.7 5,-2.5 8.4,-2.5 2.2,0 4.4,0.4 6.6,1.1 2.2,0.7 4.1,1.8 5.7,3.2 l -3.7,5.3 c -2.8,-2.2 -5.8,-3.2 -8.8,-3.2 -1.2,0 -2.2,0.3 -2.9,0.9 -0.7,0.6 -1.1,1.3 -1.1,2.3 0,1 0.4,1.7 1.3,2.3 0.9,0.6 2.8,1.2 5.9,2 3.1,0.8 5.5,1.9 7.2,3.4 1.7,1.5 2.6,3.8 2.6,6.7 0,2.9 -1.1,5.2 -3.3,7.1 z m 36.3,2.3 -27.4,0 0,-5 17.1,-21.4 -16.5,0 0,-6.3 26.5,0 0,5.1 -17.1,21.3 17.4,0 0,6.3 z m 0,-46.3 -14.4,0 0,-20.9 14,0 0,1.9 -11.9,0 0,7.5 10.7,0 0,1.9 -10.7,0 0,7.9 12.3,0 0,1.7 z"
               id="path475"
               inkscape:connector-curvature="0"
               style="fill:#ffffff" /></g></g><g
           id="g477"><polygon
             class="st13"
             points="-117.2,993.7 -122.1,1005 -112.2,1005 "
             id="polygon479"
             style="fill:#ffffff" /></g></g></g></g><path
     class="st0"
     d="m -299,693.8 c 0,-10.3 -7.9,-18.7 -18,-19.6 l 0,81.2 c 0,15.8 -12.9,28.7 -28.7,28.7 l -184.6,0 c 1.2,9.7 9.5,17.2 19.5,17.2 l 182,0 29.8,29.7 0,-48 -0.1,0 c 0,-0.5 0.1,-1 0.1,-1.5 l 0,-87.7 z"
     id="path481"
     inkscape:connector-curvature="0"
     style="fill:#0a264f" /><g
     id="g483"
     transform="translate(0,-100)"><polygon
       class="st13"
       points="-502.5,779.8 -507.5,791.1 -497.5,791.1 "
       id="polygon485"
       style="fill:#ffffff" /><path
       class="st13"
       d="m -345.7,743 -201.1,0 c -10.9,0 -19.7,8.8 -19.7,19.7 l 0,92.7 c 0,0.3 0,0.5 0,0.8 l 0,0 0,49.8 31,-31 189.8,0 c 10.9,0 19.7,-8.8 19.7,-19.7 l 0,-92.7 c 0,-10.8 -8.8,-19.6 -19.7,-19.6 z m -49.1,30.2 c 0.3,-0.3 0.6,-0.4 1,-0.4 0.4,0 0.7,0.1 1,0.4 0.3,0.3 0.4,0.6 0.4,1 0,0.4 -0.1,0.7 -0.4,1 -0.3,0.3 -0.6,0.4 -1,0.4 -0.4,0 -0.7,-0.1 -1,-0.4 -0.3,-0.3 -0.4,-0.6 -0.4,-1 0,-0.4 0.2,-0.8 0.4,-1 z m -7.6,23.7 14.2,-17.4 -13.8,0 0,-1.9 16.5,0 0,1.6 -14.2,17.5 14.3,0 0,1.9 -17,0 0,-1.7 z m -16.5,1.2 c -0.1,-0.2 -0.2,-0.4 -0.2,-0.7 0,-0.4 0.1,-0.7 0.4,-1 0.2,-0.3 0.6,-0.4 0.9,-0.4 0.4,0 0.7,0.1 0.9,0.4 0.2,0.2 0.4,0.6 0.4,1 0,0.3 -0.1,0.7 -0.3,1.1 l -1.5,3.4 -1.2,0 1.2,-3.4 c -0.3,0 -0.5,-0.2 -0.6,-0.4 z m -18.9,-20.5 14,0 0,1.9 -11.9,0 0,7.5 10.7,0 0,1.9 -10.7,0 0,7.9 12.3,0 0,1.9 -14.4,0 0,-21.1 z m -9.2,0 2.1,0 0,20.9 -2.1,0 0,-20.9 z m -56.5,0 2.2,0 9.4,20.9 -2.2,0 -2.5,-5.6 -11.6,0 -2.5,5.6 -2.2,0 9.4,-20.9 z m -22.8,0 13.1,0 0,1.9 -11,0 0,8 9.8,0 0,1.9 -9.8,0 0,9.2 -2.1,0 0,-21 z m 36.6,67.3 -5.4,0 -7.2,-22.7 -7.1,22.7 -5.4,0 -11.4,-32.7 7.9,0 6.5,18.8 5.8,-18.8 7.6,0 5.8,18.8 6.5,-18.8 7.9,0 -11.5,32.7 z m 11.4,-52.5 c 0,2 -0.5,3.5 -1.5,4.6 -1,1.1 -2.5,1.6 -4.3,1.6 -1.1,0 -2.2,-0.3 -3.1,-0.8 -1,-0.5 -1.8,-1.2 -2.5,-2.2 l 1,-1.6 c 0.6,0.8 1.4,1.4 2.2,1.9 0.8,0.4 1.6,0.6 2.5,0.6 1.2,0 2.1,-0.4 2.8,-1.1 0.6,-0.7 1,-1.8 1,-3.2 l 0,-12.8 -7.5,0 0,-1.9 9.6,0 0,14.9 z m 13.1,52.5 -7.3,0 0,-32.7 7.3,0 0,32.7 z m -4.1,-64.1 0,17.7 -2.1,0 0,-20.9 2.2,0 13,17.7 0,-17.7 2,0 0,20.9 -2.2,0 -12.9,-17.7 z m 38.1,64.1 -24.1,0 0,-32.7 23.6,0 0,6.5 -16.3,0 0,6.7 14.6,0 0,6.2 -14.6,0 0,6.8 16.8,0 0,6.5 z m 28.6,-2.4 c -2.2,1.8 -5.1,2.7 -8.7,2.7 -5.2,0 -9.8,-1.9 -14,-5.8 l 4.4,-5.3 c 3.5,3.1 6.8,4.6 9.8,4.6 1.3,0 2.4,-0.3 3.2,-0.9 0.8,-0.6 1.1,-1.4 1.1,-2.3 0,-1 -0.4,-1.8 -1.2,-2.3 -0.8,-0.6 -2.4,-1.2 -4.8,-1.8 -3.8,-0.9 -6.6,-2.1 -8.4,-3.5 -1.8,-1.5 -2.6,-3.7 -2.6,-6.8 0,-3.1 1.1,-5.5 3.3,-7.2 2.2,-1.7 5,-2.5 8.4,-2.5 2.2,0 4.4,0.4 6.6,1.1 2.2,0.7 4.1,1.8 5.7,3.2 l -3.7,5.3 c -2.8,-2.2 -5.8,-3.2 -8.8,-3.2 -1.2,0 -2.2,0.3 -2.9,0.9 -0.7,0.6 -1.1,1.3 -1.1,2.3 0,1 0.4,1.7 1.3,2.3 0.9,0.6 2.8,1.2 5.9,2 3.1,0.8 5.5,1.9 7.2,3.4 1.7,1.5 2.6,3.8 2.6,6.7 0,2.9 -1.1,5.3 -3.3,7.1 z m 36.4,2.4 -27.4,0 0,-5 17.1,-21.4 -16.5,0 0,-6.3 26.5,0 0,5.1 -17.1,21.3 17.4,0 0,6.3 z m 0,-46.4 -14.4,0 0,-20.9 14,0 0,1.9 -11.9,0 0,7.5 10.7,0 0,1.9 -10.7,0 0,7.9 12.3,0 0,1.7 z"
       id="path487"
       inkscape:connector-curvature="0"
       style="fill:#ffffff" /></g></svg>