<svg xmlns="http://www.w3.org/2000/svg" width="127.829" height="95.757" viewBox="0 0 127.829 95.757"><defs><style>.a{fill:#ef420c;}.b{fill:#fff;}</style></defs><g transform="translate(-15.064 -28.005)"><path class="a" d="M35.579,80.2h.2l25.587.5a2.524,2.524,0,0,1,1.454.515A2.985,2.985,0,0,1,63.7,82.46a3.145,3.145,0,0,1,.185,1.559,2.887,2.887,0,0,1-.674,1.52L40.046,112.871a3,3,0,0,1-.41.41,2.539,2.539,0,0,1-.463.3,3.013,3.013,0,0,1-.476.2,2.016,2.016,0,0,1-.489.106,2.847,2.847,0,0,1-1.057-.079,2.61,2.61,0,0,1-.952-.489,2.7,2.7,0,0,1-.7-.846,2.8,2.8,0,0,1-.33-1.176L32.923,83.412a3.134,3.134,0,0,1,.674-2.22,2.8,2.8,0,0,1,.872-.7A2.942,2.942,0,0,1,35.579,80.2Z" transform="translate(2.204 9.856)"/><path class="a" d="M136.028,33.25a6.237,6.237,0,0,1,2.762.608A7.45,7.45,0,0,1,141.1,35.6a8.727,8.727,0,0,1,1.607,2.643,9.806,9.806,0,0,1,.7,3.2l2.27,46.112a9.65,9.65,0,0,1-.372,3.2,9.076,9.076,0,0,1-1.328,2.775,7.813,7.813,0,0,1-2.071,2.049,6.433,6.433,0,0,1-2.655,1.044l-105.17,16.1a10.216,10.216,0,0,1-4.1-.159,9.722,9.722,0,0,1-3.532-1.652,9.188,9.188,0,0,1-2.536-2.855,8.848,8.848,0,0,1-1.168-3.82L17.9,45.991a9.7,9.7,0,0,1,2.6-7.48A10.334,10.334,0,0,1,23.767,36.2a10.767,10.767,0,0,1,4.116-.9Z" transform="translate(-2.8 -5.244)"/><g transform="translate(31.183 36.961)"><path class="b" d="M104.954,70.227a3.715,3.715,0,0,1,.938,0,1.2,1.2,0,0,1,.621.3,1.534,1.534,0,0,1,.357.661,4.756,4.756,0,0,1,.159,1.057v1a7.417,7.417,0,0,1,0,1.084,1.707,1.707,0,0,1-.291.74,1.534,1.534,0,0,1-.582.463,3.662,3.662,0,0,1-.925.238L104,75.937a2.717,2.717,0,0,1-.925,0,1.089,1.089,0,0,1-.621-.291,1.559,1.559,0,0,1-.37-.661,4.992,4.992,0,0,1-.159-1.071V72.9a5.07,5.07,0,0,1,0-1.1,1.706,1.706,0,0,1,.291-.74,1.642,1.642,0,0,1,.581-.463,3.159,3.159,0,0,1,.925-.225Z" transform="translate(-6.367 -30.575)"/><path class="b" d="M102.445,71.934l-1.071-12.6a1.686,1.686,0,0,1,0-.515.622.622,0,0,1,.145-.344.664.664,0,0,1,.291-.211,1.373,1.373,0,0,1,.463-.093l2.815-.251a1.358,1.358,0,0,1,.463,0,.7.7,0,0,1,.317.145.745.745,0,0,1,.172.317,1.684,1.684,0,0,1,0,.515l.211,12.555v.529a1.163,1.163,0,0,1-.132.357.7.7,0,0,1-.264.211,1.242,1.242,0,0,1-.436.106l-2.022.251a2.549,2.549,0,0,1-.449,0,.524.524,0,0,1-.3-.159.793.793,0,0,1-.172-.33A2.025,2.025,0,0,1,102.445,71.934Z" transform="translate(-6.541 -34.529)"/><path class="b" d="M105.314,42.845a.7.7,0,0,1,.33,0,.357.357,0,0,1,.225.132.465.465,0,0,1,.132.251,1.855,1.855,0,0,1,0,.383l.093,1.758a1.987,1.987,0,0,1,0,.4.511.511,0,0,1-.106.278.636.636,0,0,1-.211.159,1.383,1.383,0,0,1-.33,0l-4.427.238.093,1.758,3.542-.2A.754.754,0,0,1,105,48a.416.416,0,0,1,.225.119.465.465,0,0,1,.132.251,1.227,1.227,0,0,1,.066.383l.093,1.877a1.988,1.988,0,0,1,0,.4.655.655,0,0,1-.106.264.637.637,0,0,1-.211.159.993.993,0,0,1-.344.066l-3.529.225.093,1.89,4.573-.3a.7.7,0,0,1,.33,0,.671.671,0,0,1,.211.119.465.465,0,0,1,.132.251,1.856,1.856,0,0,1,0,.383l.093,1.771a1.985,1.985,0,0,1,0,.4.537.537,0,0,1-.106.251.338.338,0,0,1-.2.159.7.7,0,0,1-.33,0l-7.176.555a.754.754,0,0,1-.344,0,.41.41,0,0,1-.238-.119.465.465,0,0,1-.132-.251,1.858,1.858,0,0,1,0-.383l-.648-12.41a1.99,1.99,0,0,1,0-.4.955.955,0,0,1,.119-.264.636.636,0,0,1,.211-.159,1.493,1.493,0,0,1,.344,0Z" transform="translate(-7.758 -39.379)"/><path class="b" d="M93.166,43.406a2.547,2.547,0,0,1-.634,0,.781.781,0,0,1-.423-.225.988.988,0,0,1-.238-.449,3.448,3.448,0,0,1-.106-.74v-.159a3.468,3.468,0,0,1,0-.74,1.235,1.235,0,0,1,.185-.476.732.732,0,0,1,.4-.264,2.06,2.06,0,0,1,.634-.106h.106a1.778,1.778,0,0,1,.648,0,.784.784,0,0,1,.41.225,1.034,1.034,0,0,1,.238.463,3.446,3.446,0,0,1,.106.74v.159a3.339,3.339,0,0,1,0,.727.924.924,0,0,1-.185.476.914.914,0,0,1-.4.264,2.434,2.434,0,0,1-.621.093Z" transform="translate(-9.632 -40.217)"/><path class="b" d="M102.248,59.035a1.684,1.684,0,0,1,.515,0,.571.571,0,0,1,.344.172.679.679,0,0,1,.2.37,4.111,4.111,0,0,1,.079.582l.093,1.758v.727a2.672,2.672,0,0,1-.093.3,2.109,2.109,0,0,1-.132.3l-6.489,12.3,6.5-.793a3.183,3.183,0,0,1,.5,0,.571.571,0,0,1,.344.172.736.736,0,0,1,.2.357,4.1,4.1,0,0,1,.079.582l.145,2.643a2.141,2.141,0,0,1,0,.582,1.022,1.022,0,0,1-.145.4.838.838,0,0,1-.317.251,1.66,1.66,0,0,1-.5.132L91.278,81.529a1.774,1.774,0,0,1-.529,0,.872.872,0,0,1-.357-.159,1.037,1.037,0,0,1-.211-.37,2.139,2.139,0,0,1-.092-.582l-.106-1.824a1.729,1.729,0,0,1,0-.37,1.492,1.492,0,0,1,0-.344,2.035,2.035,0,0,1,.093-.3,2.147,2.147,0,0,1,.145-.3l6.608-12.516-6.423.648a1.772,1.772,0,0,1-.529,0,.714.714,0,0,1-.357-.185.868.868,0,0,1-.225-.383,2.334,2.334,0,0,1-.093-.608l-.159-2.723a2.34,2.34,0,0,1,0-.608.938.938,0,0,1,.172-.41.881.881,0,0,1,.33-.251,2.362,2.362,0,0,1,.529-.119Z" transform="translate(-10.507 -34.172)"/><path class="b" d="M98.744,53.872a.755.755,0,0,1,.344,0,.736.736,0,0,1,.225.119.465.465,0,0,1,.132.251,1.992,1.992,0,0,1,0,.4l.093,1.811a1,1,0,0,1,0,.4.656.656,0,0,1-.106.264.365.365,0,0,1-.211.159,1.448,1.448,0,0,1-.344.079l-8.3.634a1.61,1.61,0,0,1-.357,0,.41.41,0,0,1-.238-.119.476.476,0,0,1-.145-.264,1.988,1.988,0,0,1,0-.4l-.066-1.229a.8.8,0,0,1,0-.251V55.5l.079-.2a1.337,1.337,0,0,1,.092-.2l4.467-8.194-4.335.225a.813.813,0,0,1-.357,0A.529.529,0,0,1,89.48,47a.746.746,0,0,1-.145-.264,1.489,1.489,0,0,1-.066-.423l-.106-1.824a2.121,2.121,0,0,1,0-.41.955.955,0,0,1,.119-.264.394.394,0,0,1,.225-.159,1.611,1.611,0,0,1,.357,0l8.168-.383a1.493,1.493,0,0,1,.344,0,.429.429,0,0,1,.238.132.5.5,0,0,1,.132.264,1.858,1.858,0,0,1,0,.383l.066,1.2v.687l-.079.2-4.4,8.1Z" transform="translate(-10.466 -39.238)"/><path class="b" d="M86.411,51.855a1.359,1.359,0,0,1,.463,0,.6.6,0,0,1,.278.2.527.527,0,0,1,.093.317,1.283,1.283,0,0,1,0,.449L86.16,57.406a1.016,1.016,0,0,1-.119.37.69.69,0,0,1-.185.251.657.657,0,0,1-.251.172l-.37.066-1.031.079a.977.977,0,0,1-.278,0,.3.3,0,0,1-.159-.079.352.352,0,0,1-.185-.093,1.069,1.069,0,0,1,0-.291l.238-4.745a3.188,3.188,0,0,1,0-.5.769.769,0,0,1,.159-.33.591.591,0,0,1,.264-.211,2.043,2.043,0,0,1,.41-.079Z" transform="translate(-12.261 -36.481)"/><path class="b" d="M83.646,60.269a12.18,12.18,0,0,1,2.775,0,7.486,7.486,0,0,1,2.194.582,5.845,5.845,0,0,1,1.692,1.189,7.27,7.27,0,0,1,1.322,1.784,2.939,2.939,0,0,1,.211.568.915.915,0,0,1-.278.859,2.165,2.165,0,0,1-.489.344l-2.643,1.6-.185.106-.159.079h-.278a.718.718,0,0,1-.238,0,.444.444,0,0,1-.211-.132.962.962,0,0,1-.225-.238c-.079-.119-.159-.238-.225-.357a2.977,2.977,0,0,0-.529-.687,2,2,0,0,0-.674-.423,2.687,2.687,0,0,0-.793-.2,3.508,3.508,0,0,0-.912,0,7.575,7.575,0,0,0-1.216.225,2.626,2.626,0,0,0-.806.37,1.484,1.484,0,0,0-.436.555,1.5,1.5,0,0,0-.106.727,1.179,1.179,0,0,0,.344.793,1.971,1.971,0,0,0,.819.436,6.212,6.212,0,0,0,1.189.2h1.414a20.588,20.588,0,0,1,2.538.238,7.484,7.484,0,0,1,2.419.819,4.821,4.821,0,0,1,1.85,1.863,7.53,7.53,0,0,1,.886,3.37,7.166,7.166,0,0,1-.463,3.027,6.582,6.582,0,0,1-1.626,2.392,8.848,8.848,0,0,1-2.643,1.692,13.539,13.539,0,0,1-3.37.912,13.119,13.119,0,0,1-2.881.092,7.787,7.787,0,0,1-2.432-.582,6.154,6.154,0,0,1-1.9-1.322,6.062,6.062,0,0,1-1.322-1.982,1.545,1.545,0,0,1-.172-.595.967.967,0,0,1,0-.476.941.941,0,0,1,.278-.4,2.6,2.6,0,0,1,.5-.344l2.643-1.322.2-.093.172-.079h.33a.5.5,0,0,1,.278,0,.877.877,0,0,1,.251.119,1.016,1.016,0,0,1,.238.238,1.678,1.678,0,0,1,.238.357,2.588,2.588,0,0,0,.529.661,2.68,2.68,0,0,0,.727.423,3.707,3.707,0,0,0,.925.185,7.419,7.419,0,0,0,1.084,0,9.846,9.846,0,0,0,1.242-.251,3.976,3.976,0,0,0,.912-.4,1.838,1.838,0,0,0,.542-.608,1.557,1.557,0,0,0,.145-.846,1.078,1.078,0,0,0-.291-.727,1.639,1.639,0,0,0-.7-.41,4.838,4.838,0,0,0-1.057-.211,7.929,7.929,0,0,1-1.322-.079,14.157,14.157,0,0,1-2.643-.172,8.756,8.756,0,0,1-2.643-.74,5.035,5.035,0,0,1-2.115-1.85,7.61,7.61,0,0,1-1-3.542,7.242,7.242,0,0,1,.383-2.908,6.2,6.2,0,0,1,1.507-2.366A7.738,7.738,0,0,1,80,61.049,11.923,11.923,0,0,1,83.646,60.269Z" transform="translate(-14.848 -33.794)"/><path class="b" d="M83.685,43.862a1.859,1.859,0,0,1,.383,0,.6.6,0,0,1,.251.145.549.549,0,0,1,.159.264,2.208,2.208,0,0,1,.066.41l.106,1.864a1.139,1.139,0,0,1,0,.423,1.121,1.121,0,0,1-.119.291.475.475,0,0,1-.238.159,1.147,1.147,0,0,1-.37.066l-5,.278.119,1.864,3.965-.238a1.987,1.987,0,0,1,.4,0,.465.465,0,0,1,.251.132,1.08,1.08,0,0,1,.159.264,1.474,1.474,0,0,1,.066.41l.106,1.877a1.138,1.138,0,0,1,0,.423.441.441,0,0,1-.119.278.447.447,0,0,1-.238.172,1.858,1.858,0,0,1-.383,0l-3.965.264.119,2,5.141-.344a.874.874,0,0,1,.37,0,.512.512,0,0,1,.4.383c.026.132.053.278.066.41l.106,1.89a1.068,1.068,0,0,1,0,.41.526.526,0,0,1-.119.278.57.57,0,0,1-.225.172l-.37.066-8.088.621a.937.937,0,0,1-.383,0,.46.46,0,0,1-.264-.132.511.511,0,0,1-.159-.251,2.264,2.264,0,0,1,0-.423l-.819-13.216a1.14,1.14,0,0,1,0-.423.526.526,0,0,1,.119-.278.657.657,0,0,1,.251-.172,1.86,1.86,0,0,1,.383,0Z" transform="translate(-15.007 -39.048)"/><path class="b" d="M73.529,44.272a1.732,1.732,0,0,1,.37,0,.575.575,0,0,1,.251.132.958.958,0,0,1,.145.251c.026.132.053.264.066.4l.833,13.375a1,1,0,0,1,0,.4.526.526,0,0,1-.119.278.691.691,0,0,1-.225.159,1.61,1.61,0,0,1-.357,0l-2.313.172a.935.935,0,0,1-.383,0,.446.446,0,0,1-.251-.119.957.957,0,0,1-.145-.251,1.992,1.992,0,0,1,0-.4L70.542,45.2a2.122,2.122,0,0,1,0-.41.954.954,0,0,1,.119-.264.475.475,0,0,1,.238-.159,1.146,1.146,0,0,1,.37-.066Z" transform="translate(-16.455 -38.917)"/><path class="b" d="M76.344,61.395a2.239,2.239,0,0,1,.595,0,1.119,1.119,0,0,1,.4.2,1.073,1.073,0,0,1,.251.383,2.446,2.446,0,0,1,.106.621l.172,2.828a2.656,2.656,0,0,1,0,.648.96.96,0,0,1-.185.449.912.912,0,0,1-.37.264,2.186,2.186,0,0,1-.581.132l-7.824.793.185,2.842,6.265-.674a1.5,1.5,0,0,1,.595,0,.961.961,0,0,1,.41.185.894.894,0,0,1,.238.383,2.343,2.343,0,0,1,.106.608l.172,2.842a2.653,2.653,0,0,1,0,.648.982.982,0,0,1-.2.449.859.859,0,0,1-.37.278,2.186,2.186,0,0,1-.582.132l-6.251.74.2,3.053,8.036-.991a2.144,2.144,0,0,1,.582,0,.681.681,0,0,1,.383.172.7.7,0,0,1,.238.37,2.446,2.446,0,0,1,.106.621l.172,2.842a2.44,2.44,0,0,1,0,.621.893.893,0,0,1-.172.436.859.859,0,0,1-.37.278,2.868,2.868,0,0,1-.555.145l-12.7,1.7a2.443,2.443,0,0,1-.621,0,.8.8,0,0,1-.423-.172.789.789,0,0,1-.251-.4,2.446,2.446,0,0,1-.106-.621L62.665,63.985a2.656,2.656,0,0,1,0-.648.982.982,0,0,1,.2-.449,1,1,0,0,1,.4-.264,2.38,2.38,0,0,1,.608-.132Z" transform="translate(-18.992 -33.413)"/><path class="b" d="M71.068,44.482a1.988,1.988,0,0,1,.4,0,.648.648,0,0,1,.264.145.532.532,0,0,1,.159.278,2.179,2.179,0,0,1,.079.423l.859,13.415a1.137,1.137,0,0,1,0,.423.587.587,0,0,1-.132.291.447.447,0,0,1-.238.172,2.108,2.108,0,0,1-.4.079l-2.247.172H69.3a.554.554,0,0,1-.185-.119,1.065,1.065,0,0,1-.159-.185l-3.476-4.9c-.251-.37-.463-.7-.648-1.031s-.357-.648-.515-.978-.3-.687-.449-1.084-.317-.806-.489-1.322h-.159c.145.515.278.978.383,1.414s.211.833.3,1.322.145.846.211,1.322.106.991.159,1.6l.225,3.529a1.208,1.208,0,0,1,0,.436.587.587,0,0,1-.132.291.656.656,0,0,1-.251.172,1.144,1.144,0,0,1-.423.079l-2.088.159a1.068,1.068,0,0,1-.41,0,.587.587,0,0,1-.291-.132.614.614,0,0,1-.172-.278,1.138,1.138,0,0,1,0-.423L59.7,46a2.407,2.407,0,0,1,0-.436.826.826,0,0,1,.132-.291.614.614,0,0,1,.278-.172,2.046,2.046,0,0,1,.41-.079l2.458-.106h.542a.939.939,0,0,1,.185.132.845.845,0,0,1,.172.2l3.7,5.392c.251.37.449.687.621.991a6.786,6.786,0,0,1,.449.872l.41.912c.132.33.291.674.476,1.084h.172c-.2-.555-.37-1.031-.515-1.467s-.264-.833-.357-1.229-.185-.819-.251-1.242c0-.449-.106-.925-.145-1.467l-.225-3.568a1.137,1.137,0,0,1,0-.423,1.122,1.122,0,0,1,.119-.291.657.657,0,0,1,.251-.172,2.123,2.123,0,0,1,.41,0Z" transform="translate(-19.941 -38.849)"/><path class="b" d="M60.385,62.635a2.24,2.24,0,0,1,.595,0,.96.96,0,0,1,.41.185,1.043,1.043,0,0,1,.238.383,2.434,2.434,0,0,1,.093.621l1.4,20.472a2.443,2.443,0,0,1,0,.621.926.926,0,0,1-.172.423,1.092,1.092,0,0,1-.37.278A2.186,2.186,0,0,1,62,85.75l-3.687.5a2.342,2.342,0,0,1-.608,0,.763.763,0,0,1-.4-.172.7.7,0,0,1-.238-.37,2.378,2.378,0,0,1-.132-.608l-1.441-20.71a2.548,2.548,0,0,1,0-.634.943.943,0,0,1,.185-.423.954.954,0,0,1,.383-.264,2.376,2.376,0,0,1,.595-.119Z" transform="translate(-21.298 -33.014)"/><path class="b" d="M59.893,44.965a1.068,1.068,0,0,1,.41,0,.565.565,0,0,1,.278.145.588.588,0,0,1,.159.278,2.523,2.523,0,0,1,.079.436l.634,9.317a7.6,7.6,0,0,1-.2,2.445A4.891,4.891,0,0,1,58.531,60.8a7.178,7.178,0,0,1-2.511.582A6.912,6.912,0,0,1,54,61.287a5.137,5.137,0,0,1-2.974-1.7,7.05,7.05,0,0,1-.925-1.546,1.574,1.574,0,0,1-.132-.423.474.474,0,0,1,0-.33.591.591,0,0,1,.211-.264,2.2,2.2,0,0,1,.37-.238l2.207-.978.132-.066h.582a.575.575,0,0,1,.2.106.845.845,0,0,1,.172.2l.159.278a5.064,5.064,0,0,0,.33.582,1.88,1.88,0,0,0,.4.4,1.4,1.4,0,0,0,.463.238,2.142,2.142,0,0,0,.582,0,2.009,2.009,0,0,0,.687-.159,1.218,1.218,0,0,0,.463-.4,1.745,1.745,0,0,0,.251-.608,4.66,4.66,0,0,0,0-.859l-.661-9.41a2.4,2.4,0,0,1,0-.436.587.587,0,0,1,.132-.291.638.638,0,0,1,.264-.185,1.137,1.137,0,0,1,.423,0Z" transform="translate(-23.079 -38.697)"/><path class="b" d="M53.853,60.34a1.06,1.06,0,0,1,.119.4.359.359,0,0,1-.225.489,2.108,2.108,0,0,1-.4.079l-2.379.185a6.673,6.673,0,0,1-.727,0,1.58,1.58,0,0,1-.489-.132,1.028,1.028,0,0,1-.317-.264,1.306,1.306,0,0,1-.2-.436l-.634-1.586-4.877.344-.383,1.678a1.951,1.951,0,0,1-.172.463,1.028,1.028,0,0,1-.264.317.97.97,0,0,1-.463.2,3.093,3.093,0,0,1-.7.106l-2.405.185a1.209,1.209,0,0,1-.436,0,.365.365,0,0,1-.251-.159.566.566,0,0,1-.079-.291,1.138,1.138,0,0,1,0-.423l4.19-14.908a2.319,2.319,0,0,1,.159-.423.739.739,0,0,1,.542-.4H43.9l2.617-.132h.436a1.379,1.379,0,0,1,.33.106,1.021,1.021,0,0,1,.251.225,1.214,1.214,0,0,1,.211.357Zm-9.384-4.573,2.815-.185-1.018-2.643A8.708,8.708,0,0,1,45.91,51.8c-.093-.357-.172-.7-.225-.991a6.415,6.415,0,0,1-.119-.727v-.317h-.211v1.044a5.55,5.55,0,0,1-.066,1,11.491,11.491,0,0,1-.172,1.15l-.634,2.749" transform="translate(-26.74 -38.477)"/><path class="b" d="M60.585,63.2a1.5,1.5,0,0,1,.595,0,.521.521,0,0,1,.33.225.723.723,0,0,1,.093.41,2.444,2.444,0,0,1,0,.621L57.889,86.075a2.072,2.072,0,0,1-.172.621,1.5,1.5,0,0,1-.317.4,2.136,2.136,0,0,1-.463.225,2.48,2.48,0,0,1-.621.132l-3.833.515a2.761,2.761,0,0,1-.661,0,1.382,1.382,0,0,1-.515-.106,1.021,1.021,0,0,1-.383-.291,1.228,1.228,0,0,1-.264-.5l-2.392-7.639q-.218-.773-.4-1.546c-.119-.5-.211-1.018-.3-1.52s-.159-1-.225-1.493-.119-.978-.159-1.467h-.278v2.987a7.8,7.8,0,0,1-.106,1.56c-.106.529-.106,1.084-.185,1.652l-1.2,8.062a2.137,2.137,0,0,1-.225.634,1.142,1.142,0,0,1-.344.41,1.679,1.679,0,0,1-.489.238,3.514,3.514,0,0,1-.648.132l-3.965.529a5.725,5.725,0,0,1-.674,0,1.508,1.508,0,0,1-.542-.092,1.109,1.109,0,0,1-.41-.291,1.592,1.592,0,0,1-.264-.542L30.531,67.241a3.325,3.325,0,0,1-.172-.621.694.694,0,0,1,0-.463.618.618,0,0,1,.317-.291,1.916,1.916,0,0,1,.661-.145l4.375-.4a7.922,7.922,0,0,1,.793,0,1.491,1.491,0,0,1,.582.132.973.973,0,0,1,.41.357,1.936,1.936,0,0,1,.278.634l2.234,8.881c.106.436.211.978.317,1.546s.211,1.176.291,1.758.159,1.137.225,1.612.093.859.106,1.1h.238v-4.52a11.287,11.287,0,0,1,.159-1.612L42.8,65.959a1.81,1.81,0,0,1,.211-.687,1.179,1.179,0,0,1,.357-.41,1.518,1.518,0,0,1,.542-.225,6.692,6.692,0,0,1,.714-.119l3.687-.33a6.193,6.193,0,0,1,.7,0,1.319,1.319,0,0,1,.555.132,1.082,1.082,0,0,1,.423.344,2.089,2.089,0,0,1,.3.621l2.643,8.63c.145.463.264,1,.383,1.56s.225,1.137.317,1.692.172,1.084.238,1.533.106.819.132,1.071h.251V75.383a10.2,10.2,0,0,1,.079-1.6l.74-8.921a2.863,2.863,0,0,1,.172-.661,1.108,1.108,0,0,1,.33-.41,1.559,1.559,0,0,1,.529-.225,7.439,7.439,0,0,1,.753-.119Z" transform="translate(-29.388 -32.836)"/><path class="b" d="M40.34,45.912a2.856,2.856,0,0,1,.476,0,.72.72,0,0,1,.317.159.638.638,0,0,1,.2.291,2.164,2.164,0,0,1,.132.5l.159,2.075a1.518,1.518,0,0,1,0,.489.7.7,0,0,1-.145.317.84.84,0,0,1-.291.185,2.6,2.6,0,0,1-.463.079l-6.2.33.211,2.643,4.956-.291a2.863,2.863,0,0,1,.476,0,.872.872,0,0,1,.317.145.84.84,0,0,1,.185.291,1.373,1.373,0,0,1,.093.463l.159,2.062a1.516,1.516,0,0,1,0,.489.584.584,0,0,1-.145.317.528.528,0,0,1-.291.185,1.361,1.361,0,0,1-.463.079l-4.943.33.357,4.7a1.359,1.359,0,0,1,0,.463.584.584,0,0,1-.145.317.529.529,0,0,1-.291.185,1.8,1.8,0,0,1-.463.093l-2.643.2a1.518,1.518,0,0,1-.489,0,.624.624,0,0,1-.33-.145.716.716,0,0,1-.2-.291,2.6,2.6,0,0,1-.079-.463L29.635,47.366a1.359,1.359,0,0,1,0-.463.72.72,0,0,1,.159-.317.562.562,0,0,1,.3-.185,2.981,2.981,0,0,1,.476-.079Z" transform="translate(-29.615 -38.389)"/></g></g></svg>